<?xml version="1.0" encoding="utf-8" standalone="no"?>
<!DOCTYPE svg PUBLIC "-//W3C//DTD SVG 1.1//EN"
  "http://www.w3.org/Graphics/SVG/1.1/DTD/svg11.dtd">
<svg xmlns:xlink="http://www.w3.org/1999/xlink" width="720pt" height="432pt" viewBox="0 0 720 432" xmlns="http://www.w3.org/2000/svg" version="1.1">
 <metadata>
  <rdf:RDF xmlns:dc="http://purl.org/dc/elements/1.1/" xmlns:cc="http://creativecommons.org/ns#" xmlns:rdf="http://www.w3.org/1999/02/22-rdf-syntax-ns#">
   <cc:Work>
    <dc:type rdf:resource="http://purl.org/dc/dcmitype/StillImage"/>
    <dc:date>2025-10-23T19:29:10.261645</dc:date>
    <dc:format>image/svg+xml</dc:format>
    <dc:creator>
     <cc:Agent>
      <dc:title>Matplotlib v3.6.3, https://matplotlib.org/</dc:title>
     </cc:Agent>
    </dc:creator>
   </cc:Work>
  </rdf:RDF>
 </metadata>
 <defs>
  <style type="text/css">*{stroke-linejoin: round; stroke-linecap: butt}</style>
 </defs>
 <g id="figure_1">
  <g id="patch_1">
   <path d="M 0 432 
L 720 432 
L 720 0 
L 0 0 
z
" style="fill: #ffffff"/>
  </g>
  <g id="patch_2">
   <path d="M 202.68 384.48 
L 535.32 384.48 
L 535.32 51.84 
L 202.68 51.84 
z
" style="fill: #ffffff"/>
  </g>
  <g id="pane3d_1">
   <g id="patch_3">
    <path d="M 227.796614 302.461636 
L 337.645206 210.384369 
L 336.118205 77.592489 
L 221.012792 161.591176 
" style="fill: #f2f2f2; opacity: 0.5; stroke: #f2f2f2; stroke-linejoin: miter"/>
   </g>
  </g>
  <g id="pane3d_2">
   <g id="patch_4">
    <path d="M 337.645206 210.384369 
L 513.913001 261.618458 
L 520.203377 124.252714 
L 336.118205 77.592489 
" style="fill: #e6e6e6; opacity: 0.5; stroke: #e6e6e6; stroke-linejoin: miter"/>
   </g>
  </g>
  <g id="pane3d_3">
   <g id="patch_5">
    <path d="M 227.796614 302.461636 
L 414.649086 363.487653 
L 513.913001 261.618458 
L 337.645206 210.384369 
" style="fill: #ececec; opacity: 0.5; stroke: #ececec; stroke-linejoin: miter"/>
   </g>
  </g>
  <g id="axis3d_1">
   <g id="line2d_1">
    <path d="M 227.796614 302.461636 
L 414.649086 363.487653 
" style="fill: none; stroke: #000000; stroke-width: 0.8; stroke-linecap: square"/>
   </g>
   <g id="text_1">
    <!-- X-axis -->
    <g transform="translate(287.383657 365.351088) rotate(-341.912962) scale(0.1 -0.1)">
     <defs>
      <path id="DejaVuSans-58" d="M 403 4666 
L 1081 4666 
L 2241 2931 
L 3406 4666 
L 4084 4666 
L 2584 2425 
L 4184 0 
L 3506 0 
L 2194 1984 
L 872 0 
L 191 0 
L 1856 2491 
L 403 4666 
z
" transform="scale(0.015625)"/>
      <path id="DejaVuSans-2d" d="M 313 2009 
L 1997 2009 
L 1997 1497 
L 313 1497 
L 313 2009 
z
" transform="scale(0.015625)"/>
      <path id="DejaVuSans-61" d="M 2194 1759 
Q 1497 1759 1228 1600 
Q 959 1441 959 1056 
Q 959 750 1161 570 
Q 1363 391 1709 391 
Q 2188 391 2477 730 
Q 2766 1069 2766 1631 
L 2766 1759 
L 2194 1759 
z
M 3341 1997 
L 3341 0 
L 2766 0 
L 2766 531 
Q 2569 213 2275 61 
Q 1981 -91 1556 -91 
Q 1019 -91 701 211 
Q 384 513 384 1019 
Q 384 1609 779 1909 
Q 1175 2209 1959 2209 
L 2766 2209 
L 2766 2266 
Q 2766 2663 2505 2880 
Q 2244 3097 1772 3097 
Q 1472 3097 1187 3025 
Q 903 2953 641 2809 
L 641 3341 
Q 956 3463 1253 3523 
Q 1550 3584 1831 3584 
Q 2591 3584 2966 3190 
Q 3341 2797 3341 1997 
z
" transform="scale(0.015625)"/>
      <path id="DejaVuSans-78" d="M 3513 3500 
L 2247 1797 
L 3578 0 
L 2900 0 
L 1881 1375 
L 863 0 
L 184 0 
L 1544 1831 
L 300 3500 
L 978 3500 
L 1906 2253 
L 2834 3500 
L 3513 3500 
z
" transform="scale(0.015625)"/>
      <path id="DejaVuSans-69" d="M 603 3500 
L 1178 3500 
L 1178 0 
L 603 0 
L 603 3500 
z
M 603 4863 
L 1178 4863 
L 1178 4134 
L 603 4134 
L 603 4863 
z
" transform="scale(0.015625)"/>
      <path id="DejaVuSans-73" d="M 2834 3397 
L 2834 2853 
Q 2591 2978 2328 3040 
Q 2066 3103 1784 3103 
Q 1356 3103 1142 2972 
Q 928 2841 928 2578 
Q 928 2378 1081 2264 
Q 1234 2150 1697 2047 
L 1894 2003 
Q 2506 1872 2764 1633 
Q 3022 1394 3022 966 
Q 3022 478 2636 193 
Q 2250 -91 1575 -91 
Q 1294 -91 989 -36 
Q 684 19 347 128 
L 347 722 
Q 666 556 975 473 
Q 1284 391 1588 391 
Q 1994 391 2212 530 
Q 2431 669 2431 922 
Q 2431 1156 2273 1281 
Q 2116 1406 1581 1522 
L 1381 1569 
Q 847 1681 609 1914 
Q 372 2147 372 2553 
Q 372 3047 722 3315 
Q 1072 3584 1716 3584 
Q 2034 3584 2315 3537 
Q 2597 3491 2834 3397 
z
" transform="scale(0.015625)"/>
     </defs>
     <use xlink:href="#DejaVuSans-58"/>
     <use xlink:href="#DejaVuSans-2d" x="63.505859"/>
     <use xlink:href="#DejaVuSans-61" x="99.589844"/>
     <use xlink:href="#DejaVuSans-78" x="160.869141"/>
     <use xlink:href="#DejaVuSans-69" x="220.048828"/>
     <use xlink:href="#DejaVuSans-73" x="247.832031"/>
    </g>
   </g>
   <g id="Line3DCollection_1">
    <path d="M 246.079025 308.432672 
L 354.960785 215.417324 
L 354.167324 82.167414 
" style="fill: none; stroke: #b0b0b0; stroke-width: 0.8"/>
    <path d="M 281.760637 320.086286 
L 388.712311 225.22756 
L 389.370174 91.09031 
" style="fill: none; stroke: #b0b0b0; stroke-width: 0.8"/>
    <path d="M 318.183976 331.982149 
L 423.106738 235.224662 
L 425.272847 100.190592 
" style="fill: none; stroke: #b0b0b0; stroke-width: 0.8"/>
    <path d="M 355.372413 344.127892 
L 458.162614 245.414021 
L 461.896423 109.4736 
" style="fill: none; stroke: #b0b0b0; stroke-width: 0.8"/>
    <path d="M 393.35031 356.531473 
L 493.899204 255.801237 
L 499.262833 118.944896 
" style="fill: none; stroke: #b0b0b0; stroke-width: 0.8"/>
   </g>
   <g id="xtick_1">
    <g id="line2d_2">
     <path d="M 247.027316 307.622567 
L 244.178365 310.056364 
" style="fill: none; stroke: #000000; stroke-width: 0.8; stroke-linecap: square"/>
    </g>
    <g id="text_2">
     <!-- −2 -->
     <g transform="translate(231.190032 331.768607) scale(0.1 -0.1)">
      <defs>
       <path id="DejaVuSans-2212" d="M 678 2272 
L 4684 2272 
L 4684 1741 
L 678 1741 
L 678 2272 
z
" transform="scale(0.015625)"/>
       <path id="DejaVuSans-32" d="M 1228 531 
L 3431 531 
L 3431 0 
L 469 0 
L 469 531 
Q 828 903 1448 1529 
Q 2069 2156 2228 2338 
Q 2531 2678 2651 2914 
Q 2772 3150 2772 3378 
Q 2772 3750 2511 3984 
Q 2250 4219 1831 4219 
Q 1534 4219 1204 4116 
Q 875 4013 500 3803 
L 500 4441 
Q 881 4594 1212 4672 
Q 1544 4750 1819 4750 
Q 2544 4750 2975 4387 
Q 3406 4025 3406 3419 
Q 3406 3131 3298 2873 
Q 3191 2616 2906 2266 
Q 2828 2175 2409 1742 
Q 1991 1309 1228 531 
z
" transform="scale(0.015625)"/>
      </defs>
      <use xlink:href="#DejaVuSans-2212"/>
      <use xlink:href="#DejaVuSans-32" x="83.789062"/>
     </g>
    </g>
   </g>
   <g id="xtick_2">
    <g id="line2d_3">
     <path d="M 282.692898 319.259435 
L 279.892065 321.74358 
" style="fill: none; stroke: #000000; stroke-width: 0.8; stroke-linecap: square"/>
    </g>
    <g id="text_3">
     <!-- −1 -->
     <g transform="translate(266.901419 343.619654) scale(0.1 -0.1)">
      <defs>
       <path id="DejaVuSans-31" d="M 794 531 
L 1825 531 
L 1825 4091 
L 703 3866 
L 703 4441 
L 1819 4666 
L 2450 4666 
L 2450 531 
L 3481 531 
L 3481 0 
L 794 0 
L 794 531 
z
" transform="scale(0.015625)"/>
      </defs>
      <use xlink:href="#DejaVuSans-2212"/>
      <use xlink:href="#DejaVuSans-31" x="83.789062"/>
     </g>
    </g>
   </g>
   <g id="xtick_3">
    <g id="line2d_4">
     <path d="M 319.099333 331.138026 
L 316.349245 333.674098 
" style="fill: none; stroke: #000000; stroke-width: 0.8; stroke-linecap: square"/>
    </g>
    <g id="text_4">
     <!-- 0 -->
     <g transform="translate(307.547251 355.717802) scale(0.1 -0.1)">
      <defs>
       <path id="DejaVuSans-30" d="M 2034 4250 
Q 1547 4250 1301 3770 
Q 1056 3291 1056 2328 
Q 1056 1369 1301 889 
Q 1547 409 2034 409 
Q 2525 409 2770 889 
Q 3016 1369 3016 2328 
Q 3016 3291 2770 3770 
Q 2525 4250 2034 4250 
z
M 2034 4750 
Q 2819 4750 3233 4129 
Q 3647 3509 3647 2328 
Q 3647 1150 3233 529 
Q 2819 -91 2034 -91 
Q 1250 -91 836 529 
Q 422 1150 422 2328 
Q 422 3509 836 4129 
Q 1250 4750 2034 4750 
z
" transform="scale(0.015625)"/>
      </defs>
      <use xlink:href="#DejaVuSans-30"/>
     </g>
    </g>
   </g>
   <g id="xtick_4">
    <g id="line2d_5">
     <path d="M 356.269946 343.265952 
L 353.573365 345.855595 
" style="fill: none; stroke: #000000; stroke-width: 0.8; stroke-linecap: square"/>
    </g>
    <g id="text_5">
     <!-- 1 -->
     <g transform="translate(344.771375 368.070861) scale(0.1 -0.1)">
      <use xlink:href="#DejaVuSans-31"/>
     </g>
    </g>
   </g>
   <g id="xtick_5">
    <g id="line2d_6">
     <path d="M 394.229053 355.651145 
L 391.588884 358.296075 
" style="fill: none; stroke: #000000; stroke-width: 0.8; stroke-linecap: square"/>
    </g>
    <g id="text_6">
     <!-- 2 -->
     <g transform="translate(382.78817 380.686972) scale(0.1 -0.1)">
      <use xlink:href="#DejaVuSans-32"/>
     </g>
    </g>
   </g>
  </g>
  <g id="axis3d_2">
   <g id="line2d_7">
    <path d="M 513.913001 261.618458 
L 414.649086 363.487653 
" style="fill: none; stroke: #000000; stroke-width: 0.8; stroke-linecap: square"/>
   </g>
   <g id="text_7">
    <!-- Y-axis -->
    <g transform="translate(485.476471 350.430627) rotate(-45.742112) scale(0.1 -0.1)">
     <defs>
      <path id="DejaVuSans-59" d="M -13 4666 
L 666 4666 
L 1959 2747 
L 3244 4666 
L 3922 4666 
L 2272 2222 
L 2272 0 
L 1638 0 
L 1638 2222 
L -13 4666 
z
" transform="scale(0.015625)"/>
     </defs>
     <use xlink:href="#DejaVuSans-59"/>
     <use xlink:href="#DejaVuSans-2d" x="49.208984"/>
     <use xlink:href="#DejaVuSans-61" x="85.292969"/>
     <use xlink:href="#DejaVuSans-78" x="146.572266"/>
     <use xlink:href="#DejaVuSans-69" x="205.751953"/>
     <use xlink:href="#DejaVuSans-73" x="233.535156"/>
    </g>
   </g>
   <g id="Line3DCollection_2">
    <path d="M 236.597558 150.218124 
L 242.620868 290.035652 
L 428.096164 349.687643 
" style="fill: none; stroke: #b0b0b0; stroke-width: 0.8"/>
    <path d="M 254.768378 136.957887 
L 259.924213 275.531646 
L 443.771739 333.600648 
" style="fill: none; stroke: #b0b0b0; stroke-width: 0.8"/>
    <path d="M 272.451407 124.053618 
L 276.782966 261.400305 
L 459.02357 317.948516 
" style="fill: none; stroke: #b0b0b0; stroke-width: 0.8"/>
    <path d="M 289.666026 111.491173 
L 293.214045 247.627449 
L 473.868612 302.713852 
" style="fill: none; stroke: #b0b0b0; stroke-width: 0.8"/>
    <path d="M 306.430605 99.257147 
L 309.23352 234.199607 
L 488.322924 287.880172 
" style="fill: none; stroke: #b0b0b0; stroke-width: 0.8"/>
    <path d="M 322.762563 87.338827 
L 324.856667 221.103975 
L 502.401732 273.431851 
" style="fill: none; stroke: #b0b0b0; stroke-width: 0.8"/>
   </g>
   <g id="xtick_6">
    <g id="line2d_8">
     <path d="M 426.533611 349.1851 
L 431.225289 350.694022 
" style="fill: none; stroke: #000000; stroke-width: 0.8; stroke-linecap: square"/>
    </g>
    <g id="text_8">
     <!-- −2 -->
     <g transform="translate(433.533627 370.627778) scale(0.1 -0.1)">
      <use xlink:href="#DejaVuSans-2212"/>
      <use xlink:href="#DejaVuSans-32" x="83.789062"/>
     </g>
    </g>
   </g>
   <g id="xtick_7">
    <g id="line2d_9">
     <path d="M 442.223968 333.111778 
L 446.871206 334.579627 
" style="fill: none; stroke: #000000; stroke-width: 0.8; stroke-linecap: square"/>
    </g>
    <g id="text_9">
     <!-- −1 -->
     <g transform="translate(449.040989 354.350344) scale(0.1 -0.1)">
      <use xlink:href="#DejaVuSans-2212"/>
      <use xlink:href="#DejaVuSans-31" x="83.789062"/>
     </g>
    </g>
   </g>
   <g id="xtick_8">
    <g id="line2d_10">
     <path d="M 457.490359 317.47277 
L 462.093829 318.9012 
" style="fill: none; stroke: #000000; stroke-width: 0.8; stroke-linecap: square"/>
    </g>
    <g id="text_10">
     <!-- 0 -->
     <g transform="translate(468.318804 338.513125) scale(0.1 -0.1)">
      <use xlink:href="#DejaVuSans-30"/>
     </g>
    </g>
   </g>
   <g id="xtick_9">
    <g id="line2d_11">
     <path d="M 472.349739 302.250707 
L 476.910107 303.641285 
" style="fill: none; stroke: #000000; stroke-width: 0.8; stroke-linecap: square"/>
    </g>
    <g id="text_11">
     <!-- 1 -->
     <g transform="translate(483.004173 323.098503) scale(0.1 -0.1)">
      <use xlink:href="#DejaVuSans-31"/>
     </g>
    </g>
   </g>
   <g id="xtick_10">
    <g id="line2d_12">
     <path d="M 486.81817 287.429135 
L 491.336096 288.783345 
" style="fill: none; stroke: #000000; stroke-width: 0.8; stroke-linecap: square"/>
    </g>
    <g id="text_12">
     <!-- 2 -->
     <g transform="translate(497.30284 308.089785) scale(0.1 -0.1)">
      <use xlink:href="#DejaVuSans-32"/>
     </g>
    </g>
   </g>
   <g id="xtick_11">
    <g id="line2d_13">
     <path d="M 500.910882 272.992453 
L 505.387017 274.311705 
" style="fill: none; stroke: #000000; stroke-width: 0.8; stroke-linecap: square"/>
    </g>
    <g id="text_13">
     <!-- 3 -->
     <g transform="translate(511.229881 293.471147) scale(0.1 -0.1)">
      <defs>
       <path id="DejaVuSans-33" d="M 2597 2516 
Q 3050 2419 3304 2112 
Q 3559 1806 3559 1356 
Q 3559 666 3084 287 
Q 2609 -91 1734 -91 
Q 1441 -91 1130 -33 
Q 819 25 488 141 
L 488 750 
Q 750 597 1062 519 
Q 1375 441 1716 441 
Q 2309 441 2620 675 
Q 2931 909 2931 1356 
Q 2931 1769 2642 2001 
Q 2353 2234 1838 2234 
L 1294 2234 
L 1294 2753 
L 1863 2753 
Q 2328 2753 2575 2939 
Q 2822 3125 2822 3475 
Q 2822 3834 2567 4026 
Q 2313 4219 1838 4219 
Q 1578 4219 1281 4162 
Q 984 4106 628 3988 
L 628 4550 
Q 988 4650 1302 4700 
Q 1616 4750 1894 4750 
Q 2613 4750 3031 4423 
Q 3450 4097 3450 3541 
Q 3450 3153 3228 2886 
Q 3006 2619 2597 2516 
z
" transform="scale(0.015625)"/>
      </defs>
      <use xlink:href="#DejaVuSans-33"/>
     </g>
    </g>
   </g>
  </g>
  <g id="axis3d_3">
   <g id="line2d_14">
    <path d="M 513.913001 261.618458 
L 520.203377 124.252714 
" style="fill: none; stroke: #000000; stroke-width: 0.8; stroke-linecap: square"/>
   </g>
   <g id="text_14">
    <!-- Z (m) -->
    <g transform="translate(559.544596 202.921506) rotate(-87.378092) scale(0.1 -0.1)">
     <defs>
      <path id="DejaVuSans-5a" d="M 359 4666 
L 4025 4666 
L 4025 4184 
L 1075 531 
L 4097 531 
L 4097 0 
L 288 0 
L 288 481 
L 3238 4134 
L 359 4134 
L 359 4666 
z
" transform="scale(0.015625)"/>
      <path id="DejaVuSans-20" transform="scale(0.015625)"/>
      <path id="DejaVuSans-28" d="M 1984 4856 
Q 1566 4138 1362 3434 
Q 1159 2731 1159 2009 
Q 1159 1288 1364 580 
Q 1569 -128 1984 -844 
L 1484 -844 
Q 1016 -109 783 600 
Q 550 1309 550 2009 
Q 550 2706 781 3412 
Q 1013 4119 1484 4856 
L 1984 4856 
z
" transform="scale(0.015625)"/>
      <path id="DejaVuSans-6d" d="M 3328 2828 
Q 3544 3216 3844 3400 
Q 4144 3584 4550 3584 
Q 5097 3584 5394 3201 
Q 5691 2819 5691 2113 
L 5691 0 
L 5113 0 
L 5113 2094 
Q 5113 2597 4934 2840 
Q 4756 3084 4391 3084 
Q 3944 3084 3684 2787 
Q 3425 2491 3425 1978 
L 3425 0 
L 2847 0 
L 2847 2094 
Q 2847 2600 2669 2842 
Q 2491 3084 2119 3084 
Q 1678 3084 1418 2786 
Q 1159 2488 1159 1978 
L 1159 0 
L 581 0 
L 581 3500 
L 1159 3500 
L 1159 2956 
Q 1356 3278 1631 3431 
Q 1906 3584 2284 3584 
Q 2666 3584 2933 3390 
Q 3200 3197 3328 2828 
z
" transform="scale(0.015625)"/>
      <path id="DejaVuSans-29" d="M 513 4856 
L 1013 4856 
Q 1481 4119 1714 3412 
Q 1947 2706 1947 2009 
Q 1947 1309 1714 600 
Q 1481 -109 1013 -844 
L 513 -844 
Q 928 -128 1133 580 
Q 1338 1288 1338 2009 
Q 1338 2731 1133 3434 
Q 928 4138 513 4856 
z
" transform="scale(0.015625)"/>
     </defs>
     <use xlink:href="#DejaVuSans-5a"/>
     <use xlink:href="#DejaVuSans-20" x="68.505859"/>
     <use xlink:href="#DejaVuSans-28" x="100.292969"/>
     <use xlink:href="#DejaVuSans-6d" x="139.306641"/>
     <use xlink:href="#DejaVuSans-29" x="236.71875"/>
    </g>
   </g>
   <g id="Line3DCollection_3">
    <path d="M 514.870658 240.705667 
L 337.412316 190.131703 
L 226.765309 281.045919 
" style="fill: none; stroke: #b0b0b0; stroke-width: 0.8"/>
    <path d="M 515.953648 217.055941 
L 337.149128 167.244187 
L 225.598395 256.814204 
" style="fill: none; stroke: #b0b0b0; stroke-width: 0.8"/>
    <path d="M 517.053358 193.041086 
L 336.882072 144.020334 
L 224.412773 232.193979 
" style="fill: none; stroke: #b0b0b0; stroke-width: 0.8"/>
    <path d="M 518.170178 168.652582 
L 336.611063 120.452676 
L 223.207987 207.175825 
" style="fill: none; stroke: #b0b0b0; stroke-width: 0.8"/>
    <path d="M 519.304512 143.881638 
L 336.336012 96.533521 
L 221.98357 181.750016 
" style="fill: none; stroke: #b0b0b0; stroke-width: 0.8"/>
   </g>
   <g id="xtick_12">
    <g id="line2d_15">
     <path d="M 513.380819 240.281077 
L 517.853905 241.555864 
" style="fill: none; stroke: #000000; stroke-width: 0.8; stroke-linecap: square"/>
    </g>
    <g id="text_15">
     <!-- 1.0 -->
     <g transform="translate(525.300601 245.730343) scale(0.1 -0.1)">
      <defs>
       <path id="DejaVuSans-2e" d="M 684 794 
L 1344 794 
L 1344 0 
L 684 0 
L 684 794 
z
" transform="scale(0.015625)"/>
      </defs>
      <use xlink:href="#DejaVuSans-31"/>
      <use xlink:href="#DejaVuSans-2e" x="63.623047"/>
      <use xlink:href="#DejaVuSans-30" x="95.410156"/>
     </g>
    </g>
   </g>
   <g id="xtick_13">
    <g id="line2d_16">
     <path d="M 514.451965 216.637599 
L 518.960636 217.893635 
" style="fill: none; stroke: #000000; stroke-width: 0.8; stroke-linecap: square"/>
    </g>
    <g id="text_16">
     <!-- 1.2 -->
     <g transform="translate(526.52142 222.118531) scale(0.1 -0.1)">
      <use xlink:href="#DejaVuSans-31"/>
      <use xlink:href="#DejaVuSans-2e" x="63.623047"/>
      <use xlink:href="#DejaVuSans-32" x="95.410156"/>
     </g>
    </g>
   </g>
   <g id="xtick_14">
    <g id="line2d_17">
     <path d="M 515.539642 192.629237 
L 520.084469 193.865787 
" style="fill: none; stroke: #000000; stroke-width: 0.8; stroke-linecap: square"/>
    </g>
    <g id="text_17">
     <!-- 1.4 -->
     <g transform="translate(527.761041 198.143071) scale(0.1 -0.1)">
      <defs>
       <path id="DejaVuSans-34" d="M 2419 4116 
L 825 1625 
L 2419 1625 
L 2419 4116 
z
M 2253 4666 
L 3047 4666 
L 3047 1625 
L 3713 1625 
L 3713 1100 
L 3047 1100 
L 3047 0 
L 2419 0 
L 2419 1100 
L 313 1100 
L 313 1709 
L 2253 4666 
z
" transform="scale(0.015625)"/>
      </defs>
      <use xlink:href="#DejaVuSans-31"/>
      <use xlink:href="#DejaVuSans-2e" x="63.623047"/>
      <use xlink:href="#DejaVuSans-34" x="95.410156"/>
     </g>
    </g>
   </g>
   <g id="xtick_15">
    <g id="line2d_18">
     <path d="M 516.644236 168.247478 
L 521.225802 169.463782 
" style="fill: none; stroke: #000000; stroke-width: 0.8; stroke-linecap: square"/>
    </g>
    <g id="text_18">
     <!-- 1.6 -->
     <g transform="translate(529.019902 173.795496) scale(0.1 -0.1)">
      <defs>
       <path id="DejaVuSans-36" d="M 2113 2584 
Q 1688 2584 1439 2293 
Q 1191 2003 1191 1497 
Q 1191 994 1439 701 
Q 1688 409 2113 409 
Q 2538 409 2786 701 
Q 3034 994 3034 1497 
Q 3034 2003 2786 2293 
Q 2538 2584 2113 2584 
z
M 3366 4563 
L 3366 3988 
Q 3128 4100 2886 4159 
Q 2644 4219 2406 4219 
Q 1781 4219 1451 3797 
Q 1122 3375 1075 2522 
Q 1259 2794 1537 2939 
Q 1816 3084 2150 3084 
Q 2853 3084 3261 2657 
Q 3669 2231 3669 1497 
Q 3669 778 3244 343 
Q 2819 -91 2113 -91 
Q 1303 -91 875 529 
Q 447 1150 447 2328 
Q 447 3434 972 4092 
Q 1497 4750 2381 4750 
Q 2619 4750 2861 4703 
Q 3103 4656 3366 4563 
z
" transform="scale(0.015625)"/>
      </defs>
      <use xlink:href="#DejaVuSans-31"/>
      <use xlink:href="#DejaVuSans-2e" x="63.623047"/>
      <use xlink:href="#DejaVuSans-36" x="95.410156"/>
     </g>
    </g>
   </g>
   <g id="xtick_16">
    <g id="line2d_19">
     <path d="M 517.766144 143.483543 
L 522.385046 144.678811 
" style="fill: none; stroke: #000000; stroke-width: 0.8; stroke-linecap: square"/>
    </g>
    <g id="text_19">
     <!-- 1.8 -->
     <g transform="translate(530.298454 149.067075) scale(0.1 -0.1)">
      <defs>
       <path id="DejaVuSans-38" d="M 2034 2216 
Q 1584 2216 1326 1975 
Q 1069 1734 1069 1313 
Q 1069 891 1326 650 
Q 1584 409 2034 409 
Q 2484 409 2743 651 
Q 3003 894 3003 1313 
Q 3003 1734 2745 1975 
Q 2488 2216 2034 2216 
z
M 1403 2484 
Q 997 2584 770 2862 
Q 544 3141 544 3541 
Q 544 4100 942 4425 
Q 1341 4750 2034 4750 
Q 2731 4750 3128 4425 
Q 3525 4100 3525 3541 
Q 3525 3141 3298 2862 
Q 3072 2584 2669 2484 
Q 3125 2378 3379 2068 
Q 3634 1759 3634 1313 
Q 3634 634 3220 271 
Q 2806 -91 2034 -91 
Q 1263 -91 848 271 
Q 434 634 434 1313 
Q 434 1759 690 2068 
Q 947 2378 1403 2484 
z
M 1172 3481 
Q 1172 3119 1398 2916 
Q 1625 2713 2034 2713 
Q 2441 2713 2670 2916 
Q 2900 3119 2900 3481 
Q 2900 3844 2670 4047 
Q 2441 4250 2034 4250 
Q 1625 4250 1398 4047 
Q 1172 3844 1172 3481 
z
" transform="scale(0.015625)"/>
      </defs>
      <use xlink:href="#DejaVuSans-31"/>
      <use xlink:href="#DejaVuSans-2e" x="63.623047"/>
      <use xlink:href="#DejaVuSans-38" x="95.410156"/>
     </g>
    </g>
   </g>
  </g>
  <g id="axes_1">
   <g id="line2d_20">
    <path d="M 430.587862 253.840504 
L 430.616322 253.686322 
L 430.595161 253.905485 
L 430.571414 253.725753 
L 430.600253 253.500605 
L 430.579538 253.756713 
L 430.597704 253.522288 
L 430.720179 253.249122 
L 431.184254 252.151888 
L 431.016953 251.718033 
L 431.228245 250.896797 
L 432.302384 250.935869 
L 431.917881 248.902373 
L 432.837863 247.866888 
L 432.606256 246.757142 
L 433.508165 240.224131 
L 434.278866 241.24045 
L 434.428174 239.568918 
L 434.519232 236.596283 
L 434.938216 237.312091 
L 435.350484 236.927918 
L 435.85089 238.672289 
L 436.001719 239.403321 
L 435.965792 239.809873 
L 436.212854 239.826214 
L 436.303576 239.545457 
L 436.526865 238.379398 
L 436.585576 238.507804 
L 436.849749 237.607736 
L 436.908994 236.514555 
L 436.802327 236.54394 
L 436.717185 235.618707 
L 436.914377 233.466062 
L 436.856446 234.233198 
L 436.74107 232.672089 
L 437.223671 230.083069 
L 437.524757 231.109809 
L 437.638082 230.15709 
L 437.994187 228.22062 
L 438.505777 226.503347 
L 438.344185 227.680698 
L 439.21825 225.836338 
L 439.119328 223.183704 
L 439.484336 223.108535 
L 440.137567 221.609109 
L 441.004287 220.128237 
L 441.460114 221.505538 
L 441.50385 221.031439 
L 442.415842 218.360557 
L 443.075863 219.177371 
L 443.964034 217.438508 
L 444.277774 215.416548 
L 444.282352 215.660066 
L 445.254599 214.488214 
L 445.218254 214.48666 
L 445.793649 215.942951 
L 446.654218 215.143295 
L 446.987879 212.875275 
L 447.260623 215.212296 
L 448.004513 214.393449 
L 448.255122 214.406677 
L 448.648296 214.993074 
L 448.928895 213.25078 
L 449.405999 214.866609 
L 450.338878 215.039805 
L 450.505023 215.796026 
L 451.326201 213.643694 
L 451.730808 216.364237 
L 452.353094 216.53427 
L 452.488235 217.579576 
L 452.919653 218.054686 
L 453.776209 218.479229 
L 454.019665 219.580798 
L 454.56328 220.327239 
L 455.104046 218.108638 
L 456.203058 219.052825 
L 456.179422 219.980324 
L 457.386988 220.790861 
L 457.325177 221.772801 
L 458.583718 221.999345 
L 459.213007 222.733127 
L 459.88547 226.498822 
L 459.894041 225.075788 
L 461.175892 225.01553 
L 461.026883 229.676579 
L 462.750451 227.325798 
L 462.777049 228.87891 
L 464.089766 234.123972 
L 464.925545 235.753713 
L 466.23715 232.202035 
L 467.112743 233.571578 
L 467.834415 237.989096 
L 468.372886 239.809139 
L 469.22777 239.983322 
L 469.305882 241.444836 
L 470.01479 242.441041 
L 471.395272 242.578553 
L 471.180993 243.788134 
L 472.264462 241.851251 
L 472.657714 244.774775 
L 473.104871 245.442862 
L 473.651179 244.442563 
L 473.602991 247.41914 
L 474.03874 246.205561 
L 474.94774 248.365943 
L 475.332707 248.757909 
L 475.826244 249.835643 
L 476.413577 249.401755 
L 476.887963 248.835071 
L 477.771622 251.160991 
L 478.069093 253.608304 
L 478.218671 252.686171 
L 479.04158 253.051054 
L 479.041662 254.15277 
L 479.681052 256.152505 
L 480.049513 256.544604 
L 480.052446 256.034193 
L 480.189218 258.114509 
L 480.877678 258.760427 
L 481.194045 260.167668 
L 481.404424 259.196713 
L 481.392902 262.31505 
L 481.709387 260.440309 
L 481.63119 261.985052 
L 482.043088 261.626042 
L 482.074496 263.006568 
L 482.256775 262.296825 
L 482.174086 262.506107 
L 482.337882 263.251847 
L 482.398043 262.821232 
L 482.648092 262.723418 
L 482.467455 262.770466 
L 482.313254 262.03886 
L 483.115471 259.390726 
L 482.714496 257.535495 
L 483.156575 257.875206 
L 483.210726 251.862742 
L 483.456109 251.015608 
L 482.960857 251.617276 
L 483.008852 244.839228 
L 482.888414 246.552975 
L 481.802441 242.097172 
L 482.113222 236.136761 
L 481.712748 237.778914 
L 481.326224 236.121539 
L 480.606525 230.839231 
L 480.592512 233.429615 
L 479.642195 226.509054 
L 479.529818 228.078113 
L 478.144161 224.832057 
L 477.509513 220.246953 
L 477.057415 218.925637 
L 476.65153 220.611438 
L 476.923924 217.77834 
L 475.995932 219.548505 
L 475.022729 215.835146 
L 475.660801 216.213074 
L 475.088371 214.228339 
L 473.991817 216.32912 
L 473.528336 215.681075 
L 473.097924 213.574467 
L 473.038343 214.703764 
L 472.233665 211.74734 
L 472.900064 210.967812 
L 472.672594 210.425188 
L 471.525096 212.394521 
L 471.290325 212.021438 
L 470.739225 209.787965 
L 470.73812 210.371895 
L 470.763581 210.167366 
L 470.581898 209.280817 
L 470.671666 207.409495 
L 470.327174 207.534652 
L 470.245357 207.040453 
L 470.24964 205.174177 
L 469.389441 204.231268 
L 469.306002 204.356485 
L 469.181039 203.649294 
L 468.568628 202.457143 
L 467.100138 196.708922 
L 466.837327 197.628775 
L 466.532645 196.383023 
L 465.991241 195.206832 
L 465.753407 195.638925 
L 465.299256 195.3373 
L 465.472465 194.597007 
L 464.557581 197.475949 
L 464.247332 197.975799 
L 463.858777 197.723589 
L 464.051056 197.271189 
L 463.199062 197.238791 
L 462.987791 198.189944 
L 462.57763 195.774674 
L 462.369887 195.550666 
L 462.197455 192.923114 
L 461.92083 193.891962 
L 461.565849 193.781658 
L 461.549127 192.419856 
L 460.598437 194.715423 
L 460.04274 195.206357 
L 459.731511 197.522735 
L 459.089082 198.245212 
L 458.915243 201.096991 
L 458.58617 202.895356 
L 458.499221 201.156717 
L 458.043603 205.696855 
L 457.923918 208.829196 
L 456.70665 208.780423 
L 456.492638 212.439432 
L 456.474115 210.958874 
L 455.682772 216.99998 
L 455.501387 220.049372 
L 455.110684 222.132503 
L 454.620382 222.869647 
L 454.402015 227.988145 
L 454.081792 228.785206 
L 454.204522 228.207314 
L 453.194587 230.482646 
L 452.741485 230.033865 
L 452.75221 230.487619 
L 452.21585 230.617108 
L 452.071443 229.939766 
L 451.981576 227.256746 
L 451.528141 228.519349 
L 451.07492 225.735169 
L 450.94911 227.450292 
L 451.477556 224.393823 
L 449.939563 227.620313 
L 450.013419 226.614293 
L 450.081684 223.231181 
L 448.422204 226.125986 
L 448.487261 222.623424 
L 448.104046 222.22018 
L 446.525626 225.064881 
L 446.062886 224.97433 
L 445.234597 226.133679 
L 445.213491 226.59253 
L 445.069677 222.208881 
L 443.667706 225.943219 
L 443.899838 225.225314 
L 442.491864 225.485827 
L 441.98509 226.600125 
L 441.342179 227.140441 
L 441.141691 227.862131 
L 440.256335 228.617448 
L 439.631685 229.424528 
L 438.566752 229.174746 
L 437.847618 229.568239 
L 437.032892 230.921923 
L 437.793676 230.867038 
L 435.42582 231.47452 
L 434.588846 233.69711 
L 433.629376 234.503925 
L 432.391615 234.023322 
L 431.468679 234.760686 
L 432.37495 234.105127 
L 428.465032 237.981129 
L 427.345863 237.632384 
L 425.33486 239.682032 
L 424.728975 241.979944 
L 423.396661 242.360041 
L 424.048965 238.908478 
L 421.712103 244.461455 
L 420.678161 245.031138 
L 419.626599 245.80937 
L 418.961943 246.599505 
L 417.490075 246.628341 
L 417.90342 243.764623 
L 415.914882 247.501728 
L 415.861445 243.576317 
L 413.766304 245.683356 
L 413.847144 247.093739 
L 412.599471 246.262955 
L 412.054185 243.757916 
L 411.136375 241.580331 
L 411.924847 242.043304 
L 412.110825 239.475618 
L 410.243104 233.643574 
L 409.748 236.629181 
L 408.900991 233.119173 
L 409.048219 227.526237 
L 408.247179 225.596731 
L 407.671521 227.052217 
L 407.639268 221.292101 
L 406.601255 219.651366 
L 406.050156 221.908449 
L 405.937964 220.064926 
L 405.079293 216.12868 
L 404.354109 214.216004 
L 404.326739 209.05081 
L 403.790052 210.080113 
L 403.250067 206.142789 
L 402.776158 207.560824 
L 402.290637 206.846863 
L 401.750986 205.538038 
L 401.234801 206.24888 
L 401.057755 204.674426 
L 400.227368 204.960049 
L 400.046113 208.858336 
L 399.679563 207.839428 
L 399.224156 211.910529 
L 397.654377 211.778936 
L 397.594586 215.945223 
L 396.869421 215.366371 
L 397.114992 218.820516 
L 396.675015 220.834825 
L 395.816955 222.804151 
L 395.380358 224.635764 
L 394.572187 223.162859 
L 394.307949 227.876545 
L 393.823858 228.969493 
L 393.363466 230.704005 
L 392.937235 229.34675 
L 392.580493 230.802932 
L 392.735868 233.907048 
L 392.025834 234.866342 
L 391.492046 236.068131 
L 391.286366 236.046481 
L 390.767639 234.321106 
L 390.529166 235.237154 
L 390.441776 233.836675 
L 389.596681 232.401182 
L 389.53046 233.941753 
L 389.150051 233.143364 
L 389.223444 234.921761 
L 388.098977 236.289534 
L 388.334139 237.640946 
L 388.037076 236.979279 
L 387.722191 239.747088 
L 387.420672 239.745527 
L 386.727901 244.82969 
L 386.298467 245.845606 
L 384.706047 249.159075 
L 384.971801 250.398114 
L 384.150818 249.040349 
L 383.578923 250.924641 
L 383.249852 255.312758 
L 382.487085 256.375351 
L 382.203925 255.82028 
L 381.572992 256.60103 
L 380.061558 256.179888 
L 379.943733 257.19877 
L 380.001872 256.071519 
L 377.702829 253.752281 
L 377.416215 256.164771 
L 376.565657 254.959255 
L 376.812237 256.564811 
L 375.641605 255.0142 
L 376.078597 254.967101 
L 375.705228 256.539007 
L 375.22235 257.505708 
L 373.948078 257.281077 
L 374.713971 258.170082 
L 374.146411 260.197663 
L 372.861369 258.78256 
L 373.903271 261.653592 
L 373.553602 263.747116 
L 372.349193 260.915346 
L 372.556751 266.596456 
L 372.225835 262.316942 
L 373.789375 267.354574 
L 371.895438 265.606055 
L 374.032182 269.987691 
L 373.659955 264.586889 
L 373.322278 265.027685 
L 375.350459 271.174884 
L 375.536303 271.038237 
L 374.836158 268.359701 
L 373.131134 271.896761 
L 373.155872 273.399506 
L 375.096752 276.131251 
L 374.862729 276.491824 
L 373.929912 273.786064 
L 372.74124 276.856914 
L 373.935942 277.764531 
L 373.415815 277.437247 
L 372.958044 276.52764 
L 372.578955 277.142546 
L 372.036923 275.012212 
L 371.791739 274.105738 
L 371.732377 272.557293 
L 372.056367 271.599201 
L 371.972497 273.371806 
L 371.519547 270.271355 
L 372.046223 271.729913 
L 372.285734 270.47404 
L 371.98598 267.150871 
L 371.562938 267.49986 
L 373.002908 268.278667 
L 373.413468 267.415985 
L 373.004957 267.784065 
L 372.980572 264.001974 
L 374.964622 265.315772 
L 375.590321 263.74805 
L 374.910547 261.098218 
L 376.916145 263.371244 
L 376.941438 259.613279 
L 377.817839 259.355117 
L 379.068044 262.428633 
L 380.602545 262.292376 
L 379.637216 260.544377 
L 382.284142 261.911527 
L 383.14371 261.729504 
L 382.250083 259.944736 
L 384.799257 262.19502 
L 385.65641 259.399414 
L 386.522783 261.194269 
L 387.274905 260.982329 
L 387.626315 258.217893 
L 387.892733 261.777705 
L 389.192509 260.307845 
L 389.216836 261.122964 
L 390.266079 259.900596 
L 389.837378 258.859785 
L 390.347113 258.74599 
L 391.407899 257.92888 
L 392.016087 259.370796 
L 392.217753 258.557969 
L 392.481807 258.055844 
L 392.925255 259.744751 
L 392.482754 259.327673 
L 393.062618 260.601838 
L 393.412849 260.688884 
L 393.342132 259.111154 
L 393.101751 261.425404 
L 393.369171 261.119165 
L 393.183173 261.037353 
L 392.848624 261.45182 
L 392.446141 262.336506 
L 390.438461 265.155411 
L 390.679326 264.153537 
L 389.912521 265.504653 
L 389.260363 264.477136 
L 388.525638 266.867992 
L 387.788589 267.857892 
L 385.556148 269.604343 
L 385.18679 267.453861 
L 384.598722 271.846114 
L 383.403691 268.345362 
L 382.731105 269.041984 
L 381.285209 269.235379 
L 381.234237 270.522982 
L 380.05796 270.291693 
L 378.773557 275.337814 
L 378.74107 273.925367 
L 376.436426 274.943176 
L 375.564925 274.536584 
L 374.31829 271.805478 
L 375.032994 270.463127 
L 372.493718 270.963427 
L 373.141249 271.930288 
L 372.259678 272.96648 
L 371.092756 268.659247 
L 370.716641 271.476256 
L 369.454549 269.227884 
L 367.660091 270.671943 
L 367.283 272.927581 
L 367.696828 272.137664 
L 365.870478 271.046174 
L 366.20027 270.195766 
L 366.06387 272.470782 
L 364.677904 270.929114 
L 364.585812 272.442107 
L 364.398933 270.422397 
L 363.782935 274.033055 
L 363.461458 270.151412 
L 363.903949 272.345417 
L 363.799702 271.962656 
L 362.453376 270.899542 
L 362.434725 271.06323 
L 362.53463 271.399047 
L 362.278587 271.097283 
L 361.445681 270.300001 
L 360.731759 270.310236 
L 361.155147 270.33579 
L 360.20575 269.958803 
L 360.745003 270.789609 
L 360.668648 270.591432 
L 360.163516 270.135628 
L 359.65406 270.274085 
L 359.032246 270.152113 
L 358.757853 270.377864 
L 358.371615 271.467513 
L 358.385808 272.463474 
L 358.021716 273.093215 
L 358.012525 277.739036 
L 357.613843 280.64637 
L 357.37849 280.780974 
L 356.972419 281.469236 
L 356.927545 282.455385 
L 356.438642 282.572269 
L 356.04143 282.067981 
L 355.640672 280.977686 
L 355.524427 280.084376 
L 355.265676 279.664746 
L 354.434312 279.095551 
L 354.163354 278.635655 
L 354.122236 277.722509 
L 353.762654 276.825263 
L 353.738446 275.903432 
L 352.356054 271.098137 
L 353.205221 269.285041 
L 351.77172 266.20017 
L 352.439665 264.199881 
L 352.352287 261.515154 
L 351.552325 258.108363 
L 352.172 257.344054 
L 351.916877 255.007082 
L 352.319115 252.543857 
L 351.798477 250.598029 
L 352.147656 248.496128 
L 351.540295 248.300832 
L 351.479902 243.742585 
L 351.795511 243.341273 
L 351.797556 241.793814 
L 351.514614 237.493903 
L 353.172244 236.43693 
L 352.079276 234.533987 
L 354.149417 233.58014 
L 353.237821 231.285707 
L 354.467078 231.972484 
L 355.292387 230.795578 
L 355.686123 226.780529 
L 356.740511 226.528104 
L 356.516038 228.168848 
L 356.83428 227.174452 
L 357.748637 226.576451 
L 358.327458 226.364227 
L 358.050061 228.40257 
L 356.805606 223.105751 
L 356.614718 230.42251 
L 358.094933 227.396782 
L 356.583726 227.128396 
L 357.486742 233.712909 
L 356.452832 235.535459 
L 356.517978 236.720964 
L 354.698241 234.503094 
L 355.307361 240.489081 
L 353.246698 241.38359 
L 354.253143 243.294758 
L 351.911047 244.412096 
L 351.473171 245.119496 
L 352.801487 247.930338 
L 352.426731 250.401136 
L 351.940054 251.958637 
L 351.400123 255.286355 
L 350.584737 261.634727 
L 349.379417 261.544748 
L 349.931261 262.401874 
L 349.372727 264.397131 
L 350.170275 267.992202 
L 350.020399 267.686874 
L 350.183993 269.929524 
L 350.174034 273.682019 
L 350.347296 273.711914 
L 350.413635 273.193083 
L 350.766985 272.974274 
L 351.230115 273.317528 
L 350.767716 272.444295 
L 351.756072 272.854994 
L 351.412245 271.170469 
L 352.861734 271.366221 
L 352.450076 269.097974 
L 353.882237 270.281274 
L 353.239174 269.085907 
L 353.820462 269.773531 
L 354.433766 267.146722 
L 356.500385 268.967937 
L 357.065353 267.392939 
L 357.54735 267.684443 
L 357.966585 268.133523 
L 358.303483 268.65992 
L 358.576751 268.107893 
L 359.092843 268.001635 
L 358.920803 265.542888 
L 359.876454 268.051118 
L 360.265504 267.039441 
L 359.422982 265.823857 
L 360.790705 267.094031 
L 359.872729 265.670282 
L 361.783558 267.157459 
L 361.17473 269.125018 
L 362.37019 267.91283 
L 360.871877 266.691708 
L 361.058656 267.114153 
L 361.68878 270.77778 
L 362.599082 267.36123 
L 360.822547 267.811022 
L 362.331564 269.315552 
L 360.876159 271.031773 
L 361.764802 269.330915 
L 361.41165 269.545744 
L 361.077359 269.4956 
L 360.782561 269.233061 
L 360.137665 269.472228 
L 359.885358 267.300904 
L 359.753523 267.263317 
L 358.341202 268.040634 
L 358.297829 267.056198 
L 358.152406 270.37642 
L 359.002844 269.467693 
L 358.882086 269.482004 
L 358.552665 271.039718 
L 358.329191 267.620791 
L 358.556255 270.846982 
L 357.380077 269.394418 
L 357.342293 268.685761 
L 358.674727 272.282494 
L 358.802047 269.658846 
L 359.092912 270.015798 
L 359.019505 273.403474 
L 359.666298 271.813548 
L 359.350809 268.40746 
L 358.720024 269.177461 
L 359.862992 268.356441 
L 361.089694 271.341284 
L 361.278426 273.487107 
L 360.110788 269.580094 
L 360.584735 270.251469 
L 361.926974 269.177994 
L 362.98425 269.49114 
L 362.402903 271.68897 
L 364.073943 273.736124 
L 364.372505 269.64336 
L 365.376777 271.114267 
L 367.148594 275.190482 
L 367.898245 275.289089 
L 368.480949 275.73264 
L 368.274518 276.002887 
L 367.866796 274.887946 
L 370.173704 277.768027 
L 369.073417 276.834064 
L 371.101416 279.074791 
L 370.147959 277.394116 
L 371.879658 278.648717 
L 372.192314 278.33991 
L 372.437785 277.375677 
L 372.720309 274.861986 
L 372.770425 273.584497 
L 372.369266 272.098654 
L 372.790512 271.321143 
L 372.700544 269.244187 
L 371.975564 267.340922 
L 371.831062 265.322243 
L 372.504751 265.263259 
L 372.419437 264.141318 
L 371.519749 261.894621 
L 372.243795 261.601888 
L 371.323112 259.297506 
L 371.220453 258.16857 
L 371.90215 257.479745 
L 371.768681 256.30493 
L 371.029922 254.540228 
L 370.84763 253.026325 
L 371.20355 252.224445 
L 370.72932 251.830774 
L 371.057701 252.025374 
L 370.462109 250.724546 
L 370.948086 251.154327 
L 370.316474 249.853065 
L 370.488386 250.001865 
L 371.146286 249.703702 
L 370.658908 248.857928 
L 370.515527 247.879026 
L 370.666233 247.552804 
L 371.697741 248.700981 
L 371.752681 247.704164 
L 372.175585 248.163093 
L 372.354756 247.844453 
L 372.340926 247.561419 
L 372.896106 247.440523 
L 371.956751 245.612444 
L 372.332529 245.276501 
L 373.820282 246.931657 
L 373.182756 245.78122 
L 374.277938 246.622188 
L 374.440437 246.324062 
L 374.872298 246.111797 
L 373.936223 244.624135 
L 374.168911 244.025478 
L 375.636864 245.186978 
L 376.086532 244.299499 
L 375.057016 242.608013 
L 375.289958 242.089238 
L 376.251415 242.241664 
L 375.639234 241.453389 
L 375.750558 241.195721 
L 376.723561 241.978335 
L 375.830129 240.960589 
L 376.550522 241.941514 
L 376.399801 242.314998 
L 375.750338 241.628762 
L 376.186275 243.590648 
L 375.480644 243.490164 
L 375.912975 246.182264 
L 375.521537 246.726453 
L 375.882145 248.252982 
L 376.396798 249.159777 
L 376.352812 250.350768 
L 378.381091 255.100353 
L 378.459951 252.588382 
L 379.73609 257.209537 
L 379.033841 257.735916 
L 380.460785 259.028396 
L 381.754239 263.073427 
L 382.510622 264.053642 
L 383.560019 266.663004 
L 383.656763 264.557647 
L 385.295593 269.60167 
L 386.298276 270.605425 
L 386.292991 268.430864 
L 387.707108 272.161765 
L 388.425505 273.456162 
L 388.945228 271.940066 
L 389.702042 274.421983 
L 391.026698 275.7898 
L 391.179952 274.615905 
L 391.41161 274.921151 
L 392.458366 277.904811 
L 392.711975 277.391302 
L 392.994174 278.640562 
L 393.007177 279.648354 
L 393.151978 280.28329 
L 393.23126 279.944291 
L 393.052871 281.330792 
L 392.58855 282.672699 
L 391.858809 284.583142 
L 391.661263 286.062089 
L 391.056257 287.23832 
L 391.157932 288.249974 
L 390.342081 289.145244 
L 389.802575 289.051514 
L 389.707682 290.58772 
L 389.272913 291.335737 
L 388.851866 292.729033 
L 388.143087 293.921773 
L 387.226815 296.055307 
L 386.892947 296.615804 
L 386.166704 298.435327 
L 385.998094 299.3546 
L 385.10245 299.289907 
L 385.269956 300.767427 
L 385.179104 301.25637 
L 384.788338 301.591305 
L 384.733345 301.965906 
L 384.514662 302.14056 
L 384.798213 300.689962 
L 384.246249 301.679581 
L 384.95728 298.640068 
L 384.409033 298.686182 
L 384.091299 293.870423 
L 383.799396 294.601739 
L 383.588275 291.794084 
L 384.390328 294.351142 
L 384.535356 293.741204 
L 384.368177 292.157182 
L 385.224461 289.320374 
L 384.341734 284.972265 
L 384.641659 287.541106 
L 385.218254 286.137506 
L 385.308584 287.99776 
L 386.574293 285.474848 
L 385.344136 284.972206 
L 385.9725 283.238313 
L 386.361328 284.197131 
L 386.951632 281.187461 
L 387.302669 281.759486 
L 387.441732 280.869544 
L 388.179961 279.161093 
L 388.688133 280.043175 
L 390.023241 278.740902 
L 389.360489 278.23234 
L 389.787321 277.804995 
L 390.41766 276.259704 
L 390.9807 275.661637 
L 390.604938 275.247175 
L 390.635437 274.083057 
L 391.302556 273.184102 
L 390.360618 272.262638 
L 389.929458 271.226657 
L 389.381942 268.966593 
L 389.010332 268.24413 
L 388.705721 268.245836 
L 388.225692 265.901857 
L 387.828059 265.368218 
L 389.795545 263.000267 
L 387.095715 263.473949 
L 386.385787 261.736011 
L 388.768915 257.862221 
L 386.210477 261.432325 
L 386.929742 252.218677 
L 386.867812 251.364895 
L 384.631901 257.651399 
L 387.006629 254.407315 
L 383.896057 258.428257 
L 383.133225 256.88158 
L 383.041742 259.529585 
L 382.975976 256.932647 
L 381.626426 259.27652 
L 383.654625 259.931422 
L 380.277788 258.813444 
L 379.608157 261.145286 
L 381.330938 258.676967 
L 378.188481 261.090073 
L 377.169265 259.443546 
L 377.05529 259.95433 
L 375.255447 257.471718 
L 374.265421 256.527276 
L 375.608183 255.664765 
L 371.369102 257.02797 
L 370.210633 257.031798 
L 371.192136 255.559867 
L 367.644515 257.435095 
L 367.915643 256.27248 
L 364.909531 256.145597 
L 363.51428 255.199744 
L 364.884603 253.775206 
L 363.41924 251.482634 
L 361.997552 250.796455 
L 358.276192 250.615638 
L 358.59006 248.298757 
L 356.050753 247.938197 
L 355.116362 246.175769 
L 354.389561 245.178295 
L 354.622103 244.580111 
L 354.309603 243.881906 
L 353.122677 242.658388 
L 353.68204 242.176746 
L 352.827765 241.492013 
L 353.588226 239.918424 
L 353.45923 238.807627 
L 353.766025 238.252862 
L 353.725427 237.897361 
L 354.594092 236.925637 
L 355.010753 235.122034 
L 355.171957 234.182541 
L 354.724335 232.500957 
L 355.245878 231.645002 
L 354.975439 230.977064 
L 355.34138 230.011685 
L 355.539121 228.723964 
L 355.662442 228.242172 
L 355.704099 227.595531 
L 356.501201 227.438503 
L 357.275744 226.996257 
L 357.314484 226.537026 
L 357.713944 226.594769 
L 358.215463 226.873021 
L 358.21347 226.686863 
L 359.544608 226.618297 
L 359.145856 226.462343 
L 359.988783 226.450786 
L 359.947884 226.320336 
L 361.559717 226.18138 
L 361.397726 226.62037 
L 361.218243 225.234255 
L 362.126038 225.331169 
L 361.437192 226.024478 
L 362.833329 225.821175 
L 361.598236 226.203754 
L 361.659383 226.527648 
L 361.617674 226.174456 
L 361.788596 226.510353 
L 361.652666 226.579516 
L 361.725422 227.868883 
L 362.550629 228.048259 
L 363.125774 228.497833 
L 362.005945 228.750844 
L 362.235869 229.136276 
L 363.882402 229.270894 
L 364.261461 230.437118 
L 364.258162 228.626916 
L 363.775536 230.562615 
L 365.2885 229.468372 
L 364.863381 233.355346 
L 365.377232 231.009652 
L 366.229378 230.371417 
L 366.277759 234.056051 
L 366.879733 234.770294 
L 367.153299 233.446193 
L 367.767367 235.062475 
L 369.116629 232.294003 
L 369.933065 232.17933 
L 369.038451 235.911489 
L 369.027786 234.584816 
L 369.264729 234.335129 
L 369.935273 236.04602 
L 370.171864 235.841486 
L 370.056646 232.492158 
L 370.405339 235.497176 
L 370.785055 236.755746 
L 370.262971 232.89757 
L 370.602812 236.323169 
L 370.724704 236.409088 
L 371.361706 231.564696 
L 370.556299 236.489205 
L 370.154779 236.115505 
L 370.34086 236.829017 
L 369.594834 234.297328 
L 371.116086 232.250048 
L 369.703118 234.827271 
L 369.958785 235.155609 
L 371.287606 231.787996 
L 370.225818 234.64768 
L 370.473963 234.545818 
L 371.8466 231.836231 
L 371.214447 231.808862 
L 371.440928 233.857141 
L 371.929971 234.055681 
L 372.413286 234.41375 
L 373.545302 232.332023 
L 373.217625 234.20361 
L 373.654001 234.260906 
L 374.741164 232.743618 
L 374.668059 234.746858 
L 375.33532 234.418717 
L 376.030065 233.533244 
L 376.655291 234.896196 
L 376.247305 235.038936 
L 377.273521 237.567973 
L 377.783034 236.069216 
L 377.994423 239.641492 
L 378.459169 240.504841 
L 378.907602 242.137043 
L 378.930818 242.548989 
L 379.405129 244.301825 
L 379.326104 243.624908 
L 379.556699 246.328259 
L 379.447417 246.905687 
L 379.498875 247.836252 
L 379.864046 250.213073 
L 380.392442 251.752385 
L 380.468037 251.071139 
L 380.106599 252.592772 
L 380.204296 255.132129 
L 380.115604 256.126175 
L 380.355103 257.675871 
L 380.668677 258.184746 
L 380.494666 258.370495 
L 380.509748 258.728785 
L 380.691798 258.180319 
L 380.174228 257.716887 
L 380.107813 255.218927 
L 380.381788 253.175801 
L 380.235941 252.601278 
L 380.304419 251.477111 
L 380.990668 248.882906 
L 380.321862 247.827963 
L 380.599931 246.923448 
L 380.085487 244.609827 
L 380.136418 245.031534 
L 380.019543 242.784036 
L 380.609397 239.251381 
L 380.383273 237.633204 
L 378.082722 233.064173 
L 377.934834 231.396811 
L 378.932735 227.714977 
L 377.162054 226.386261 
L 377.515645 222.172675 
L 375.864344 218.588859 
L 375.378758 216.615661 
L 376.287463 216.38596 
L 375.877601 212.990018 
L 374.403716 210.812964 
L 374.138078 211.046445 
L 373.566088 209.970325 
L 373.776731 208.372023 
L 373.621156 208.830213 
L 372.267009 208.641586 
L 371.832867 207.474036 
L 371.324518 207.71332 
L 371.841034 207.513465 
L 370.223032 206.892855 
L 369.555448 206.881616 
L 368.844303 206.341612 
L 368.139502 205.612598 
L 367.170789 205.532362 
L 366.277735 203.942926 
L 365.414145 204.142082 
L 364.369168 203.358617 
L 363.293319 204.154367 
L 362.208031 201.898006 
L 361.085184 202.469564 
L 360.075118 201.256625 
L 359.74936 202.271201 
L 357.838893 201.007344 
L 356.825505 199.755108 
L 355.664544 198.735072 
L 356.695017 198.305159 
L 353.652208 197.201399 
L 352.782496 199.595093 
L 351.670521 197.658696 
L 350.728638 198.432003 
L 349.848906 197.967104 
L 349.024324 197.749584 
L 348.215989 198.839399 
L 347.354332 199.471189 
L 346.614195 199.630697 
L 345.770521 198.945917 
L 344.975265 198.744645 
L 344.298524 200.840747 
L 343.566093 198.95811 
L 343.270944 199.269467 
L 342.159829 200.089666 
L 343.154784 200.393684 
L 340.967998 200.530689 
L 340.159416 200.249009 
L 340.760971 200.444663 
L 338.286035 199.306279 
L 339.033651 200.470838 
L 336.675397 197.167048 
L 335.676762 197.329871 
L 334.888983 196.815799 
L 335.812093 197.063741 
L 333.215736 195.873575 
L 332.271105 196.303467 
L 331.020457 194.719007 
L 329.998054 196.875787 
L 327.999151 195.000228 
L 327.350665 195.520596 
L 326.13315 193.80448 
L 325.160176 195.192745 
L 325.925258 196.406015 
L 323.378814 195.095473 
L 321.619344 194.726877 
L 320.483494 193.970165 
L 321.054609 196.343796 
L 320.119478 196.179152 
L 317.671677 195.470543 
L 317.445611 194.977785 
L 315.25276 195.149042 
L 314.509954 195.411648 
L 314.955621 196.562276 
L 314.082458 195.519779 
L 313.084886 196.760587 
L 311.250716 195.808392 
L 310.472514 194.484807 
L 309.376634 195.202635 
L 308.643125 195.825931 
L 309.135406 196.914961 
L 306.122231 196.367415 
L 305.253937 196.700402 
L 305.775607 198.38612 
L 303.783668 196.078288 
L 302.876241 197.676327 
L 302.130843 197.564776 
L 301.290112 197.163023 
L 300.522301 197.651892 
L 300.915611 197.944114 
L 298.963913 198.879504 
L 298.675966 199.898618 
L 298.376604 197.637381 
L 297.172005 200.574811 
L 296.226173 200.528272 
L 294.996677 200.954184 
L 293.853965 199.164784 
L 293.627757 200.730603 
L 292.764635 197.714331 
L 291.541351 199.828295 
L 290.959737 199.46129 
L 290.396117 198.849209 
L 290.007326 197.374409 
L 289.272523 197.882185 
L 288.447773 196.973125 
L 287.553938 195.627294 
L 287.712142 192.861186 
L 287.15369 195.427045 
L 286.576158 194.787596 
L 285.881096 195.217995 
L 285.276319 195.016274 
L 285.343385 194.408886 
L 284.134189 195.285196 
L 283.695776 192.151331 
L 282.694971 194.402243 
L 282.381479 192.04309 
L 281.685961 195.208993 
L 281.273687 191.548391 
L 280.044941 190.342821 
L 279.921316 192.319785 
L 279.48649 191.975785 
L 278.603469 190.921784 
L 277.158761 190.785529 
L 276.495539 189.551661 
L 275.889027 190.427877 
L 275.876598 191.221856 
L 275.063571 193.190721 
L 274.398327 188.983057 
L 273.948883 192.494589 
L 273.335047 190.205888 
L 272.036245 191.434504 
L 271.626377 191.232436 
L 270.871278 190.211993 
L 269.14302 186.855244 
L 269.266872 189.874942 
L 268.645889 189.62839 
L 267.48278 188.871829 
L 266.314415 188.65171 
L 266.219408 189.439865 
L 264.028148 184.863612 
L 263.523345 186.635884 
L 263.748861 189.09748 
L 262.886216 190.264216 
L 262.466691 189.928837 
L 261.226093 186.422823 
L 260.63288 191.242156 
L 260.242647 191.541696 
L 258.971951 192.14379 
L 258.498259 192.0144 
L 257.521146 192.406259 
L 257.275436 194.18209 
L 256.598964 195.380231 
L 255.75067 195.29208 
L 255.395149 196.376137 
L 254.662945 197.586232 
L 253.291678 196.277707 
L 253.032467 199.518704 
L 253.350261 200.819366 
L 253.093702 201.662463 
L 252.873013 203.194407 
L 253.277797 202.823712 
L 253.927441 202.976486 
L 254.249209 202.694827 
L 254.256163 201.592205 
L 255.043243 200.710305 
L 254.329682 197.71227 
L 255.454891 198.164611 
L 256.40565 198.850124 
L 256.781125 197.938338 
L 256.919896 198.133418 
L 257.849447 196.757589 
L 258.28058 196.471853 
L 257.80589 194.150748 
L 258.329361 193.602114 
L 258.863217 196.99353 
L 260.040929 195.339684 
L 260.407055 194.620649 
L 259.218069 194.943614 
L 261.147258 194.36619 
L 261.452933 194.516259 
L 261.144481 195.629064 
L 262.064317 194.032908 
L 260.558889 192.979678 
L 261.714159 195.028472 
L 262.597509 191.893187 
L 262.956784 192.726526 
L 262.890495 193.989893 
L 263.10098 191.165151 
L 263.400009 193.25081 
L 263.310857 193.171211 
L 262.645938 190.660995 
L 263.943385 191.259176 
L 264.128968 193.398551 
L 264.666223 192.730346 
L 264.36647 190.415547 
L 265.13488 192.934611 
L 265.038813 190.252748 
L 266.498155 191.257767 
L 266.908728 191.824705 
L 267.026129 189.484012 
L 267.895091 191.670981 
L 267.356713 189.933987 
L 267.908205 189.563746 
L 269.297142 192.355642 
L 269.502673 189.787606 
L 270.268084 193.139241 
L 270.771698 193.673731 
L 270.334898 191.124638 
L 271.937519 193.008129 
L 272.556909 194.88232 
L 273.260075 194.981583 
L 274.040626 195.338712 
L 274.784144 193.398439 
L 275.619933 195.477379 
L 275.156098 192.74181 
L 276.804433 191.8956 
L 277.632364 198.138316 
L 278.447212 198.557127 
L 279.821537 199.056705 
L 280.326977 199.923912 
L 280.528014 200.022632 
L 281.747517 201.308145 
L 282.185528 197.529724 
L 283.871046 203.14343 
L 285.20344 202.861119 
L 286.177832 202.25677 
L 287.045736 204.115336 
L 288.024604 204.972957 
L 289.16966 203.519115 
L 289.306959 208.605259 
L 289.463496 204.242304 
L 290.632733 207.494423 
L 291.257992 205.677681 
L 294.015791 209.22097 
L 295.639312 208.016531 
L 294.907519 205.497381 
L 296.961758 212.232948 
L 297.183466 206.940459 
L 298.439297 207.246406 
L 301.383822 210.039767 
L 300.695814 208.802352 
L 303.517193 212.41723 
L 304.423969 208.145135 
L 304.258145 209.832606 
L 306.444517 208.654049 
L 309.269087 213.98285 
L 310.802195 215.57824 
L 310.337055 212.474392 
L 312.255934 218.618054 
L 314.181929 216.777479 
L 314.045809 214.056683 
L 315.292287 219.728072 
L 316.57356 213.907485 
L 318.777228 217.346815 
L 320.451456 213.355995 
L 321.420638 222.061876 
L 323.000178 212.583343 
L 325.98699 217.005098 
L 325.787277 222.416529 
L 327.482858 215.112049 
L 328.610072 214.188915 
L 329.803301 223.030215 
L 332.422053 214.309318 
L 333.494711 223.400305 
L 333.732728 222.673713 
L 334.911233 222.705151 
L 338.353819 215.42627 
L 338.153295 213.71262 
L 339.781591 222.006627 
L 341.784222 215.600013 
L 341.654303 223.739071 
L 342.041565 219.715 
L 345.349809 221.597181 
L 345.759672 217.582443 
L 346.097683 215.952873 
L 349.314322 221.375614 
L 350.017772 223.30996 
L 351.059004 223.061034 
L 350.871547 214.894551 
L 352.463149 214.828433 
L 354.717499 222.082059 
L 355.850375 221.182141 
L 357.571065 218.96719 
L 357.201964 220.138138 
L 359.49416 220.100992 
L 360.866091 218.957565 
L 361.705853 218.596641 
L 361.597955 219.333372 
L 362.000218 212.871432 
L 362.678189 212.776326 
L 365.277862 216.995698 
L 365.040187 216.961109 
L 366.854443 216.208258 
L 368.177513 215.344138 
L 369.033824 214.171778 
L 369.741622 214.325227 
L 371.385804 212.888595 
L 372.653707 211.777385 
L 373.553604 211.196644 
L 374.99913 209.849997 
L 375.147828 203.108206 
L 376.554379 208.397272 
L 377.695345 206.755648 
L 378.662484 203.702524 
L 379.44215 203.929445 
L 380.223423 203.060272 
L 378.594203 201.696209 
L 379.421216 198.977736 
L 382.255237 200.207512 
L 382.804923 197.63412 
L 383.379697 198.591652 
L 383.840643 197.418463 
L 384.218551 197.753501 
L 384.471132 197.252699 
L 384.879331 197.015098 
L 385.327344 196.153857 
L 385.715129 195.716137 
L 386.017564 196.22847 
L 385.394226 194.844207 
L 386.56536 199.187391 
L 385.973113 197.888459 
L 387.260315 199.212261 
L 386.758799 201.427275 
L 389.10507 205.638988 
L 389.550047 209.605573 
L 388.809327 212.128375 
L 390.23712 213.694761 
L 390.576422 215.82432 
L 389.620455 215.845482 
L 390.473564 221.270654 
L 391.576609 220.112379 
L 390.378244 222.006279 
L 392.143997 225.170607 
L 392.404533 227.0055 
L 392.376739 229.913959 
L 391.259341 231.005417 
L 391.300892 230.495829 
L 393.057353 234.232869 
L 392.972234 238.576699 
L 391.350201 238.772548 
L 391.162046 243.204641 
L 392.415029 245.226257 
L 391.966115 248.123237 
L 390.827906 248.551754 
L 391.040688 248.482544 
L 391.254869 251.241111 
L 390.923234 254.548238 
L 390.299216 253.541498 
L 388.879285 255.289728 
L 390.235989 258.058407 
L 388.411098 258.541212 
L 389.597511 262.599813 
L 389.408994 262.662746 
L 389.389175 265.261858 
L 388.188663 264.809608 
L 388.716766 266.286873 
L 388.943925 268.169392 
L 388.685277 269.194163 
L 389.927814 271.199344 
L 389.257304 271.408938 
L 390.979841 274.968415 
L 391.615784 275.226592 
L 392.069882 276.601457 
L 391.903978 274.431463 
L 392.227309 275.621553 
L 394.017608 278.143253 
L 394.370274 276.792323 
L 394.057514 276.654734 
L 396.152097 279.041158 
L 397.012015 278.860186 
L 397.839697 278.874626 
L 398.638637 279.225028 
L 399.559569 278.67018 
L 400.392071 278.716653 
L 401.297015 278.115184 
L 401.520537 273.278023 
L 402.813994 277.834205 
L 403.691436 276.673862 
L 404.3608 276.402052 
L 404.322614 270.615447 
L 405.632924 271.940781 
L 403.942943 270.964296 
L 405.653807 275.408106 
L 407.167405 272.894851 
L 406.318967 273.181683 
L 407.008179 272.078201 
L 408.772101 268.492005 
L 409.196865 267.349832 
L 409.292975 261.582141 
L 409.940443 266.522587 
L 410.726099 262.370745 
L 411.1406 263.096804 
L 410.168156 259.625435 
L 410.82139 258.716693 
L 412.725367 260.395767 
L 413.386186 259.937653 
L 413.961429 259.755301 
L 414.697827 258.663132 
L 415.102041 255.304758 
L 415.984344 257.774467 
L 416.60173 257.567639 
L 417.175482 257.249965 
L 417.660172 256.822371 
L 417.380536 255.361107 
L 417.890381 255.123145 
L 418.395556 254.327254 
L 418.823947 253.985853 
L 420.008582 253.931018 
L 420.172213 250.461017 
L 420.686004 251.256135 
L 420.886737 245.979215 
L 421.485291 246.235458 
L 421.676181 245.636234 
L 422.086747 243.754577 
L 422.133325 245.290583 
L 422.413002 244.502902 
L 422.591647 245.173758 
L 423.301998 250.179552 
L 423.418352 251.527853 
L 423.232657 252.236762 
L 422.773361 252.287887 
L 423.417047 253.851655 
L 423.248203 254.789557 
L 423.276395 256.486854 
L 422.958756 257.37969 
L 423.384729 258.94214 
L 423.718511 261.128004 
L 423.877242 262.528199 
L 424.496615 263.518945 
L 424.964333 262.162522 
L 425.270734 262.215212 
L 425.634362 260.56889 
L 426.096549 259.893176 
L 426.078582 257.836646 
L 426.999086 254.974325 
L 427.582327 252.422278 
L 427.63957 251.109134 
L 427.986014 249.26927 
L 428.625062 247.774286 
L 428.834863 246.867097 
L 429.28034 245.560872 
L 429.531182 244.07102 
L 430.426293 241.021652 
L 430.750236 240.198057 
L 430.098448 238.301348 
L 430.542887 236.601109 
L 431.85309 236.984826 
L 431.594791 234.440023 
L 432.68678 234.572094 
L 433.056299 234.309001 
L 433.484582 233.487941 
L 433.907809 231.608235 
L 433.389878 231.043642 
L 434.452543 231.05592 
L 435.15863 230.643507 
L 436.707708 227.030012 
L 436.982361 226.947558 
L 437.341382 225.775858 
L 437.640891 225.325657 
L 437.860994 225.201088 
L 438.484645 223.384732 
L 438.527715 225.033653 
L 438.572047 220.793965 
L 439.369303 222.07092 
L 439.670508 222.782292 
L 439.268357 220.281124 
L 440.195863 222.687716 
L 440.535835 222.172009 
L 440.7231 221.446174 
L 441.425531 220.730527 
L 440.865635 218.299656 
L 442.129587 218.76545 
L 442.891182 217.4631 
L 442.83101 213.850973 
L 444.086837 215.609973 
L 444.801355 214.645257 
L 445.471932 213.094424 
L 444.940463 211.01398 
L 446.5465 210.970962 
L 446.677797 209.756744 
L 447.163612 208.862287 
L 448.500885 208.507143 
L 449.157775 207.670063 
L 449.157905 204.832265 
L 449.664806 204.057564 
L 450.281343 203.558929 
L 450.502339 203.046646 
L 451.949363 204.449383 
L 452.338769 204.434328 
L 452.643455 200.733107 
L 453.129812 202.650595 
L 452.001754 200.897155 
L 452.370186 200.53256 
L 453.734117 203.323517 
L 454.121666 202.681783 
L 452.579022 199.320511 
L 454.333563 202.342378 
L 454.232524 202.038422 
L 452.855623 198.381583 
L 454.743951 201.495385 
L 453.637126 200.117356 
L 452.399553 197.540336 
L 452.397862 198.159763 
L 453.896419 193.811369 
L 453.776106 196.470152 
L 453.67343 193.239806 
L 453.243852 196.435247 
L 452.907957 201.323781 
L 452.763166 201.099096 
L 452.742956 198.241498 
L 452.856211 196.170194 
L 452.626352 196.959893 
L 452.172303 200.711385 
L 452.424099 194.128578 
L 451.821196 200.75113 
L 451.969037 194.900377 
L 451.608013 198.417697 
L 451.45433 197.108685 
L 451.508942 199.915766 
L 450.284028 195.301587 
L 450.504745 194.249054 
L 449.975189 196.027694 
L 449.591578 194.366555 
L 448.99004 196.197042 
L 448.375974 194.282577 
L 447.985351 191.985215 
L 447.349755 191.53354 
L 446.795191 190.852053 
L 445.782638 195.328986 
L 445.257745 192.78191 
L 444.881751 192.350039 
L 444.192342 192.873348 
L 443.830979 188.52777 
L 443.124705 190.777983 
L 442.353862 188.696672 
L 441.788602 187.582402 
L 440.88592 189.169703 
L 440.646387 186.695844 
L 440.677271 187.427208 
L 439.889298 187.12343 
L 439.914526 185.410656 
L 439.728365 184.539073 
L 439.626687 185.386601 
L 439.558996 183.832971 
L 439.8291 183.805252 
L 439.763806 182.684725 
L 439.578681 182.204149 
L 439.846952 182.187532 
L 439.824597 181.734706 
L 439.939456 180.967465 
L 439.714315 179.917751 
L 439.82682 178.997068 
L 440.061334 178.278075 
L 440.160475 178.586911 
L 440.197307 177.969784 
L 439.967456 176.988743 
L 439.984359 176.127109 
L 440.065226 176.952747 
L 440.306469 175.413179 
L 440.331786 176.246931 
L 440.308577 176.133058 
L 440.105595 176.543406 
L 440.270777 175.847422 
L 440.246618 176.62008 
L 439.924323 175.192408 
L 440.448417 176.765686 
L 440.343632 174.907767 
L 440.576642 175.341805 
L 440.52312 178.671534 
L 440.059221 176.508249 
L 441.168281 176.2887 
L 440.458315 177.324331 
L 441.082231 176.673642 
L 442.018268 177.429968 
L 441.614727 181.986193 
L 442.557255 178.016267 
L 443.089061 178.756656 
L 442.176389 179.594488 
L 444.097262 181.397697 
L 443.780234 184.774602 
L 445.030121 182.744236 
L 445.524036 181.028536 
L 444.177374 180.502401 
L 444.58771 181.529609 
L 445.880602 184.421315 
L 446.251171 178.892513 
L 446.164564 180.834694 
L 448.294667 180.492072 
L 448.521635 180.317519 
L 448.775194 180.643206 
L 448.857399 179.977394 
L 449.3125 179.107713 
L 449.992034 177.153476 
L 449.709406 176.415104 
L 449.961148 176.487035 
L 450.263676 175.745373 
L 449.610385 174.488534 
L 449.608778 173.748439 
L 449.686392 174.707438 
L 449.597263 174.551051 
L 449.300171 172.864249 
L 449.863431 173.119076 
L 449.212151 172.827632 
L 448.993908 170.200004 
L 448.675661 169.954867 
L 448.940545 171.542406 
L 448.216191 170.423491 
L 448.536084 169.123594 
L 447.650063 169.567313 
L 447.237019 168.942602 
L 447.424833 168.162346 
L 446.286742 165.031854 
L 446.195034 166.295076 
L 445.6594 163.213673 
L 445.47203 163.424092 
L 445.507169 164.470031 
L 443.99336 160.578187 
L 442.962082 160.260602 
L 443.089183 162.126931 
L 442.843159 160.970951 
L 441.486832 159.355308 
L 440.843727 157.745778 
L 440.880988 158.397615 
L 440.008004 155.874253 
L 439.5046 153.758787 
L 439.294426 156.178538 
L 438.606427 151.671933 
L 438.116387 151.911215 
L 437.885646 151.867265 
L 437.570662 151.23575 
L 437.208366 150.116748 
L 436.758552 149.113387 
L 436.511499 147.643126 
L 436.017973 148.004149 
L 435.631134 146.973076 
L 435.373779 145.526423 
L 434.835865 145.572434 
L 434.230183 145.839977 
L 434.372444 144.380841 
L 433.389793 143.234027 
L 432.262165 142.242453 
L 430.877494 142.3501 
L 430.380218 140.540255 
L 429.63674 139.783725 
L 429.793353 142.144714 
L 428.985718 141.712315 
L 425.809324 141.519782 
L 425.837005 136.676994 
L 424.938752 140.950844 
L 423.714585 140.201758 
L 422.614839 140.594396 
L 421.580918 140.625606 
L 420.944718 139.305709 
L 419.27522 139.640808 
L 417.510847 138.19645 
L 418.2513 139.248886 
L 416.538135 135.060395 
L 415.149615 140.442395 
L 414.586745 134.536301 
L 413.925955 137.773961 
L 412.748719 138.130036 
L 411.860333 137.564829 
L 410.588133 138.598042 
L 409.954589 132.816804 
L 408.870211 136.444695 
L 408.086929 136.390943 
L 407.009586 132.355232 
L 406.179058 136.346114 
L 404.253402 134.624547 
L 404.076703 135.969852 
L 403.298076 130.308356 
L 402.01741 130.803962 
L 401.109557 134.431356 
L 400.345515 134.605191 
L 398.15488 132.438733 
L 398.104621 133.471253 
L 397.413119 133.601653 
L 395.134476 131.397594 
L 394.099929 131.027657 
L 393.182664 131.148623 
L 392.147899 130.928157 
L 390.28306 131.477576 
L 389.205469 131.447062 
L 388.690526 132.934042 
L 388.791436 134.083116 
L 388.714489 131.73779 
L 384.845818 132.708262 
L 383.72602 133.280368 
L 384.226726 135.713278 
L 383.945075 132.809376 
L 379.77247 134.454866 
L 379.718896 130.94002 
L 377.904212 131.199689 
L 377.224399 131.468727 
L 375.097537 132.509046 
L 373.712973 134.014146 
L 371.70629 133.441494 
L 371.974832 134.475651 
L 370.643135 137.871885 
L 368.333779 136.133894 
L 366.591028 136.308416 
L 365.710002 138.811975 
L 363.301594 137.405308 
L 362.953394 133.676793 
L 362.48186 141.001757 
L 361.757146 135.756435 
L 359.528159 140.236785 
L 357.004592 135.05905 
L 356.644302 142.387773 
L 356.553048 140.39199 
L 355.436692 140.227766 
L 353.290936 144.052089 
L 353.307129 138.896388 
L 351.814905 142.412907 
L 349.353659 140.01622 
L 350.052327 142.949502 
L 348.627082 143.68098 
L 346.739211 142.149745 
L 347.846249 145.098228 
L 347.213767 143.905987 
L 345.750532 146.264758 
L 343.679796 145.384154 
L 344.824078 147.061493 
L 344.377502 147.594656 
L 344.25154 146.931415 
L 343.30857 149.024353 
L 342.42295 149.586888 
L 342.477001 149.618507 
L 342.194023 149.269326 
L 341.562662 150.442296 
L 341.118036 149.657702 
L 340.582088 151.38378 
L 340.112523 151.684489 
L 337.706837 151.346274 
L 339.074896 153.520738 
L 338.180314 153.76664 
L 338.349116 153.954653 
L 337.473779 155.234423 
L 337.430992 156.063307 
L 335.334543 153.837301 
L 337.279474 158.063234 
L 334.955288 154.561999 
L 334.636507 156.855295 
L 337.07116 161.960281 
L 337.174698 162.604186 
L 337.126579 163.383413 
L 337.495217 162.563339 
L 335.821925 166.265787 
L 337.259654 164.442261 
L 337.260295 164.948832 
L 335.473543 162.780776 
L 335.851342 163.370274 
L 335.271409 165.599627 
L 336.52893 172.206618 
L 336.556519 170.362352 
L 336.588197 172.015095 
L 336.267442 172.779636 
L 336.472656 175.602394 
L 336.366887 176.441226 
L 333.710822 171.263832 
L 335.939436 177.79421 
L 335.47308 179.565601 
L 334.240924 181.004121 
L 333.343273 172.226331 
L 333.00392 173.882782 
L 333.803961 180.286982 
L 332.843506 173.366651 
L 334.574859 171.578933 
L 332.635098 173.310827 
L 334.533119 177.603478 
L 332.528684 173.12499 
L 334.128176 180.187582 
L 332.322094 173.325053 
L 334.490032 178.418553 
L 333.118968 173.951928 
L 332.17441 173.696174 
L 334.099998 179.433861 
L 333.894031 179.701003 
L 333.291314 173.695478 
L 333.100913 173.995202 
L 331.916082 173.906602 
L 331.148872 176.756872 
L 332.979577 176.850901 
L 332.622618 182.975442 
L 332.07041 184.146474 
L 332.739997 182.265131 
L 332.683128 181.935817 
L 331.128285 179.734609 
L 332.95007 183.306393 
L 332.770929 182.021141 
L 332.77529 180.116091 
L 332.924942 185.495161 
L 333.803456 183.958836 
L 333.722412 185.975976 
L 334.077724 185.28759 
L 332.823148 183.717365 
L 334.127202 183.578666 
L 333.833627 182.867523 
L 334.219671 188.02751 
L 334.612833 183.658392 
L 335.048636 183.788555 
L 335.443051 183.507775 
L 335.751459 186.90846 
L 336.1896 184.479516 
L 337.420787 189.583446 
L 338.359482 184.543429 
L 339.800446 185.692833 
L 340.799256 190.643138 
L 341.810368 190.736829 
L 343.16499 188.162769 
L 344.269933 191.259386 
L 345.986793 191.077922 
L 346.528815 189.101729 
L 347.364437 187.12181 
L 348.900036 192.842928 
L 349.696698 190.518153 
L 351.208104 194.104397 
L 352.16193 193.096139 
L 351.945857 194.397695 
L 355.614652 194.971608 
L 357.015612 196.555682 
L 357.728367 194.214084 
L 357.728367 194.214084 
" clip-path="url(#pa73ca53703)" style="fill: none; stroke: #ff0000; stroke-opacity: 0.7; stroke-width: 0.75; stroke-linecap: square"/>
   </g>
   <g id="line2d_21">
    <path d="M 430.587862 253.840504 
L 430.6133 253.888027 
L 430.598068 253.543265 
L 430.730365 253.162664 
L 431.038219 252.742467 
L 431.546761 251.460989 
L 432.245384 248.788299 
L 433.048891 244.879852 
L 434.158728 238.752285 
L 434.468043 237.593742 
L 434.752945 237.059617 
L 434.99798 237.125469 
L 435.593403 238.68257 
L 436.035516 239.548137 
L 436.155096 239.55513 
L 436.373066 239.198887 
L 436.634413 237.858775 
L 436.778498 235.712833 
L 436.96659 231.964615 
L 437.276401 230.250389 
L 438.108074 227.28741 
L 439.321386 224.135716 
L 440.254863 222.160952 
L 441.231907 220.464894 
L 443.189982 217.82326 
L 445.03116 215.644452 
L 446.425893 214.369695 
L 447.325018 213.927393 
L 448.248867 213.722451 
L 449.17875 213.826066 
L 450.1275 214.231453 
L 451.101533 214.789269 
L 452.104377 215.596087 
L 453.139023 216.649073 
L 454.750163 218.716384 
L 458.881785 224.445312 
L 471.995113 243.169328 
L 474.743311 247.580824 
L 476.589017 250.267977 
L 480.158857 256.678399 
L 480.738085 258.450257 
L 482.003309 262.542276 
L 482.298613 262.927545 
L 482.38484 262.939459 
L 482.478832 262.801036 
L 482.698492 261.59484 
L 482.90153 258.646389 
L 483.015765 254.272589 
L 482.978755 249.477564 
L 482.70931 244.849335 
L 482.20653 240.544999 
L 481.529196 236.586039 
L 480.059575 229.732698 
L 478.923691 225.398515 
L 478.107604 222.912723 
L 476.423147 218.830466 
L 475.124611 216.116205 
L 474.278122 214.938965 
L 473.135901 213.406779 
L 472.200215 211.707202 
L 471.495769 209.912145 
L 471.041884 208.210341 
L 470.467825 205.540258 
L 469.660742 202.973672 
L 468.478597 199.86418 
L 466.800384 195.633433 
L 466.404535 195.056688 
L 466.017127 194.843105 
L 465.622428 195.03243 
L 465.241069 195.635586 
L 464.508908 197.329561 
L 464.164511 197.839351 
L 463.851785 197.991046 
L 463.555741 197.691228 
L 463.252119 196.963667 
L 462.347891 193.847203 
L 462.022498 193.27607 
L 461.669923 193.089404 
L 461.290198 193.293533 
L 460.907552 193.912499 
L 460.512885 194.948485 
L 459.707631 198.025572 
L 458.550825 203.159831 
L 457.467031 208.878156 
L 456.04167 217.962425 
L 455.027227 224.735912 
L 454.398537 227.808674 
L 453.805177 229.674021 
L 453.51525 230.085353 
L 453.245437 230.165234 
L 452.973405 229.961082 
L 452.700711 229.437116 
L 452.159764 227.889838 
L 451.546355 226.701228 
L 450.86837 225.815037 
L 450.012701 225.136666 
L 449.068909 224.830146 
L 447.539382 224.576906 
L 445.000458 224.959721 
L 443.895283 225.199718 
L 443.306413 225.457106 
L 442.057341 226.295001 
L 440.037583 228.161069 
L 438.597966 229.521867 
L 437.0131 230.82364 
L 432.388914 234.250017 
L 423.35848 241.343032 
L 421.300472 242.831402 
L 419.251742 244.099523 
L 416.33301 245.432935 
L 415.471294 245.598061 
L 414.690389 245.496765 
L 413.98709 245.088077 
L 413.345505 244.268419 
L 412.752835 243.064248 
L 411.682974 239.784431 
L 409.194489 230.944896 
L 406.423924 220.211168 
L 403.718946 209.001271 
L 403.260267 207.475021 
L 402.79827 206.366272 
L 402.332697 205.609522 
L 401.858693 205.215793 
L 401.382657 205.209326 
L 400.912524 205.606422 
L 400.430311 206.440123 
L 399.426041 209.271882 
L 393.821 227.757886 
L 391.744656 235.062361 
L 391.42585 235.40525 
L 391.107288 235.392054 
L 390.779845 235.041132 
L 390.136057 233.575726 
L 389.79339 233.169643 
L 389.448511 233.180965 
L 389.102983 233.613428 
L 388.453422 235.398548 
L 384.54663 249.61043 
L 383.390787 252.831435 
L 382.811363 253.948898 
L 382.248928 254.73086 
L 381.685739 255.276902 
L 381.125075 255.565451 
L 380.555102 255.58467 
L 378.930613 255.269233 
L 376.988538 255.310674 
L 375.655334 255.63652 
L 374.833397 256.512027 
L 374.138502 257.648151 
L 373.549225 259.305653 
L 373.114702 261.05071 
L 372.847977 262.941507 
L 372.780961 264.903548 
L 372.974879 266.72044 
L 373.397234 268.143468 
L 373.907359 269.386143 
L 374.243321 270.836045 
L 374.347723 272.744749 
L 374.223197 274.51038 
L 373.918543 275.874032 
L 373.336201 276.908427 
L 373.008115 277.033298 
L 372.852923 276.871245 
L 372.539238 275.940801 
L 372.158307 274.482211 
L 371.738993 272.02937 
L 371.714663 270.388609 
L 371.937106 268.867731 
L 372.408548 267.426115 
L 373.172415 265.927346 
L 374.207773 264.406631 
L 375.42121 263.153249 
L 376.768188 262.174323 
L 377.484903 261.765262 
L 379.754154 261.11197 
L 383.149494 260.625198 
L 384.909018 260.61566 
L 386.526474 260.33066 
L 389.782264 259.356023 
L 391.990707 259.004924 
L 392.83619 259.343486 
L 393.154974 259.671776 
L 393.235198 260.085093 
L 392.978203 260.65043 
L 392.310099 261.390943 
L 390.603686 262.983355 
L 388.457256 265.208324 
L 385.503941 268.795484 
L 383.940077 270.202253 
L 382.297825 271.344544 
L 380.553076 272.274038 
L 379.660351 272.643414 
L 378.778547 272.88362 
L 377.015029 272.964821 
L 376.125136 272.805928 
L 370.742853 270.95598 
L 369.909271 270.933669 
L 367.703324 271.2957 
L 365.955535 271.793411 
L 365.094476 272.146428 
L 363.990953 272.110165 
L 363.333212 271.938214 
L 362.55433 271.293033 
L 361.346791 270.342443 
L 360.759274 270.011275 
L 359.933178 269.858925 
L 359.41789 270.132841 
L 358.938118 270.690197 
L 358.512949 271.573669 
L 358.168594 273.228773 
L 357.073949 281.713352 
L 356.85982 282.405438 
L 356.632085 282.66444 
L 356.386383 282.559488 
L 356.117358 282.171098 
L 354.717542 279.134742 
L 353.937878 277.637161 
L 353.441178 275.37292 
L 352.963289 271.558067 
L 352.312024 263.910734 
L 351.7758 254.415141 
L 351.52722 246.5231 
L 351.603585 242.876236 
L 351.898262 239.40068 
L 352.469781 236.251583 
L 353.292458 233.446316 
L 354.292699 230.851987 
L 356.641818 226.009925 
L 357.194255 225.308098 
L 357.307995 225.597652 
L 357.229958 227.491475 
L 356.763704 230.607367 
L 355.945201 234.214424 
L 354.354304 239.292544 
L 352.827224 244.262548 
L 351.955991 247.905243 
L 350.915861 253.486784 
L 350.226435 258.85436 
L 349.850147 263.830001 
L 349.736837 268.56446 
L 349.887659 272.506442 
L 350.161693 273.726588 
L 350.354389 273.881707 
L 350.588615 273.713668 
L 352.81585 270.372666 
L 353.830682 269.459292 
L 355.453444 268.108125 
L 355.963153 267.920107 
L 357.737694 267.719866 
L 359.172256 267.09831 
L 360.231024 266.303287 
L 360.772838 266.37793 
L 361.317699 266.775257 
L 361.743981 267.354105 
L 361.932566 267.90508 
L 361.832207 268.249175 
L 361.482302 268.567902 
L 360.6425 268.724044 
L 359.484698 268.7204 
L 358.975198 268.631726 
L 358.540319 268.761666 
L 358.227478 269.02607 
L 357.956725 269.731705 
L 358.013593 270.348744 
L 358.225142 270.658297 
L 358.810375 270.991024 
L 362.35638 272.400623 
L 365.12788 273.003876 
L 365.730296 273.234183 
L 366.958242 274.082595 
L 368.178785 275.264462 
L 370.382242 278.077213 
L 370.842121 278.247887 
L 371.225941 278.046657 
L 371.558559 277.525756 
L 371.819366 276.687189 
L 372.222925 274.293961 
L 372.395189 271.918009 
L 372.392286 268.813023 
L 372.033607 263.622631 
L 371.103481 253.369324 
L 370.631421 250.354204 
L 370.771128 249.093981 
L 371.103846 248.241116 
L 371.824713 247.105581 
L 372.322262 246.523019 
L 373.982515 245.475976 
L 375.036206 244.338033 
L 375.677378 243.144499 
L 376.271699 241.424139 
L 376.104001 242.119481 
L 375.688915 244.793827 
L 375.675885 246.511637 
L 376.013792 248.239432 
L 376.670766 250.072708 
L 380.366049 258.67763 
L 383.409489 264.968215 
L 384.656646 267.111738 
L 386.571622 269.820058 
L 389.065367 272.942739 
L 391.712307 276.091868 
L 392.690165 277.909773 
L 393.039323 279.106141 
L 393.131909 280.371375 
L 392.938924 281.628606 
L 392.233839 283.768944 
L 390.024839 289.523828 
L 388.412668 292.794784 
L 386.07928 297.307253 
L 385.271579 299.624312 
L 384.808425 300.842592 
L 384.741558 300.634908 
L 384.679617 297.875998 
L 384.791092 291.942808 
L 385.030143 289.184164 
L 385.570026 286.763358 
L 386.756682 283.527198 
L 387.8903 281.181487 
L 390.053337 277.790657 
L 390.632643 276.259973 
L 390.856581 275.159298 
L 390.925464 273.917754 
L 390.743467 272.015187 
L 390.125539 269.47744 
L 387.153625 258.333961 
L 386.373577 256.075032 
L 385.929026 255.364553 
L 385.472734 255.03326 
L 385.007695 255.092525 
L 384.532334 255.527846 
L 382.285627 258.542669 
L 381.59452 259.266108 
L 380.85147 259.742376 
L 380.065636 259.844476 
L 379.240402 259.600261 
L 378.381283 259.01627 
L 375.534894 256.22267 
L 374.498325 255.732467 
L 373.428668 255.645406 
L 372.329438 255.95027 
L 371.196461 256.410743 
L 370.019971 256.687699 
L 368.802298 256.761223 
L 367.531224 256.534309 
L 366.232069 255.999302 
L 364.883157 254.917557 
L 357.065139 247.480057 
L 355.173964 245.183978 
L 353.929224 243.436178 
L 353.300788 242.078348 
L 353.144036 240.700478 
L 353.220448 239.90006 
L 353.663168 238.482263 
L 354.212194 237.002452 
L 354.637283 235.182907 
L 355.170175 231.61544 
L 355.559484 228.80132 
L 355.938106 227.809361 
L 356.191801 227.406499 
L 356.859557 226.964913 
L 357.723839 226.693232 
L 359.997836 226.318792 
L 361.368989 225.857035 
L 362.171805 225.675527 
L 362.301939 225.90207 
L 362.347348 227.029972 
L 362.369235 227.790255 
L 362.65972 228.624414 
L 363.547096 229.92502 
L 364.907448 231.472371 
L 365.96117 232.35816 
L 368.478814 233.819094 
L 369.977325 234.028306 
L 371.238879 234.043433 
L 371.334975 234.21725 
L 371.205646 234.604772 
L 370.956155 234.615533 
L 370.690675 234.333355 
L 370.527563 233.974786 
L 370.557766 233.550402 
L 370.818194 233.214668 
L 371.606398 233.042921 
L 372.718246 233.061325 
L 373.981908 233.327342 
L 375.370152 234.029897 
L 376.25137 234.900829 
L 377.02908 235.865389 
L 377.711121 237.311694 
L 378.745798 240.257398 
L 379.287086 242.526265 
L 379.706007 245.462439 
L 380.202267 250.602643 
L 380.541606 257.821362 
L 380.557927 258.459919 
L 380.501979 255.000694 
L 380.563974 245.096375 
L 380.219291 241.766962 
L 378.620196 230.574119 
L 377.438166 223.366127 
L 376.126055 216.88874 
L 374.853553 211.474704 
L 374.454353 210.230626 
L 374.041179 209.40718 
L 373.618209 208.946367 
L 371.829135 207.75583 
L 370.167698 206.569435 
L 368.780211 205.775897 
L 362.168702 202.207768 
L 357.788992 199.420522 
L 356.711994 198.943885 
L 355.655347 198.617511 
L 353.634064 198.360948 
L 351.728109 198.460669 
L 347.489528 199.045349 
L 344.493275 200.186003 
L 343.764109 200.308854 
L 343.03068 200.311724 
L 341.560817 199.995091 
L 339.217788 199.04268 
L 336.657418 197.943154 
L 331.956456 196.259335 
L 328.014148 195.461003 
L 325.05006 195.134761 
L 322.168486 195.002741 
L 318.491397 195.053676 
L 314.269247 195.27377 
L 311.824711 195.542388 
L 310.211177 195.882689 
L 304.451346 197.319103 
L 302.862242 197.775452 
L 299.741777 198.880573 
L 298.23604 199.15197 
L 294.602654 199.475659 
L 293.203543 199.248051 
L 291.859679 198.655743 
L 290.645228 197.749631 
L 289.099238 196.240582 
L 287.711273 194.829625 
L 286.719344 193.976421 
L 285.605272 193.362294 
L 284.375619 192.971864 
L 279.080616 191.523063 
L 277.769459 191.204369 
L 275.258919 190.690727 
L 273.247689 190.00787 
L 267.957626 187.562304 
L 266.339245 187.343728 
L 265.526608 187.357957 
L 263.902695 187.705422 
L 260.893337 188.993712 
L 259.493141 189.874125 
L 258.11174 191.013143 
L 256.75998 192.653736 
L 255.446358 194.565394 
L 254.283735 196.70503 
L 253.405358 198.888134 
L 252.906276 200.774132 
L 252.838141 201.883 
L 252.953657 202.096051 
L 253.154708 202.087076 
L 253.432418 201.830524 
L 254.126552 200.6061 
L 254.927711 198.981965 
L 255.796272 197.623733 
L 256.67355 196.678415 
L 258.442242 195.410994 
L 260.002187 194.730741 
L 260.328129 194.633686 
L 261.478803 193.77694 
L 263.140507 192.128637 
L 264.548783 191.770281 
L 266.897 190.946999 
L 267.379109 190.836696 
L 267.865582 190.857313 
L 268.831457 191.196458 
L 269.834888 191.766259 
L 271.432766 192.768776 
L 272.728872 193.434749 
L 274.214807 193.867262 
L 276.693528 194.615968 
L 277.558808 195.000518 
L 279.30873 196.102384 
L 280.192778 196.694277 
L 281.945493 198.230751 
L 288.229605 204.314114 
L 290.216696 205.755969 
L 293.409405 207.414682 
L 296.830761 208.551773 
L 299.186921 209.219025 
L 308.67747 212.843704 
L 311.051801 213.983844 
L 313.478328 215.175793 
L 316.012312 216.142883 
L 318.680807 216.927689 
L 321.514209 217.264676 
L 324.358164 217.479141 
L 329.733692 218.120691 
L 334.762781 218.65189 
L 338.319961 218.983786 
L 341.639267 219.504636 
L 344.745474 220.29448 
L 346.849717 220.425734 
L 347.945623 220.334379 
L 352.632721 219.258798 
L 355.03415 218.529613 
L 359.622622 216.832674 
L 366.904331 213.513279 
L 369.106572 212.104564 
L 370.590819 210.896068 
L 372.790244 208.930919 
L 375.080303 206.608659 
L 379.7778 201.345496 
L 382.405623 197.940245 
L 384.315978 195.441124 
L 384.720349 195.134783 
L 385.11847 195.062345 
L 385.499746 195.334257 
L 385.879204 196.043923 
L 386.717195 198.532422 
L 387.569392 202.231562 
L 389.204712 210.810991 
L 391.131235 222.667816 
L 391.823863 227.947299 
L 392.106154 231.614385 
L 392.222605 235.446605 
L 392.131787 239.30741 
L 391.864683 242.881903 
L 391.261023 247.399282 
L 388.977464 261.036952 
L 388.782545 264.187005 
L 388.837095 267.139997 
L 389.168761 269.716583 
L 389.746219 271.937842 
L 390.575163 273.849819 
L 391.595115 275.483248 
L 392.748664 276.745453 
L 393.376361 277.163153 
L 394.715957 277.698873 
L 395.4367 277.866648 
L 397.008949 277.77167 
L 399.466438 277.259096 
L 400.297246 276.889076 
L 402.622655 275.375911 
L 403.302019 274.779684 
L 404.533791 273.25796 
L 405.643283 271.565247 
L 406.671841 269.501909 
L 409.246367 263.689182 
L 410.909083 260.798431 
L 411.500085 259.929616 
L 412.116603 259.225789 
L 413.421993 258.265002 
L 414.785018 257.489303 
L 417.797839 255.887546 
L 418.763997 255.060284 
L 419.201406 254.405179 
L 419.611088 253.431613 
L 419.989897 252.084163 
L 421.524556 244.814987 
L 421.770187 244.432472 
L 421.986593 244.484345 
L 422.363192 245.494814 
L 422.767572 247.791214 
L 422.976982 250.558436 
L 423.250272 258.643565 
L 423.695525 261.716292 
L 424.086293 262.757537 
L 424.334691 262.750693 
L 424.614283 262.317998 
L 425.223151 260.345335 
L 428.085376 247.089124 
L 430.642232 238.217528 
L 431.80156 235.366439 
L 433.441007 232.201931 
L 436.269099 227.022165 
L 438.099695 223.355036 
L 438.937009 222.373353 
L 439.569765 221.898203 
L 440.367078 220.734178 
L 446.253623 210.119264 
L 449.442638 205.820838 
L 450.556136 204.554393 
L 452.476769 202.643777 
L 453.058197 201.56021 
L 453.815976 199.763992 
L 453.829882 199.14879 
L 453.553541 197.797204 
L 453.155943 197.008198 
L 453.003345 196.934201 
L 452.282615 197.281983 
L 451.619187 197.883616 
L 451.386296 197.850047 
L 450.781212 197.40539 
L 449.472011 196.201364 
L 446.014982 192.741931 
L 443.036551 189.985433 
L 441.931824 188.72232 
L 440.245305 186.342847 
L 439.8165 185.192346 
L 439.65277 184.119999 
L 439.680573 182.506982 
L 440.118195 175.967445 
L 439.993307 175.681251 
L 439.96336 175.739851 
L 440.034908 176.19049 
L 441.579525 179.253412 
L 442.876612 181.120851 
L 443.651111 181.806033 
L 444.536606 182.130183 
L 445.010771 182.106897 
L 445.496873 181.962856 
L 446.522835 181.276978 
L 448.328357 179.74922 
L 448.959389 178.995229 
L 449.438849 178.113014 
L 449.753331 177.135202 
L 449.919343 175.778033 
L 449.806298 174.005891 
L 449.540958 172.733192 
L 448.842219 170.914875 
L 447.779807 168.623754 
L 446.361349 165.428597 
L 444.93223 162.741252 
L 443.763236 161.030904 
L 441.954455 158.585892 
L 440.282945 155.929378 
L 434.577254 145.096078 
L 433.653543 143.922502 
L 432.645274 142.84919 
L 431.499879 141.975244 
L 430.119032 141.25255 
L 427.594561 140.340426 
L 423.560308 139.36198 
L 416.354662 138.027066 
L 414.410673 137.382692 
L 411.597226 136.153749 
L 408.837819 134.924613 
L 406.978009 134.305098 
L 401.2098 132.619268 
L 396.310723 131.221363 
L 394.374374 130.817653 
L 392.416565 130.735134 
L 390.424997 130.948938 
L 386.119017 131.720595 
L 383.685587 132.353055 
L 375.479324 134.95992 
L 367.336579 137.146404 
L 362.23417 138.176836 
L 354.205408 139.711532 
L 352.101311 140.348366 
L 350.124086 141.277844 
L 348.316203 142.483775 
L 346.082697 144.493106 
L 338.234177 151.935458 
L 337.344436 153.247079 
L 336.632467 154.676102 
L 336.153849 156.282591 
L 335.903152 158.015013 
L 335.876224 159.572995 
L 336.0717 163.786801 
L 335.956556 165.979791 
L 335.149305 172.832637 
L 334.625296 175.874559 
L 334.429623 176.175361 
L 334.247551 175.918266 
L 333.907719 175.488817 
L 333.683804 175.573313 
L 333.541354 175.76341 
L 332.03213 179.435679 
L 331.855463 180.686108 
L 332.043281 181.589959 
L 332.715176 183.263768 
L 333.537548 184.731396 
L 333.980345 185.300731 
L 334.557472 185.786783 
L 335.375423 186.21535 
L 337.111849 186.834058 
L 339.426438 187.396907 
L 343.105004 188.589267 
L 348.158725 190.799343 
L 350.31812 191.866016 
L 358.234443 196.238385 
L 358.234443 196.238385 
" clip-path="url(#pa73ca53703)" style="fill: none; stroke: #0000ff; stroke-opacity: 0.7; stroke-width: 0.75; stroke-linecap: square"/>
   </g>
   <g id="Path3DCollection_1">
    <defs>
     <path id="m92c474c39f" d="M 0 3.535534 
C 0.937635 3.535534 1.836992 3.163008 2.5 2.5 
C 3.163008 1.836992 3.535534 0.937635 3.535534 0 
C 3.535534 -0.937635 3.163008 -1.836992 2.5 -2.5 
C 1.836992 -3.163008 0.937635 -3.535534 0 -3.535534 
C -0.937635 -3.535534 -1.836992 -3.163008 -2.5 -2.5 
C -3.163008 -1.836992 -3.535534 -0.937635 -3.535534 0 
C -3.535534 0.937635 -3.163008 1.836992 -2.5 2.5 
C -1.836992 3.163008 -0.937635 3.535534 0 3.535534 
z
" style="stroke: #008000"/>
    </defs>
    <g clip-path="url(#pa73ca53703)">
     <use xlink:href="#m92c474c39f" x="430.587862" y="253.840504" style="fill: #008000; stroke: #008000"/>
    </g>
   </g>
   <g id="text_20">
    <!-- 3D Estimated Left Camera Path -->
    <g transform="translate(274.609688 45.84) scale(0.12 -0.12)">
     <defs>
      <path id="DejaVuSans-44" d="M 1259 4147 
L 1259 519 
L 2022 519 
Q 2988 519 3436 956 
Q 3884 1394 3884 2338 
Q 3884 3275 3436 3711 
Q 2988 4147 2022 4147 
L 1259 4147 
z
M 628 4666 
L 1925 4666 
Q 3281 4666 3915 4102 
Q 4550 3538 4550 2338 
Q 4550 1131 3912 565 
Q 3275 0 1925 0 
L 628 0 
L 628 4666 
z
" transform="scale(0.015625)"/>
      <path id="DejaVuSans-45" d="M 628 4666 
L 3578 4666 
L 3578 4134 
L 1259 4134 
L 1259 2753 
L 3481 2753 
L 3481 2222 
L 1259 2222 
L 1259 531 
L 3634 531 
L 3634 0 
L 628 0 
L 628 4666 
z
" transform="scale(0.015625)"/>
      <path id="DejaVuSans-74" d="M 1172 4494 
L 1172 3500 
L 2356 3500 
L 2356 3053 
L 1172 3053 
L 1172 1153 
Q 1172 725 1289 603 
Q 1406 481 1766 481 
L 2356 481 
L 2356 0 
L 1766 0 
Q 1100 0 847 248 
Q 594 497 594 1153 
L 594 3053 
L 172 3053 
L 172 3500 
L 594 3500 
L 594 4494 
L 1172 4494 
z
" transform="scale(0.015625)"/>
      <path id="DejaVuSans-65" d="M 3597 1894 
L 3597 1613 
L 953 1613 
Q 991 1019 1311 708 
Q 1631 397 2203 397 
Q 2534 397 2845 478 
Q 3156 559 3463 722 
L 3463 178 
Q 3153 47 2828 -22 
Q 2503 -91 2169 -91 
Q 1331 -91 842 396 
Q 353 884 353 1716 
Q 353 2575 817 3079 
Q 1281 3584 2069 3584 
Q 2775 3584 3186 3129 
Q 3597 2675 3597 1894 
z
M 3022 2063 
Q 3016 2534 2758 2815 
Q 2500 3097 2075 3097 
Q 1594 3097 1305 2825 
Q 1016 2553 972 2059 
L 3022 2063 
z
" transform="scale(0.015625)"/>
      <path id="DejaVuSans-64" d="M 2906 2969 
L 2906 4863 
L 3481 4863 
L 3481 0 
L 2906 0 
L 2906 525 
Q 2725 213 2448 61 
Q 2172 -91 1784 -91 
Q 1150 -91 751 415 
Q 353 922 353 1747 
Q 353 2572 751 3078 
Q 1150 3584 1784 3584 
Q 2172 3584 2448 3432 
Q 2725 3281 2906 2969 
z
M 947 1747 
Q 947 1113 1208 752 
Q 1469 391 1925 391 
Q 2381 391 2643 752 
Q 2906 1113 2906 1747 
Q 2906 2381 2643 2742 
Q 2381 3103 1925 3103 
Q 1469 3103 1208 2742 
Q 947 2381 947 1747 
z
" transform="scale(0.015625)"/>
      <path id="DejaVuSans-4c" d="M 628 4666 
L 1259 4666 
L 1259 531 
L 3531 531 
L 3531 0 
L 628 0 
L 628 4666 
z
" transform="scale(0.015625)"/>
      <path id="DejaVuSans-66" d="M 2375 4863 
L 2375 4384 
L 1825 4384 
Q 1516 4384 1395 4259 
Q 1275 4134 1275 3809 
L 1275 3500 
L 2222 3500 
L 2222 3053 
L 1275 3053 
L 1275 0 
L 697 0 
L 697 3053 
L 147 3053 
L 147 3500 
L 697 3500 
L 697 3744 
Q 697 4328 969 4595 
Q 1241 4863 1831 4863 
L 2375 4863 
z
" transform="scale(0.015625)"/>
      <path id="DejaVuSans-43" d="M 4122 4306 
L 4122 3641 
Q 3803 3938 3442 4084 
Q 3081 4231 2675 4231 
Q 1875 4231 1450 3742 
Q 1025 3253 1025 2328 
Q 1025 1406 1450 917 
Q 1875 428 2675 428 
Q 3081 428 3442 575 
Q 3803 722 4122 1019 
L 4122 359 
Q 3791 134 3420 21 
Q 3050 -91 2638 -91 
Q 1578 -91 968 557 
Q 359 1206 359 2328 
Q 359 3453 968 4101 
Q 1578 4750 2638 4750 
Q 3056 4750 3426 4639 
Q 3797 4528 4122 4306 
z
" transform="scale(0.015625)"/>
      <path id="DejaVuSans-72" d="M 2631 2963 
Q 2534 3019 2420 3045 
Q 2306 3072 2169 3072 
Q 1681 3072 1420 2755 
Q 1159 2438 1159 1844 
L 1159 0 
L 581 0 
L 581 3500 
L 1159 3500 
L 1159 2956 
Q 1341 3275 1631 3429 
Q 1922 3584 2338 3584 
Q 2397 3584 2469 3576 
Q 2541 3569 2628 3553 
L 2631 2963 
z
" transform="scale(0.015625)"/>
      <path id="DejaVuSans-50" d="M 1259 4147 
L 1259 2394 
L 2053 2394 
Q 2494 2394 2734 2622 
Q 2975 2850 2975 3272 
Q 2975 3691 2734 3919 
Q 2494 4147 2053 4147 
L 1259 4147 
z
M 628 4666 
L 2053 4666 
Q 2838 4666 3239 4311 
Q 3641 3956 3641 3272 
Q 3641 2581 3239 2228 
Q 2838 1875 2053 1875 
L 1259 1875 
L 1259 0 
L 628 0 
L 628 4666 
z
" transform="scale(0.015625)"/>
      <path id="DejaVuSans-68" d="M 3513 2113 
L 3513 0 
L 2938 0 
L 2938 2094 
Q 2938 2591 2744 2837 
Q 2550 3084 2163 3084 
Q 1697 3084 1428 2787 
Q 1159 2491 1159 1978 
L 1159 0 
L 581 0 
L 581 4863 
L 1159 4863 
L 1159 2956 
Q 1366 3272 1645 3428 
Q 1925 3584 2291 3584 
Q 2894 3584 3203 3211 
Q 3513 2838 3513 2113 
z
" transform="scale(0.015625)"/>
     </defs>
     <use xlink:href="#DejaVuSans-33"/>
     <use xlink:href="#DejaVuSans-44" x="63.623047"/>
     <use xlink:href="#DejaVuSans-20" x="140.625"/>
     <use xlink:href="#DejaVuSans-45" x="172.412109"/>
     <use xlink:href="#DejaVuSans-73" x="235.595703"/>
     <use xlink:href="#DejaVuSans-74" x="287.695312"/>
     <use xlink:href="#DejaVuSans-69" x="326.904297"/>
     <use xlink:href="#DejaVuSans-6d" x="354.6875"/>
     <use xlink:href="#DejaVuSans-61" x="452.099609"/>
     <use xlink:href="#DejaVuSans-74" x="513.378906"/>
     <use xlink:href="#DejaVuSans-65" x="552.587891"/>
     <use xlink:href="#DejaVuSans-64" x="614.111328"/>
     <use xlink:href="#DejaVuSans-20" x="677.587891"/>
     <use xlink:href="#DejaVuSans-4c" x="709.375"/>
     <use xlink:href="#DejaVuSans-65" x="763.337891"/>
     <use xlink:href="#DejaVuSans-66" x="824.861328"/>
     <use xlink:href="#DejaVuSans-74" x="858.316406"/>
     <use xlink:href="#DejaVuSans-20" x="897.525391"/>
     <use xlink:href="#DejaVuSans-43" x="929.3125"/>
     <use xlink:href="#DejaVuSans-61" x="999.136719"/>
     <use xlink:href="#DejaVuSans-6d" x="1060.416016"/>
     <use xlink:href="#DejaVuSans-65" x="1157.828125"/>
     <use xlink:href="#DejaVuSans-72" x="1219.351562"/>
     <use xlink:href="#DejaVuSans-61" x="1260.464844"/>
     <use xlink:href="#DejaVuSans-20" x="1321.744141"/>
     <use xlink:href="#DejaVuSans-50" x="1353.53125"/>
     <use xlink:href="#DejaVuSans-61" x="1409.333984"/>
     <use xlink:href="#DejaVuSans-74" x="1470.613281"/>
     <use xlink:href="#DejaVuSans-68" x="1509.822266"/>
    </g>
   </g>
   <g id="Path3DCollection_2">
    <defs>
     <path id="med4014b1ba" d="M 0 3.535534 
C 0.937635 3.535534 1.836992 3.163008 2.5 2.5 
C 3.163008 1.836992 3.535534 0.937635 3.535534 0 
C 3.535534 -0.937635 3.163008 -1.836992 2.5 -2.5 
C 1.836992 -3.163008 0.937635 -3.535534 0 -3.535534 
C -0.937635 -3.535534 -1.836992 -3.163008 -2.5 -2.5 
C -3.163008 -1.836992 -3.535534 -0.937635 -3.535534 0 
C -3.535534 0.937635 -3.163008 1.836992 -2.5 2.5 
C -1.836992 3.163008 -0.937635 3.535534 0 3.535534 
z
" style="stroke: #ffff00"/>
    </defs>
    <g clip-path="url(#pa73ca53703)">
     <use xlink:href="#med4014b1ba" x="430.587862" y="253.840504" style="fill: #ffff00; stroke: #ffff00"/>
    </g>
   </g>
   <g id="legend_1">
    <g id="patch_6">
     <path d="M 405.8825 118.5525 
L 528.32 118.5525 
Q 530.32 118.5525 530.32 116.5525 
L 530.32 58.84 
Q 530.32 56.84 528.32 56.84 
L 405.8825 56.84 
Q 403.8825 56.84 403.8825 58.84 
L 403.8825 116.5525 
Q 403.8825 118.5525 405.8825 118.5525 
z
" style="fill: #ffffff; opacity: 0.8; stroke: #cccccc; stroke-linejoin: miter"/>
    </g>
    <g id="line2d_22">
     <path d="M 407.8825 64.938438 
L 417.8825 64.938438 
L 427.8825 64.938438 
" style="fill: none; stroke: #ff0000; stroke-opacity: 0.7; stroke-width: 0.75; stroke-linecap: square"/>
    </g>
    <g id="text_21">
     <!-- Estimated Path -->
     <g transform="translate(435.8825 68.438438) scale(0.1 -0.1)">
      <use xlink:href="#DejaVuSans-45"/>
      <use xlink:href="#DejaVuSans-73" x="63.183594"/>
      <use xlink:href="#DejaVuSans-74" x="115.283203"/>
      <use xlink:href="#DejaVuSans-69" x="154.492188"/>
      <use xlink:href="#DejaVuSans-6d" x="182.275391"/>
      <use xlink:href="#DejaVuSans-61" x="279.6875"/>
      <use xlink:href="#DejaVuSans-74" x="340.966797"/>
      <use xlink:href="#DejaVuSans-65" x="380.175781"/>
      <use xlink:href="#DejaVuSans-64" x="441.699219"/>
      <use xlink:href="#DejaVuSans-20" x="505.175781"/>
      <use xlink:href="#DejaVuSans-50" x="536.962891"/>
      <use xlink:href="#DejaVuSans-61" x="592.765625"/>
      <use xlink:href="#DejaVuSans-74" x="654.044922"/>
      <use xlink:href="#DejaVuSans-68" x="693.253906"/>
     </g>
    </g>
    <g id="line2d_23">
     <path d="M 407.8825 79.616563 
L 417.8825 79.616563 
L 427.8825 79.616563 
" style="fill: none; stroke: #0000ff; stroke-opacity: 0.7; stroke-width: 0.75; stroke-linecap: square"/>
    </g>
    <g id="text_22">
     <!-- Ground Truth Path -->
     <g transform="translate(435.8825 83.116563) scale(0.1 -0.1)">
      <defs>
       <path id="DejaVuSans-47" d="M 3809 666 
L 3809 1919 
L 2778 1919 
L 2778 2438 
L 4434 2438 
L 4434 434 
Q 4069 175 3628 42 
Q 3188 -91 2688 -91 
Q 1594 -91 976 548 
Q 359 1188 359 2328 
Q 359 3472 976 4111 
Q 1594 4750 2688 4750 
Q 3144 4750 3555 4637 
Q 3966 4525 4313 4306 
L 4313 3634 
Q 3963 3931 3569 4081 
Q 3175 4231 2741 4231 
Q 1884 4231 1454 3753 
Q 1025 3275 1025 2328 
Q 1025 1384 1454 906 
Q 1884 428 2741 428 
Q 3075 428 3337 486 
Q 3600 544 3809 666 
z
" transform="scale(0.015625)"/>
       <path id="DejaVuSans-6f" d="M 1959 3097 
Q 1497 3097 1228 2736 
Q 959 2375 959 1747 
Q 959 1119 1226 758 
Q 1494 397 1959 397 
Q 2419 397 2687 759 
Q 2956 1122 2956 1747 
Q 2956 2369 2687 2733 
Q 2419 3097 1959 3097 
z
M 1959 3584 
Q 2709 3584 3137 3096 
Q 3566 2609 3566 1747 
Q 3566 888 3137 398 
Q 2709 -91 1959 -91 
Q 1206 -91 779 398 
Q 353 888 353 1747 
Q 353 2609 779 3096 
Q 1206 3584 1959 3584 
z
" transform="scale(0.015625)"/>
       <path id="DejaVuSans-75" d="M 544 1381 
L 544 3500 
L 1119 3500 
L 1119 1403 
Q 1119 906 1312 657 
Q 1506 409 1894 409 
Q 2359 409 2629 706 
Q 2900 1003 2900 1516 
L 2900 3500 
L 3475 3500 
L 3475 0 
L 2900 0 
L 2900 538 
Q 2691 219 2414 64 
Q 2138 -91 1772 -91 
Q 1169 -91 856 284 
Q 544 659 544 1381 
z
M 1991 3584 
L 1991 3584 
z
" transform="scale(0.015625)"/>
       <path id="DejaVuSans-6e" d="M 3513 2113 
L 3513 0 
L 2938 0 
L 2938 2094 
Q 2938 2591 2744 2837 
Q 2550 3084 2163 3084 
Q 1697 3084 1428 2787 
Q 1159 2491 1159 1978 
L 1159 0 
L 581 0 
L 581 3500 
L 1159 3500 
L 1159 2956 
Q 1366 3272 1645 3428 
Q 1925 3584 2291 3584 
Q 2894 3584 3203 3211 
Q 3513 2838 3513 2113 
z
" transform="scale(0.015625)"/>
       <path id="DejaVuSans-54" d="M -19 4666 
L 3928 4666 
L 3928 4134 
L 2272 4134 
L 2272 0 
L 1638 0 
L 1638 4134 
L -19 4134 
L -19 4666 
z
" transform="scale(0.015625)"/>
      </defs>
      <use xlink:href="#DejaVuSans-47"/>
      <use xlink:href="#DejaVuSans-72" x="77.490234"/>
      <use xlink:href="#DejaVuSans-6f" x="116.353516"/>
      <use xlink:href="#DejaVuSans-75" x="177.535156"/>
      <use xlink:href="#DejaVuSans-6e" x="240.914062"/>
      <use xlink:href="#DejaVuSans-64" x="304.292969"/>
      <use xlink:href="#DejaVuSans-20" x="367.769531"/>
      <use xlink:href="#DejaVuSans-54" x="399.556641"/>
      <use xlink:href="#DejaVuSans-72" x="445.890625"/>
      <use xlink:href="#DejaVuSans-75" x="487.003906"/>
      <use xlink:href="#DejaVuSans-74" x="550.382812"/>
      <use xlink:href="#DejaVuSans-68" x="589.591797"/>
      <use xlink:href="#DejaVuSans-20" x="652.970703"/>
      <use xlink:href="#DejaVuSans-50" x="684.757812"/>
      <use xlink:href="#DejaVuSans-61" x="740.560547"/>
      <use xlink:href="#DejaVuSans-74" x="801.839844"/>
      <use xlink:href="#DejaVuSans-68" x="841.048828"/>
     </g>
    </g>
    <g id="Path3DCollection_3">
     <g>
      <use xlink:href="#m92c474c39f" x="417.8825" y="95.169688" style="fill: #008000; stroke: #008000"/>
     </g>
    </g>
    <g id="text_23">
     <!-- origin gt -->
     <g transform="translate(435.8825 97.794688) scale(0.1 -0.1)">
      <defs>
       <path id="DejaVuSans-67" d="M 2906 1791 
Q 2906 2416 2648 2759 
Q 2391 3103 1925 3103 
Q 1463 3103 1205 2759 
Q 947 2416 947 1791 
Q 947 1169 1205 825 
Q 1463 481 1925 481 
Q 2391 481 2648 825 
Q 2906 1169 2906 1791 
z
M 3481 434 
Q 3481 -459 3084 -895 
Q 2688 -1331 1869 -1331 
Q 1566 -1331 1297 -1286 
Q 1028 -1241 775 -1147 
L 775 -588 
Q 1028 -725 1275 -790 
Q 1522 -856 1778 -856 
Q 2344 -856 2625 -561 
Q 2906 -266 2906 331 
L 2906 616 
Q 2728 306 2450 153 
Q 2172 0 1784 0 
Q 1141 0 747 490 
Q 353 981 353 1791 
Q 353 2603 747 3093 
Q 1141 3584 1784 3584 
Q 2172 3584 2450 3431 
Q 2728 3278 2906 2969 
L 2906 3500 
L 3481 3500 
L 3481 434 
z
" transform="scale(0.015625)"/>
      </defs>
      <use xlink:href="#DejaVuSans-6f"/>
      <use xlink:href="#DejaVuSans-72" x="61.181641"/>
      <use xlink:href="#DejaVuSans-69" x="102.294922"/>
      <use xlink:href="#DejaVuSans-67" x="130.078125"/>
      <use xlink:href="#DejaVuSans-69" x="193.554688"/>
      <use xlink:href="#DejaVuSans-6e" x="221.337891"/>
      <use xlink:href="#DejaVuSans-20" x="284.716797"/>
      <use xlink:href="#DejaVuSans-67" x="316.503906"/>
      <use xlink:href="#DejaVuSans-74" x="379.980469"/>
     </g>
    </g>
    <g id="Path3DCollection_4">
     <g>
      <use xlink:href="#med4014b1ba" x="417.8825" y="109.847813" style="fill: #ffff00; stroke: #ffff00"/>
     </g>
    </g>
    <g id="text_24">
     <!-- origin est -->
     <g transform="translate(435.8825 112.472813) scale(0.1 -0.1)">
      <use xlink:href="#DejaVuSans-6f"/>
      <use xlink:href="#DejaVuSans-72" x="61.181641"/>
      <use xlink:href="#DejaVuSans-69" x="102.294922"/>
      <use xlink:href="#DejaVuSans-67" x="130.078125"/>
      <use xlink:href="#DejaVuSans-69" x="193.554688"/>
      <use xlink:href="#DejaVuSans-6e" x="221.337891"/>
      <use xlink:href="#DejaVuSans-20" x="284.716797"/>
      <use xlink:href="#DejaVuSans-65" x="316.503906"/>
      <use xlink:href="#DejaVuSans-73" x="378.027344"/>
      <use xlink:href="#DejaVuSans-74" x="430.126953"/>
     </g>
    </g>
   </g>
  </g>
 </g>
 <defs>
  <clipPath id="pa73ca53703">
   <rect x="202.68" y="51.84" width="332.64" height="332.64"/>
  </clipPath>
 </defs>
</svg>
