<?xml version="1.0" encoding="utf-8" standalone="no"?>
<!DOCTYPE svg PUBLIC "-//W3C//DTD SVG 1.1//EN"
  "http://www.w3.org/Graphics/SVG/1.1/DTD/svg11.dtd">
<svg xmlns:xlink="http://www.w3.org/1999/xlink" width="720pt" height="432pt" viewBox="0 0 720 432" xmlns="http://www.w3.org/2000/svg" version="1.1">
 <metadata>
  <rdf:RDF xmlns:dc="http://purl.org/dc/elements/1.1/" xmlns:cc="http://creativecommons.org/ns#" xmlns:rdf="http://www.w3.org/1999/02/22-rdf-syntax-ns#">
   <cc:Work>
    <dc:type rdf:resource="http://purl.org/dc/dcmitype/StillImage"/>
    <dc:date>2025-10-26T13:30:34.083043</dc:date>
    <dc:format>image/svg+xml</dc:format>
    <dc:creator>
     <cc:Agent>
      <dc:title>Matplotlib v3.6.3, https://matplotlib.org/</dc:title>
     </cc:Agent>
    </dc:creator>
   </cc:Work>
  </rdf:RDF>
 </metadata>
 <defs>
  <style type="text/css">*{stroke-linejoin: round; stroke-linecap: butt}</style>
 </defs>
 <g id="figure_1">
  <g id="patch_1">
   <path d="M 0 432 
L 720 432 
L 720 0 
L 0 0 
z
" style="fill: #ffffff"/>
  </g>
  <g id="patch_2">
   <path d="M 202.68 384.48 
L 535.32 384.48 
L 535.32 51.84 
L 202.68 51.84 
z
" style="fill: #ffffff"/>
  </g>
  <g id="pane3d_1">
   <g id="patch_3">
    <path d="M 227.796614 302.461636 
L 337.645206 210.384369 
L 336.118205 77.592489 
L 221.012792 161.591176 
" style="fill: #f2f2f2; opacity: 0.5; stroke: #f2f2f2; stroke-linejoin: miter"/>
   </g>
  </g>
  <g id="pane3d_2">
   <g id="patch_4">
    <path d="M 337.645206 210.384369 
L 513.913001 261.618458 
L 520.203377 124.252714 
L 336.118205 77.592489 
" style="fill: #e6e6e6; opacity: 0.5; stroke: #e6e6e6; stroke-linejoin: miter"/>
   </g>
  </g>
  <g id="pane3d_3">
   <g id="patch_5">
    <path d="M 227.796614 302.461636 
L 414.649086 363.487653 
L 513.913001 261.618458 
L 337.645206 210.384369 
" style="fill: #ececec; opacity: 0.5; stroke: #ececec; stroke-linejoin: miter"/>
   </g>
  </g>
  <g id="axis3d_1">
   <g id="line2d_1">
    <path d="M 227.796614 302.461636 
L 414.649086 363.487653 
" style="fill: none; stroke: #000000; stroke-width: 0.8; stroke-linecap: square"/>
   </g>
   <g id="text_1">
    <!-- X-axis -->
    <g transform="translate(287.383657 365.351088) rotate(-341.912962) scale(0.1 -0.1)">
     <defs>
      <path id="DejaVuSans-58" d="M 403 4666 
L 1081 4666 
L 2241 2931 
L 3406 4666 
L 4084 4666 
L 2584 2425 
L 4184 0 
L 3506 0 
L 2194 1984 
L 872 0 
L 191 0 
L 1856 2491 
L 403 4666 
z
" transform="scale(0.015625)"/>
      <path id="DejaVuSans-2d" d="M 313 2009 
L 1997 2009 
L 1997 1497 
L 313 1497 
L 313 2009 
z
" transform="scale(0.015625)"/>
      <path id="DejaVuSans-61" d="M 2194 1759 
Q 1497 1759 1228 1600 
Q 959 1441 959 1056 
Q 959 750 1161 570 
Q 1363 391 1709 391 
Q 2188 391 2477 730 
Q 2766 1069 2766 1631 
L 2766 1759 
L 2194 1759 
z
M 3341 1997 
L 3341 0 
L 2766 0 
L 2766 531 
Q 2569 213 2275 61 
Q 1981 -91 1556 -91 
Q 1019 -91 701 211 
Q 384 513 384 1019 
Q 384 1609 779 1909 
Q 1175 2209 1959 2209 
L 2766 2209 
L 2766 2266 
Q 2766 2663 2505 2880 
Q 2244 3097 1772 3097 
Q 1472 3097 1187 3025 
Q 903 2953 641 2809 
L 641 3341 
Q 956 3463 1253 3523 
Q 1550 3584 1831 3584 
Q 2591 3584 2966 3190 
Q 3341 2797 3341 1997 
z
" transform="scale(0.015625)"/>
      <path id="DejaVuSans-78" d="M 3513 3500 
L 2247 1797 
L 3578 0 
L 2900 0 
L 1881 1375 
L 863 0 
L 184 0 
L 1544 1831 
L 300 3500 
L 978 3500 
L 1906 2253 
L 2834 3500 
L 3513 3500 
z
" transform="scale(0.015625)"/>
      <path id="DejaVuSans-69" d="M 603 3500 
L 1178 3500 
L 1178 0 
L 603 0 
L 603 3500 
z
M 603 4863 
L 1178 4863 
L 1178 4134 
L 603 4134 
L 603 4863 
z
" transform="scale(0.015625)"/>
      <path id="DejaVuSans-73" d="M 2834 3397 
L 2834 2853 
Q 2591 2978 2328 3040 
Q 2066 3103 1784 3103 
Q 1356 3103 1142 2972 
Q 928 2841 928 2578 
Q 928 2378 1081 2264 
Q 1234 2150 1697 2047 
L 1894 2003 
Q 2506 1872 2764 1633 
Q 3022 1394 3022 966 
Q 3022 478 2636 193 
Q 2250 -91 1575 -91 
Q 1294 -91 989 -36 
Q 684 19 347 128 
L 347 722 
Q 666 556 975 473 
Q 1284 391 1588 391 
Q 1994 391 2212 530 
Q 2431 669 2431 922 
Q 2431 1156 2273 1281 
Q 2116 1406 1581 1522 
L 1381 1569 
Q 847 1681 609 1914 
Q 372 2147 372 2553 
Q 372 3047 722 3315 
Q 1072 3584 1716 3584 
Q 2034 3584 2315 3537 
Q 2597 3491 2834 3397 
z
" transform="scale(0.015625)"/>
     </defs>
     <use xlink:href="#DejaVuSans-58"/>
     <use xlink:href="#DejaVuSans-2d" x="63.505859"/>
     <use xlink:href="#DejaVuSans-61" x="99.589844"/>
     <use xlink:href="#DejaVuSans-78" x="160.869141"/>
     <use xlink:href="#DejaVuSans-69" x="220.048828"/>
     <use xlink:href="#DejaVuSans-73" x="247.832031"/>
    </g>
   </g>
   <g id="Line3DCollection_1">
    <path d="M 241.04308 306.787932 
L 350.192653 214.031416 
L 349.196453 80.907443 
" style="fill: none; stroke: #b0b0b0; stroke-width: 0.8"/>
    <path d="M 262.627943 313.837548 
L 370.621627 219.969313 
L 370.49805 86.306777 
" style="fill: none; stroke: #b0b0b0; stroke-width: 0.8"/>
    <path d="M 284.483519 320.975579 
L 391.285568 225.975504 
L 392.055248 91.770899 
" style="fill: none; stroke: #b0b0b0; stroke-width: 0.8"/>
    <path d="M 306.614933 328.203699 
L 412.18855 232.051176 
L 413.872677 97.300981 
" style="fill: none; stroke: #b0b0b0; stroke-width: 0.8"/>
    <path d="M 329.02744 335.523624 
L 433.334748 238.197541 
L 435.955076 102.898225 
" style="fill: none; stroke: #b0b0b0; stroke-width: 0.8"/>
    <path d="M 351.726429 342.937114 
L 454.72843 244.41584 
L 458.307303 108.563863 
" style="fill: none; stroke: #b0b0b0; stroke-width: 0.8"/>
    <path d="M 374.717429 350.445974 
L 476.373967 250.707343 
L 480.934332 114.299156 
" style="fill: none; stroke: #b0b0b0; stroke-width: 0.8"/>
    <path d="M 398.00611 358.052057 
L 498.275832 257.07335 
L 503.841265 120.105395 
" style="fill: none; stroke: #b0b0b0; stroke-width: 0.8"/>
   </g>
   <g id="xtick_1">
    <g id="line2d_2">
     <path d="M 241.993591 305.980177 
L 239.137976 308.40691 
" style="fill: none; stroke: #000000; stroke-width: 0.8; stroke-linecap: square"/>
    </g>
    <g id="text_2">
     <!-- −2.5 -->
     <g transform="translate(221.379749 330.096061) scale(0.1 -0.1)">
      <defs>
       <path id="DejaVuSans-2212" d="M 678 2272 
L 4684 2272 
L 4684 1741 
L 678 1741 
L 678 2272 
z
" transform="scale(0.015625)"/>
       <path id="DejaVuSans-32" d="M 1228 531 
L 3431 531 
L 3431 0 
L 469 0 
L 469 531 
Q 828 903 1448 1529 
Q 2069 2156 2228 2338 
Q 2531 2678 2651 2914 
Q 2772 3150 2772 3378 
Q 2772 3750 2511 3984 
Q 2250 4219 1831 4219 
Q 1534 4219 1204 4116 
Q 875 4013 500 3803 
L 500 4441 
Q 881 4594 1212 4672 
Q 1544 4750 1819 4750 
Q 2544 4750 2975 4387 
Q 3406 4025 3406 3419 
Q 3406 3131 3298 2873 
Q 3191 2616 2906 2266 
Q 2828 2175 2409 1742 
Q 1991 1309 1228 531 
z
" transform="scale(0.015625)"/>
       <path id="DejaVuSans-2e" d="M 684 794 
L 1344 794 
L 1344 0 
L 684 0 
L 684 794 
z
" transform="scale(0.015625)"/>
       <path id="DejaVuSans-35" d="M 691 4666 
L 3169 4666 
L 3169 4134 
L 1269 4134 
L 1269 2991 
Q 1406 3038 1543 3061 
Q 1681 3084 1819 3084 
Q 2600 3084 3056 2656 
Q 3513 2228 3513 1497 
Q 3513 744 3044 326 
Q 2575 -91 1722 -91 
Q 1428 -91 1123 -41 
Q 819 9 494 109 
L 494 744 
Q 775 591 1075 516 
Q 1375 441 1709 441 
Q 2250 441 2565 725 
Q 2881 1009 2881 1497 
Q 2881 1984 2565 2268 
Q 2250 2553 1709 2553 
Q 1456 2553 1204 2497 
Q 953 2441 691 2322 
L 691 4666 
z
" transform="scale(0.015625)"/>
      </defs>
      <use xlink:href="#DejaVuSans-2212"/>
      <use xlink:href="#DejaVuSans-32" x="83.789062"/>
      <use xlink:href="#DejaVuSans-2e" x="147.412109"/>
      <use xlink:href="#DejaVuSans-35" x="179.199219"/>
     </g>
    </g>
   </g>
   <g id="xtick_2">
    <g id="line2d_3">
     <path d="M 263.568865 313.019698 
L 260.742034 315.476782 
" style="fill: none; stroke: #000000; stroke-width: 0.8; stroke-linecap: square"/>
    </g>
    <g id="text_3">
     <!-- −2.0 -->
     <g transform="translate(242.982175 337.264961) scale(0.1 -0.1)">
      <defs>
       <path id="DejaVuSans-30" d="M 2034 4250 
Q 1547 4250 1301 3770 
Q 1056 3291 1056 2328 
Q 1056 1369 1301 889 
Q 1547 409 2034 409 
Q 2525 409 2770 889 
Q 3016 1369 3016 2328 
Q 3016 3291 2770 3770 
Q 2525 4250 2034 4250 
z
M 2034 4750 
Q 2819 4750 3233 4129 
Q 3647 3509 3647 2328 
Q 3647 1150 3233 529 
Q 2819 -91 2034 -91 
Q 1250 -91 836 529 
Q 422 1150 422 2328 
Q 422 3509 836 4129 
Q 1250 4750 2034 4750 
z
" transform="scale(0.015625)"/>
      </defs>
      <use xlink:href="#DejaVuSans-2212"/>
      <use xlink:href="#DejaVuSans-32" x="83.789062"/>
      <use xlink:href="#DejaVuSans-2e" x="147.412109"/>
      <use xlink:href="#DejaVuSans-30" x="179.199219"/>
     </g>
    </g>
   </g>
   <g id="xtick_3">
    <g id="line2d_4">
     <path d="M 285.414536 320.147443 
L 282.617439 322.635452 
" style="fill: none; stroke: #000000; stroke-width: 0.8; stroke-linecap: square"/>
    </g>
    <g id="text_4">
     <!-- −1.5 -->
     <g transform="translate(264.85635 344.524043) scale(0.1 -0.1)">
      <defs>
       <path id="DejaVuSans-31" d="M 794 531 
L 1825 531 
L 1825 4091 
L 703 3866 
L 703 4441 
L 1819 4666 
L 2450 4666 
L 2450 531 
L 3481 531 
L 3481 0 
L 794 0 
L 794 531 
z
" transform="scale(0.015625)"/>
      </defs>
      <use xlink:href="#DejaVuSans-2212"/>
      <use xlink:href="#DejaVuSans-31" x="83.789062"/>
      <use xlink:href="#DejaVuSans-2e" x="147.412109"/>
      <use xlink:href="#DejaVuSans-35" x="179.199219"/>
     </g>
    </g>
   </g>
   <g id="xtick_4">
    <g id="line2d_5">
     <path d="M 307.535718 327.365082 
L 304.769334 329.884602 
" style="fill: none; stroke: #000000; stroke-width: 0.8; stroke-linecap: square"/>
    </g>
    <g id="text_5">
     <!-- −1.0 -->
     <g transform="translate(287.007434 351.875019) scale(0.1 -0.1)">
      <use xlink:href="#DejaVuSans-2212"/>
      <use xlink:href="#DejaVuSans-31" x="83.789062"/>
      <use xlink:href="#DejaVuSans-2e" x="147.412109"/>
      <use xlink:href="#DejaVuSans-30" x="179.199219"/>
     </g>
    </g>
   </g>
   <g id="xtick_5">
    <g id="line2d_6">
     <path d="M 329.937659 334.674325 
L 327.202995 337.22596 
" style="fill: none; stroke: #000000; stroke-width: 0.8; stroke-linecap: square"/>
    </g>
    <g id="text_6">
     <!-- −0.5 -->
     <g transform="translate(309.440719 359.319645) scale(0.1 -0.1)">
      <use xlink:href="#DejaVuSans-2212"/>
      <use xlink:href="#DejaVuSans-30" x="83.789062"/>
      <use xlink:href="#DejaVuSans-2e" x="147.412109"/>
      <use xlink:href="#DejaVuSans-35" x="179.199219"/>
     </g>
    </g>
   </g>
   <g id="xtick_6">
    <g id="line2d_7">
     <path d="M 352.625735 342.076929 
L 349.923832 344.661295 
" style="fill: none; stroke: #000000; stroke-width: 0.8; stroke-linecap: square"/>
    </g>
    <g id="text_7">
     <!-- 0.0 -->
     <g transform="translate(336.351475 366.859722) scale(0.1 -0.1)">
      <use xlink:href="#DejaVuSans-30"/>
      <use xlink:href="#DejaVuSans-2e" x="63.623047"/>
      <use xlink:href="#DejaVuSans-30" x="95.410156"/>
     </g>
    </g>
   </g>
   <g id="xtick_7">
    <g id="line2d_8">
     <path d="M 375.605465 349.574692 
L 372.937396 352.192424 
" style="fill: none; stroke: #000000; stroke-width: 0.8; stroke-linecap: square"/>
    </g>
    <g id="text_8">
     <!-- 0.5 -->
     <g transform="translate(359.365583 374.497098) scale(0.1 -0.1)">
      <use xlink:href="#DejaVuSans-30"/>
      <use xlink:href="#DejaVuSans-2e" x="63.623047"/>
      <use xlink:href="#DejaVuSans-35" x="95.410156"/>
     </g>
    </g>
   </g>
   <g id="xtick_8">
    <g id="line2d_9">
     <path d="M 398.882509 357.169462 
L 396.249379 359.82121 
" style="fill: none; stroke: #000000; stroke-width: 0.8; stroke-linecap: square"/>
    </g>
    <g id="text_9">
     <!-- 1.0 -->
     <g transform="translate(382.678598 382.233668) scale(0.1 -0.1)">
      <use xlink:href="#DejaVuSans-31"/>
      <use xlink:href="#DejaVuSans-2e" x="63.623047"/>
      <use xlink:href="#DejaVuSans-30" x="95.410156"/>
     </g>
    </g>
   </g>
  </g>
  <g id="axis3d_2">
   <g id="line2d_10">
    <path d="M 513.913001 261.618458 
L 414.649086 363.487653 
" style="fill: none; stroke: #000000; stroke-width: 0.8; stroke-linecap: square"/>
   </g>
   <g id="text_10">
    <!-- Y-axis -->
    <g transform="translate(485.476471 350.430627) rotate(-45.742112) scale(0.1 -0.1)">
     <defs>
      <path id="DejaVuSans-59" d="M -13 4666 
L 666 4666 
L 1959 2747 
L 3244 4666 
L 3922 4666 
L 2272 2222 
L 2272 0 
L 1638 0 
L 1638 2222 
L -13 4666 
z
" transform="scale(0.015625)"/>
     </defs>
     <use xlink:href="#DejaVuSans-59"/>
     <use xlink:href="#DejaVuSans-2d" x="49.208984"/>
     <use xlink:href="#DejaVuSans-61" x="85.292969"/>
     <use xlink:href="#DejaVuSans-78" x="146.572266"/>
     <use xlink:href="#DejaVuSans-69" x="205.751953"/>
     <use xlink:href="#DejaVuSans-73" x="233.535156"/>
    </g>
   </g>
   <g id="Line3DCollection_2">
    <path d="M 238.494971 148.833478 
L 244.42673 288.521943 
L 429.733165 348.007678 
" style="fill: none; stroke: #b0b0b0; stroke-width: 0.8"/>
    <path d="M 260.699378 132.629714 
L 265.576554 270.793741 
L 448.887622 328.350492 
" style="fill: none; stroke: #b0b0b0; stroke-width: 0.8"/>
    <path d="M 282.176543 116.956656 
L 286.063159 253.621463 
L 467.410387 309.341579 
" style="fill: none; stroke: #b0b0b0; stroke-width: 0.8"/>
    <path d="M 302.96162 101.788654 
L 305.91726 236.979362 
L 485.332201 290.94939 
" style="fill: none; stroke: #b0b0b0; stroke-width: 0.8"/>
    <path d="M 323.087531 87.101681 
L 325.167702 220.843259 
L 502.681842 273.144389 
" style="fill: none; stroke: #b0b0b0; stroke-width: 0.8"/>
   </g>
   <g id="xtick_9">
    <g id="line2d_11">
     <path d="M 428.172147 347.506571 
L 432.859209 349.011178 
" style="fill: none; stroke: #000000; stroke-width: 0.8; stroke-linecap: square"/>
    </g>
    <g id="text_11">
     <!-- 0.0 -->
     <g transform="translate(434.572601 368.927915) scale(0.1 -0.1)">
      <use xlink:href="#DejaVuSans-30"/>
      <use xlink:href="#DejaVuSans-2e" x="63.623047"/>
      <use xlink:href="#DejaVuSans-30" x="95.410156"/>
     </g>
    </g>
   </g>
   <g id="xtick_10">
    <g id="line2d_12">
     <path d="M 447.344716 327.866044 
L 451.977331 329.320612 
" style="fill: none; stroke: #000000; stroke-width: 0.8; stroke-linecap: square"/>
    </g>
    <g id="text_12">
     <!-- 0.5 -->
     <g transform="translate(453.521462 349.038083) scale(0.1 -0.1)">
      <use xlink:href="#DejaVuSans-30"/>
      <use xlink:href="#DejaVuSans-2e" x="63.623047"/>
      <use xlink:href="#DejaVuSans-35" x="95.410156"/>
     </g>
    </g>
   </g>
   <g id="xtick_11">
    <g id="line2d_13">
     <path d="M 465.885256 308.872973 
L 470.464436 310.279956 
" style="fill: none; stroke: #000000; stroke-width: 0.8; stroke-linecap: square"/>
    </g>
    <g id="text_13">
     <!-- 1.0 -->
     <g transform="translate(471.845122 329.804496) scale(0.1 -0.1)">
      <use xlink:href="#DejaVuSans-31"/>
      <use xlink:href="#DejaVuSans-2e" x="63.623047"/>
      <use xlink:href="#DejaVuSans-30" x="95.410156"/>
     </g>
    </g>
   </g>
   <g id="xtick_12">
    <g id="line2d_14">
     <path d="M 483.824513 290.49586 
L 488.351259 291.857556 
" style="fill: none; stroke: #000000; stroke-width: 0.8; stroke-linecap: square"/>
    </g>
    <g id="text_14">
     <!-- 1.5 -->
     <g transform="translate(489.574023 311.195205) scale(0.1 -0.1)">
      <use xlink:href="#DejaVuSans-31"/>
      <use xlink:href="#DejaVuSans-2e" x="63.623047"/>
      <use xlink:href="#DejaVuSans-35" x="95.410156"/>
     </g>
    </g>
   </g>
   <g id="xtick_13">
    <g id="line2d_15">
     <path d="M 501.19127 272.705221 
L 505.66657 274.023782 
" style="fill: none; stroke: #000000; stroke-width: 0.8; stroke-linecap: square"/>
    </g>
    <g id="text_15">
     <!-- 2.0 -->
     <g transform="translate(506.736658 293.180298) scale(0.1 -0.1)">
      <use xlink:href="#DejaVuSans-32"/>
      <use xlink:href="#DejaVuSans-2e" x="63.623047"/>
      <use xlink:href="#DejaVuSans-30" x="95.410156"/>
     </g>
    </g>
   </g>
  </g>
  <g id="axis3d_3">
   <g id="line2d_16">
    <path d="M 513.913001 261.618458 
L 520.203377 124.252714 
" style="fill: none; stroke: #000000; stroke-width: 0.8; stroke-linecap: square"/>
   </g>
   <g id="text_16">
    <!-- Z (m) -->
    <g transform="translate(559.544596 202.921506) rotate(-87.378092) scale(0.1 -0.1)">
     <defs>
      <path id="DejaVuSans-5a" d="M 359 4666 
L 4025 4666 
L 4025 4184 
L 1075 531 
L 4097 531 
L 4097 0 
L 288 0 
L 288 481 
L 3238 4134 
L 359 4134 
L 359 4666 
z
" transform="scale(0.015625)"/>
      <path id="DejaVuSans-20" transform="scale(0.015625)"/>
      <path id="DejaVuSans-28" d="M 1984 4856 
Q 1566 4138 1362 3434 
Q 1159 2731 1159 2009 
Q 1159 1288 1364 580 
Q 1569 -128 1984 -844 
L 1484 -844 
Q 1016 -109 783 600 
Q 550 1309 550 2009 
Q 550 2706 781 3412 
Q 1013 4119 1484 4856 
L 1984 4856 
z
" transform="scale(0.015625)"/>
      <path id="DejaVuSans-6d" d="M 3328 2828 
Q 3544 3216 3844 3400 
Q 4144 3584 4550 3584 
Q 5097 3584 5394 3201 
Q 5691 2819 5691 2113 
L 5691 0 
L 5113 0 
L 5113 2094 
Q 5113 2597 4934 2840 
Q 4756 3084 4391 3084 
Q 3944 3084 3684 2787 
Q 3425 2491 3425 1978 
L 3425 0 
L 2847 0 
L 2847 2094 
Q 2847 2600 2669 2842 
Q 2491 3084 2119 3084 
Q 1678 3084 1418 2786 
Q 1159 2488 1159 1978 
L 1159 0 
L 581 0 
L 581 3500 
L 1159 3500 
L 1159 2956 
Q 1356 3278 1631 3431 
Q 1906 3584 2284 3584 
Q 2666 3584 2933 3390 
Q 3200 3197 3328 2828 
z
" transform="scale(0.015625)"/>
      <path id="DejaVuSans-29" d="M 513 4856 
L 1013 4856 
Q 1481 4119 1714 3412 
Q 1947 2706 1947 2009 
Q 1947 1309 1714 600 
Q 1481 -109 1013 -844 
L 513 -844 
Q 928 -128 1133 580 
Q 1338 1288 1338 2009 
Q 1338 2731 1133 3434 
Q 928 4138 513 4856 
z
" transform="scale(0.015625)"/>
     </defs>
     <use xlink:href="#DejaVuSans-5a"/>
     <use xlink:href="#DejaVuSans-20" x="68.505859"/>
     <use xlink:href="#DejaVuSans-28" x="100.292969"/>
     <use xlink:href="#DejaVuSans-6d" x="139.306641"/>
     <use xlink:href="#DejaVuSans-29" x="236.71875"/>
    </g>
   </g>
   <g id="Line3DCollection_3">
    <path d="M 514.110442 257.306854 
L 337.597178 206.207797 
L 227.584032 298.047243 
" style="fill: none; stroke: #b0b0b0; stroke-width: 0.8"/>
    <path d="M 514.915355 239.729606 
L 337.40145 189.18677 
L 226.717162 280.046117 
" style="fill: none; stroke: #b0b0b0; stroke-width: 0.8"/>
    <path d="M 515.729536 221.949966 
L 337.203576 171.979116 
L 225.83993 261.829819 
" style="fill: none; stroke: #b0b0b0; stroke-width: 0.8"/>
    <path d="M 516.553146 203.964421 
L 337.00352 154.581749 
L 224.952149 243.39447 
" style="fill: none; stroke: #b0b0b0; stroke-width: 0.8"/>
    <path d="M 517.386351 185.769371 
L 336.801246 136.991515 
L 224.053627 224.736094 
" style="fill: none; stroke: #b0b0b0; stroke-width: 0.8"/>
    <path d="M 518.229317 167.361135 
L 336.596718 119.205187 
L 223.14417 205.850619 
" style="fill: none; stroke: #b0b0b0; stroke-width: 0.8"/>
    <path d="M 519.082219 148.735943 
L 336.389896 101.21947 
L 222.223575 186.733873 
" style="fill: none; stroke: #b0b0b0; stroke-width: 0.8"/>
    <path d="M 519.945232 129.889939 
L 336.180743 83.03099 
L 221.291637 167.381583 
" style="fill: none; stroke: #b0b0b0; stroke-width: 0.8"/>
   </g>
   <g id="xtick_14">
    <g id="line2d_17">
     <path d="M 512.628912 256.877964 
L 517.07703 258.165656 
" style="fill: none; stroke: #000000; stroke-width: 0.8; stroke-linecap: square"/>
    </g>
    <g id="text_17">
     <!-- 0.9 -->
     <g transform="translate(524.443606 262.305437) scale(0.1 -0.1)">
      <defs>
       <path id="DejaVuSans-39" d="M 703 97 
L 703 672 
Q 941 559 1184 500 
Q 1428 441 1663 441 
Q 2288 441 2617 861 
Q 2947 1281 2994 2138 
Q 2813 1869 2534 1725 
Q 2256 1581 1919 1581 
Q 1219 1581 811 2004 
Q 403 2428 403 3163 
Q 403 3881 828 4315 
Q 1253 4750 1959 4750 
Q 2769 4750 3195 4129 
Q 3622 3509 3622 2328 
Q 3622 1225 3098 567 
Q 2575 -91 1691 -91 
Q 1453 -91 1209 -44 
Q 966 3 703 97 
z
M 1959 2075 
Q 2384 2075 2632 2365 
Q 2881 2656 2881 3163 
Q 2881 3666 2632 3958 
Q 2384 4250 1959 4250 
Q 1534 4250 1286 3958 
Q 1038 3666 1038 3163 
Q 1038 2656 1286 2365 
Q 1534 2075 1959 2075 
z
" transform="scale(0.015625)"/>
      </defs>
      <use xlink:href="#DejaVuSans-30"/>
      <use xlink:href="#DejaVuSans-2e" x="63.623047"/>
      <use xlink:href="#DejaVuSans-39" x="95.410156"/>
     </g>
    </g>
   </g>
   <g id="xtick_15">
    <g id="line2d_18">
     <path d="M 513.425027 239.30527 
L 517.899581 240.579292 
" style="fill: none; stroke: #000000; stroke-width: 0.8; stroke-linecap: square"/>
    </g>
    <g id="text_18">
     <!-- 1.0 -->
     <g transform="translate(525.350987 244.755829) scale(0.1 -0.1)">
      <use xlink:href="#DejaVuSans-31"/>
      <use xlink:href="#DejaVuSans-2e" x="63.623047"/>
      <use xlink:href="#DejaVuSans-30" x="95.410156"/>
     </g>
    </g>
   </g>
   <g id="xtick_16">
    <g id="line2d_19">
     <path d="M 514.230305 221.53032 
L 518.73161 222.790271 
" style="fill: none; stroke: #000000; stroke-width: 0.8; stroke-linecap: square"/>
    </g>
    <g id="text_19">
     <!-- 1.1 -->
     <g transform="translate(526.26879 227.004639) scale(0.1 -0.1)">
      <use xlink:href="#DejaVuSans-31"/>
      <use xlink:href="#DejaVuSans-2e" x="63.623047"/>
      <use xlink:href="#DejaVuSans-31" x="95.410156"/>
     </g>
    </g>
   </g>
   <g id="xtick_17">
    <g id="line2d_20">
     <path d="M 515.044905 203.5496 
L 519.573284 204.795068 
" style="fill: none; stroke: #000000; stroke-width: 0.8; stroke-linecap: square"/>
    </g>
    <g id="text_20">
     <!-- 1.2 -->
     <g transform="translate(527.197196 209.048375) scale(0.1 -0.1)">
      <use xlink:href="#DejaVuSans-31"/>
      <use xlink:href="#DejaVuSans-2e" x="63.623047"/>
      <use xlink:href="#DejaVuSans-32" x="95.410156"/>
     </g>
    </g>
   </g>
   <g id="xtick_18">
    <g id="line2d_21">
     <path d="M 515.86899 185.359517 
L 520.424769 186.590078 
" style="fill: none; stroke: #000000; stroke-width: 0.8; stroke-linecap: square"/>
    </g>
    <g id="text_21">
     <!-- 1.3 -->
     <g transform="translate(528.13639 190.883462) scale(0.1 -0.1)">
      <defs>
       <path id="DejaVuSans-33" d="M 2597 2516 
Q 3050 2419 3304 2112 
Q 3559 1806 3559 1356 
Q 3559 666 3084 287 
Q 2609 -91 1734 -91 
Q 1441 -91 1130 -33 
Q 819 25 488 141 
L 488 750 
Q 750 597 1062 519 
Q 1375 441 1716 441 
Q 2309 441 2620 675 
Q 2931 909 2931 1356 
Q 2931 1769 2642 2001 
Q 2353 2234 1838 2234 
L 1294 2234 
L 1294 2753 
L 1863 2753 
Q 2328 2753 2575 2939 
Q 2822 3125 2822 3475 
Q 2822 3834 2567 4026 
Q 2313 4219 1838 4219 
Q 1578 4219 1281 4162 
Q 984 4106 628 3988 
L 628 4550 
Q 988 4650 1302 4700 
Q 1616 4750 1894 4750 
Q 2613 4750 3031 4423 
Q 3450 4097 3450 3541 
Q 3450 3153 3228 2886 
Q 3006 2619 2597 2516 
z
" transform="scale(0.015625)"/>
      </defs>
      <use xlink:href="#DejaVuSans-31"/>
      <use xlink:href="#DejaVuSans-2e" x="63.623047"/>
      <use xlink:href="#DejaVuSans-33" x="95.410156"/>
     </g>
    </g>
   </g>
   <g id="xtick_19">
    <g id="line2d_22">
     <path d="M 516.702727 166.956393 
L 521.286239 168.171611 
" style="fill: none; stroke: #000000; stroke-width: 0.8; stroke-linecap: square"/>
    </g>
    <g id="text_22">
     <!-- 1.4 -->
     <g transform="translate(529.086561 172.506242) scale(0.1 -0.1)">
      <defs>
       <path id="DejaVuSans-34" d="M 2419 4116 
L 825 1625 
L 2419 1625 
L 2419 4116 
z
M 2253 4666 
L 3047 4666 
L 3047 1625 
L 3713 1625 
L 3713 1100 
L 3047 1100 
L 3047 0 
L 2419 0 
L 2419 1100 
L 313 1100 
L 313 1709 
L 2253 4666 
z
" transform="scale(0.015625)"/>
      </defs>
      <use xlink:href="#DejaVuSans-31"/>
      <use xlink:href="#DejaVuSans-2e" x="63.623047"/>
      <use xlink:href="#DejaVuSans-34" x="95.410156"/>
     </g>
    </g>
   </g>
   <g id="xtick_20">
    <g id="line2d_23">
     <path d="M 517.546287 148.336463 
L 522.157871 149.53589 
" style="fill: none; stroke: #000000; stroke-width: 0.8; stroke-linecap: square"/>
    </g>
    <g id="text_23">
     <!-- 1.5 -->
     <g transform="translate(530.047903 153.912972) scale(0.1 -0.1)">
      <use xlink:href="#DejaVuSans-31"/>
      <use xlink:href="#DejaVuSans-2e" x="63.623047"/>
      <use xlink:href="#DejaVuSans-35" x="95.410156"/>
     </g>
    </g>
   </g>
   <g id="xtick_21">
    <g id="line2d_24">
     <path d="M 518.399843 129.495873 
L 523.039845 130.679048 
" style="fill: none; stroke: #000000; stroke-width: 0.8; stroke-linecap: square"/>
    </g>
    <g id="text_24">
     <!-- 1.6 -->
     <g transform="translate(531.020613 135.099818) scale(0.1 -0.1)">
      <defs>
       <path id="DejaVuSans-36" d="M 2113 2584 
Q 1688 2584 1439 2293 
Q 1191 2003 1191 1497 
Q 1191 994 1439 701 
Q 1688 409 2113 409 
Q 2538 409 2786 701 
Q 3034 994 3034 1497 
Q 3034 2003 2786 2293 
Q 2538 2584 2113 2584 
z
M 3366 4563 
L 3366 3988 
Q 3128 4100 2886 4159 
Q 2644 4219 2406 4219 
Q 1781 4219 1451 3797 
Q 1122 3375 1075 2522 
Q 1259 2794 1537 2939 
Q 1816 3084 2150 3084 
Q 2853 3084 3261 2657 
Q 3669 2231 3669 1497 
Q 3669 778 3244 343 
Q 2819 -91 2113 -91 
Q 1303 -91 875 529 
Q 447 1150 447 2328 
Q 447 3434 972 4092 
Q 1497 4750 2381 4750 
Q 2619 4750 2861 4703 
Q 3103 4656 3366 4563 
z
" transform="scale(0.015625)"/>
      </defs>
      <use xlink:href="#DejaVuSans-31"/>
      <use xlink:href="#DejaVuSans-2e" x="63.623047"/>
      <use xlink:href="#DejaVuSans-36" x="95.410156"/>
     </g>
    </g>
   </g>
  </g>
  <g id="axes_1">
   <g id="line2d_25">
    <path d="M 306.601157 254.086574 
L 306.622937 253.575655 
L 306.585748 254.153759 
L 306.651996 253.581068 
L 306.831735 252.030823 
L 306.516133 251.918412 
L 306.507362 249.722137 
L 307.433544 249.355172 
L 306.314935 243.598057 
L 306.37278 239.987066 
L 307.854758 239.421756 
L 307.521434 232.649519 
L 307.318463 233.438635 
L 308.160604 227.487987 
L 307.651234 226.917177 
L 308.230968 226.062587 
L 308.135304 225.037849 
L 307.911976 225.528189 
L 308.637839 226.365757 
L 308.660898 227.423906 
L 308.771003 227.434832 
L 308.764039 227.668173 
L 308.57415 227.684282 
L 308.614443 227.251881 
L 308.992244 226.696962 
L 309.057408 226.165494 
L 309.037777 225.285992 
L 309.191189 224.661112 
L 309.080129 221.853179 
L 309.197042 218.239788 
L 309.614347 216.27196 
L 309.667393 214.088633 
L 309.988628 212.947114 
L 310.095512 210.113743 
L 310.436332 207.5773 
L 310.502224 204.538967 
L 310.690388 203.993009 
L 310.904603 200.913309 
L 310.118502 196.911068 
L 310.886903 193.298642 
L 310.909619 191.986752 
L 310.698619 190.049678 
L 311.800214 190.875839 
L 311.923633 187.212693 
L 310.994467 187.651065 
L 312.149276 184.958881 
L 312.069439 186.96089 
L 312.617747 182.133926 
L 312.062421 180.055848 
L 311.763281 181.094103 
L 312.01447 179.444408 
L 312.366496 179.901411 
L 312.309441 179.651329 
L 312.735623 177.87422 
L 313.301396 176.343254 
L 313.318939 175.884539 
L 314.373615 175.944257 
L 314.932907 177.340951 
L 314.966854 175.651088 
L 314.369791 176.203509 
L 314.899161 176.908449 
L 316.389056 179.150841 
L 315.489049 177.558246 
L 315.959762 180.308527 
L 316.880553 177.806846 
L 318.006367 181.184187 
L 318.871494 181.687025 
L 319.869589 181.979473 
L 319.785917 184.218597 
L 320.591636 185.700367 
L 319.386967 184.750892 
L 321.189185 186.336097 
L 321.061705 187.005657 
L 323.154276 186.755043 
L 323.878543 186.807597 
L 324.479468 187.845025 
L 323.33492 190.205622 
L 324.179196 188.216153 
L 323.939913 190.601812 
L 324.539401 191.438394 
L 328.100255 192.478287 
L 328.536242 192.034778 
L 328.355954 195.416718 
L 329.566192 193.905338 
L 330.023613 195.3389 
L 329.210833 198.984737 
L 329.646461 199.525621 
L 330.928505 196.199802 
L 331.156067 196.701978 
L 330.965717 201.140406 
L 331.768681 200.691409 
L 330.803006 199.721751 
L 332.096474 198.311316 
L 331.64175 199.308959 
L 332.486344 200.018484 
L 332.636806 202.557944 
L 334.35819 201.501046 
L 333.620194 205.295932 
L 334.165683 206.234929 
L 335.13396 207.178068 
L 335.88512 205.790546 
L 335.539405 205.667755 
L 335.816836 206.467632 
L 336.472368 207.008273 
L 337.655084 208.258785 
L 337.456213 207.855831 
L 338.608574 207.485735 
L 338.437135 208.137474 
L 339.971041 209.311113 
L 340.324772 211.269775 
L 340.117735 209.285735 
L 341.74698 211.325877 
L 341.286706 210.11707 
L 341.905108 210.449879 
L 342.769028 211.937589 
L 343.916272 212.14149 
L 343.908423 210.801303 
L 344.764341 212.816036 
L 345.183562 212.752855 
L 345.155533 211.495043 
L 345.560546 211.189572 
L 346.074777 212.024742 
L 346.376175 210.881122 
L 346.805422 207.255112 
L 347.189884 205.320435 
L 347.383885 197.042313 
L 347.078108 194.990761 
L 345.647265 187.455397 
L 346.381504 188.674155 
L 345.790222 180.110803 
L 347.407095 180.540543 
L 347.322368 177.843739 
L 345.575817 172.611324 
L 347.12269 173.702868 
L 347.257655 168.273381 
L 347.101905 162.405959 
L 346.422104 165.690981 
L 347.554341 163.118429 
L 346.805033 162.262827 
L 347.487915 154.156898 
L 347.222139 158.908863 
L 347.030359 153.081604 
L 348.833254 155.453796 
L 347.858714 149.329325 
L 348.960962 153.798966 
L 348.947362 152.237249 
L 350.175385 149.20749 
L 351.357279 146.286138 
L 351.170552 148.050262 
L 351.014549 143.725027 
L 352.610666 144.707464 
L 353.623254 143.827143 
L 354.834528 142.435533 
L 355.778769 140.835718 
L 356.046227 140.84241 
L 356.296577 140.083454 
L 356.649182 133.214943 
L 357.314362 132.646231 
L 358.153042 131.716351 
L 360.227577 135.259195 
L 361.262102 133.755275 
L 362.115949 126.898458 
L 363.051694 130.10828 
L 363.334009 129.449096 
L 363.420266 123.313672 
L 363.931065 122.296032 
L 364.693976 121.177993 
L 363.632366 122.060856 
L 365.498478 118.434559 
L 365.621651 116.549831 
L 364.61389 114.1076 
L 365.376229 114.772297 
L 365.438591 114.388132 
L 365.538856 115.023198 
L 365.070061 119.760463 
L 365.162195 117.78021 
L 365.526036 120.652789 
L 364.917826 119.91386 
L 365.366352 121.51034 
L 365.051884 121.811705 
L 364.343667 117.332569 
L 364.929698 117.229212 
L 364.03193 115.500631 
L 363.698898 113.603927 
L 363.340944 113.956075 
L 362.921732 115.107186 
L 363.168091 121.473026 
L 362.272202 118.593403 
L 361.159784 129.888484 
L 360.064094 136.426148 
L 359.69989 140.208842 
L 360.335489 147.276517 
L 359.332426 149.106647 
L 361.42302 153.266814 
L 359.904531 158.21734 
L 360.076487 160.933626 
L 361.220561 162.531827 
L 361.065867 164.846866 
L 361.398605 168.678609 
L 360.771761 173.481965 
L 361.374287 171.495697 
L 361.869445 174.059154 
L 362.425721 173.695864 
L 363.250483 174.953792 
L 363.432731 172.154484 
L 364.096595 171.102083 
L 364.935162 169.390072 
L 365.185832 167.782408 
L 366.776799 170.50909 
L 366.649184 165.764142 
L 367.539613 171.791457 
L 368.390329 164.63571 
L 369.136768 164.165426 
L 369.980126 165.767514 
L 370.929713 164.313032 
L 371.57761 164.199865 
L 372.549128 164.562969 
L 372.699571 170.254771 
L 374.086774 164.978494 
L 374.889107 165.459644 
L 375.979221 166.424509 
L 376.49856 165.964241 
L 378.231186 167.896956 
L 378.061903 173.716462 
L 379.221136 168.425754 
L 378.360855 173.020387 
L 380.000727 171.715126 
L 380.242752 174.273703 
L 380.316972 177.204163 
L 380.186597 177.217029 
L 380.226417 178.234949 
L 379.138885 178.861456 
L 379.165754 180.770665 
L 378.709114 182.260285 
L 377.527875 184.039536 
L 377.980484 189.436308 
L 377.541013 188.561243 
L 377.133521 191.528506 
L 377.15227 197.829673 
L 375.920952 191.812428 
L 377.010672 200.759723 
L 376.74344 201.663254 
L 376.51578 203.071994 
L 374.962409 208.908448 
L 376.623098 207.304086 
L 375.975993 214.817559 
L 374.442599 216.875359 
L 376.186455 216.667532 
L 377.412937 216.018034 
L 374.609861 220.285817 
L 376.741797 221.937625 
L 376.899065 222.265348 
L 376.286507 216.374374 
L 377.698267 224.332658 
L 377.628705 224.738886 
L 378.408287 224.032113 
L 379.290598 220.796219 
L 379.776023 218.296064 
L 380.567836 215.362689 
L 381.124122 212.875073 
L 383.494046 205.538223 
L 383.440143 203.096452 
L 385.020943 197.724113 
L 384.64895 197.324071 
L 385.524398 194.639279 
L 385.954296 191.925366 
L 384.945044 183.563696 
L 386.450366 186.37514 
L 387.22552 180.43425 
L 386.088096 176.78785 
L 387.627689 175.082566 
L 386.113866 169.301636 
L 387.933084 168.619283 
L 387.707149 167.62086 
L 386.927741 166.154114 
L 387.875704 164.00204 
L 388.345533 167.612346 
L 388.26644 167.059076 
L 388.26427 168.530752 
L 388.629055 172.761968 
L 387.95972 175.48455 
L 388.486254 178.14377 
L 386.0876 180.39359 
L 388.099414 183.950095 
L 387.739197 187.040596 
L 385.183797 190.414557 
L 384.870919 193.597661 
L 386.728276 196.487774 
L 385.848173 200.557614 
L 384.639815 201.907523 
L 384.967281 208.477416 
L 384.698698 209.485365 
L 385.169566 209.046941 
L 384.655756 214.342168 
L 384.173372 215.295775 
L 383.411626 219.431422 
L 383.845318 221.293599 
L 383.76233 222.735757 
L 383.604596 222.932051 
L 383.321549 223.627713 
L 382.91502 223.647953 
L 382.619563 222.461061 
L 381.458334 220.956464 
L 381.086751 221.186422 
L 381.642275 222.726945 
L 381.545499 225.481576 
L 379.264642 236.875808 
L 376.281924 251.678772 
L 375.491742 255.020032 
L 374.672785 259.78605 
L 373.002646 264.741567 
L 373.409787 264.159438 
L 372.9698 266.508076 
L 372.261975 268.907954 
L 370.939653 267.818159 
L 370.975656 267.606562 
L 372.208492 270.502648 
L 370.987864 268.575723 
L 372.586404 269.372575 
L 372.957501 270.950848 
L 373.269734 269.63345 
L 372.11169 269.948437 
L 373.297709 273.285325 
L 373.644155 273.717925 
L 373.904987 274.731934 
L 373.30189 273.836668 
L 375.05242 273.653893 
L 374.337831 275.356065 
L 376.270193 276.353643 
L 377.860468 279.349508 
L 378.853977 280.594141 
L 379.951199 281.693353 
L 379.565137 281.454665 
L 380.6957 282.064625 
L 383.282374 286.070151 
L 383.222935 282.567776 
L 386.973595 283.765099 
L 388.434789 289.166867 
L 390.359432 289.142142 
L 392.038575 289.338118 
L 391.514869 286.632668 
L 394.450419 282.233418 
L 396.217532 282.048054 
L 397.426015 288.225096 
L 401.506116 289.355882 
L 402.063268 282.840293 
L 404.666756 285.219266 
L 405.982857 284.345821 
L 407.081763 283.05038 
L 408.790663 283.4465 
L 410.340154 284.304543 
L 411.091705 284.299296 
L 411.641381 284.486626 
L 412.585036 287.848794 
L 413.320381 286.175953 
L 413.341582 285.29126 
L 413.146461 283.848913 
L 412.272028 282.955205 
L 412.36016 285.082299 
L 410.764929 281.45151 
L 409.522419 279.133988 
L 408.541435 279.120156 
L 407.521511 276.156166 
L 406.734074 275.349507 
L 406.779606 275.364151 
L 405.926524 272.802608 
L 405.799267 269.170293 
L 404.545507 267.285578 
L 404.035563 266.099368 
L 404.200484 267.920953 
L 403.845874 266.003895 
L 403.946206 265.127921 
L 403.799828 264.550235 
L 403.517842 262.82867 
L 403.439314 262.727769 
L 403.722249 263.920672 
L 403.584356 262.094666 
L 403.64612 259.484703 
L 405.270773 257.096526 
L 404.026965 254.516666 
L 404.098859 255.47017 
L 404.36575 252.368985 
L 404.005069 254.002585 
L 404.298782 250.398419 
L 404.99751 252.132944 
L 405.760248 248.334419 
L 406.285559 249.233433 
L 406.637864 248.05443 
L 406.205517 248.789362 
L 406.854444 246.231474 
L 406.633978 246.956438 
L 407.178133 246.710136 
L 409.760738 245.254398 
L 410.135948 246.142944 
L 409.780383 245.35632 
L 410.666492 245.272513 
L 410.632825 245.596986 
L 411.557025 245.431554 
L 411.114151 246.306154 
L 411.439571 245.50837 
L 411.265582 248.66355 
L 412.142514 250.356146 
L 411.286385 251.878049 
L 411.711249 255.834604 
L 413.678043 253.714178 
L 412.344606 257.123587 
L 412.803145 257.559583 
L 412.778049 260.660508 
L 413.552515 265.747791 
L 413.032626 265.478482 
L 413.353075 265.153736 
L 412.939589 268.82867 
L 411.577724 269.81252 
L 413.275886 274.346689 
L 411.917644 272.373754 
L 412.08115 275.979712 
L 411.398109 272.609121 
L 410.331517 274.631476 
L 410.795185 282.08092 
L 409.922301 275.212415 
L 407.813535 280.739902 
L 407.601588 277.171351 
L 407.548034 277.253333 
L 408.074444 282.123444 
L 406.103659 279.297176 
L 404.59971 280.976103 
L 403.821093 282.38511 
L 404.167998 284.992958 
L 403.144067 289.057814 
L 402.341483 286.390537 
L 401.242893 286.80235 
L 400.745805 291.306185 
L 399.545946 289.552992 
L 398.433825 290.658353 
L 398.299492 294.747962 
L 396.720917 292.990608 
L 395.846397 293.149919 
L 394.964117 293.524262 
L 393.640503 293.886926 
L 392.844201 294.307872 
L 392.126112 295.812367 
L 390.695267 294.985175 
L 389.690037 294.885963 
L 388.721656 294.183712 
L 387.847439 294.523696 
L 386.465999 300.087173 
L 385.103433 295.86028 
L 385.340003 297.444761 
L 384.249 297.810101 
L 382.139394 300.350954 
L 381.240341 300.589852 
L 381.387071 300.618436 
L 380.458868 299.85196 
L 377.824199 304.086928 
L 378.153478 304.187297 
L 377.047782 306.157596 
L 377.108194 306.436294 
L 376.223932 308.332903 
L 375.959241 307.858951 
L 375.569886 312.241033 
L 374.939164 314.773303 
L 374.970488 317.528933 
L 375.668981 319.546083 
L 374.953845 320.559947 
L 374.835011 323.035971 
L 375.149431 325.652698 
L 374.623673 325.718383 
L 374.444373 326.86319 
L 374.260463 325.070907 
L 374.091404 326.382479 
L 374.469964 325.778813 
L 374.20998 323.025664 
L 374.094805 322.519109 
L 373.871759 323.716595 
L 373.804422 322.985725 
L 373.938321 321.003945 
L 373.794588 318.770331 
L 372.74606 318.788268 
L 372.235426 314.537566 
L 373.842648 314.776627 
L 372.610948 305.479798 
L 373.690563 302.780996 
L 373.072206 298.212512 
L 372.107428 301.793935 
L 371.960162 297.849383 
L 372.29012 294.254555 
L 373.289042 286.090007 
L 373.211716 282.880569 
L 371.73241 281.095781 
L 371.819359 276.834003 
L 373.220836 274.662903 
L 373.217522 271.698285 
L 371.886881 270.84871 
L 372.249028 269.674611 
L 372.269121 265.96826 
L 373.171079 261.112094 
L 374.617913 256.093904 
L 375.428188 252.397924 
L 377.038445 251.582483 
L 378.47646 248.938188 
L 379.537839 244.914002 
L 380.724971 238.934449 
L 384.584481 238.430532 
L 384.261782 234.207123 
L 387.022108 236.386617 
L 388.859136 234.204809 
L 390.209421 225.24018 
L 392.105748 227.007266 
L 393.737873 234.584062 
L 394.789963 234.984496 
L 395.795482 238.256437 
L 396.150393 237.81536 
L 397.263775 240.97201 
L 399.532347 242.371177 
L 399.218298 248.166446 
L 400.43695 252.790636 
L 401.896932 255.249129 
L 402.786841 257.911739 
L 402.010235 258.874507 
L 405.494684 260.242301 
L 405.901044 263.963976 
L 405.297917 264.995827 
L 405.806293 271.710122 
L 406.313626 274.858753 
L 406.653693 274.454027 
L 407.924803 279.58792 
L 408.798851 280.949589 
L 408.344538 285.332479 
L 409.078158 289.803432 
L 408.508837 292.281296 
L 408.639138 296.654876 
L 410.145548 298.198113 
L 410.08851 300.591231 
L 409.439823 301.999626 
L 409.561895 304.148128 
L 409.883758 304.216882 
L 409.574928 304.003723 
L 410.242464 303.996541 
L 409.605631 302.423258 
L 410.041744 300.913182 
L 410.582982 302.333145 
L 410.842686 299.817375 
L 410.753569 298.398764 
L 412.271242 296.607718 
L 411.182932 294.699523 
L 411.601695 294.993275 
L 411.97974 292.898475 
L 413.781876 288.121638 
L 413.353676 288.518093 
L 415.520351 288.713106 
L 416.501762 288.514656 
L 417.401122 286.329059 
L 417.769637 285.783973 
L 419.184149 284.872076 
L 419.980781 284.527821 
L 419.959832 283.159514 
L 420.730968 281.149433 
L 422.19776 282.351805 
L 422.439021 278.20684 
L 422.731357 278.62173 
L 424.752839 277.759835 
L 424.9647 275.790799 
L 426.607322 277.957904 
L 427.188673 279.55676 
L 428.850592 272.43339 
L 429.873994 277.510256 
L 430.63509 278.950908 
L 430.63509 278.950908 
" clip-path="url(#pe37ac2f594)" style="fill: none; stroke: #ff0000; stroke-opacity: 0.7; stroke-width: 0.75; stroke-linecap: square"/>
   </g>
   <g id="line2d_26">
    <path d="M 306.601157 254.086574 
L 306.588089 254.148132 
L 306.660909 253.139328 
L 306.852087 252.066116 
L 307.034578 249.684804 
L 307.316877 242.13698 
L 307.835724 226.368735 
L 308.073522 225.131841 
L 308.407013 226.862482 
L 308.632173 227.792341 
L 308.694217 227.698546 
L 308.834503 226.33502 
L 308.978587 222.535722 
L 309.200161 216.525228 
L 310.280001 202.852723 
L 310.712199 195.807242 
L 311.438573 188.746476 
L 312.31259 180.928188 
L 312.821089 178.907744 
L 313.25458 177.943412 
L 313.745192 177.471448 
L 314.280855 177.295246 
L 314.846454 177.371436 
L 315.452815 177.805608 
L 316.116525 178.573644 
L 321.003854 185.000758 
L 322.717045 187.091522 
L 325.732625 191.256432 
L 329.505055 196.252916 
L 330.595054 198.266598 
L 331.813991 200.429801 
L 332.924781 201.839683 
L 333.734641 202.840758 
L 335.946891 206.168217 
L 336.892458 207.321616 
L 337.887656 208.240588 
L 339.492915 209.417654 
L 342.923595 211.496929 
L 343.96171 211.923787 
L 344.869192 212.112498 
L 345.254818 212.065857 
L 345.788103 211.765499 
L 345.980811 211.435263 
L 346.113405 210.766187 
L 346.307841 207.676958 
L 346.475865 198.811216 
L 346.546351 185.47724 
L 346.499574 166.878398 
L 346.878461 160.984229 
L 347.297513 157.40832 
L 347.861434 154.365185 
L 348.564064 151.598236 
L 349.787497 147.715832 
L 350.616128 145.742016 
L 352.937399 142.004326 
L 354.887776 139.117349 
L 357.198437 136.036923 
L 359.612622 132.977211 
L 361.060181 130.818606 
L 362.291546 128.435235 
L 363.276872 125.739891 
L 364.016091 122.763509 
L 364.528404 119.716999 
L 365.188983 114.705678 
L 365.25024 116.255329 
L 365.228431 120.241395 
L 365.157687 120.725449 
L 365.050711 120.563513 
L 364.363575 115.862342 
L 364.102984 115.259035 
L 363.805551 115.236087 
L 363.486534 115.837914 
L 363.137429 117.104833 
L 362.420543 121.493499 
L 361.502202 129.92613 
L 360.765547 138.845743 
L 360.424746 145.609411 
L 360.23952 152.824412 
L 360.250082 160.439162 
L 360.470933 167.16887 
L 360.899127 172.012878 
L 361.178409 173.717092 
L 361.495782 174.963454 
L 361.850179 175.631514 
L 362.250261 175.758987 
L 362.688968 175.460815 
L 363.155691 174.663481 
L 364.21964 172.357491 
L 364.82672 171.39845 
L 366.159528 169.952566 
L 367.591228 168.775033 
L 368.340647 168.307236 
L 369.878034 167.874612 
L 371.443934 167.613569 
L 372.24635 167.588676 
L 373.877331 167.89192 
L 375.510139 168.316608 
L 377.002691 168.995694 
L 377.65478 169.387229 
L 378.220186 169.985336 
L 378.688342 170.810516 
L 379.066585 171.748328 
L 379.582349 174.156183 
L 379.755931 177.04831 
L 379.621588 180.123702 
L 379.183796 183.288151 
L 378.094388 188.237736 
L 376.870788 194.078594 
L 376.216611 198.14772 
L 375.732632 202.228593 
L 375.416723 206.301835 
L 375.342325 210.234857 
L 375.515179 213.836949 
L 375.898253 216.864029 
L 376.477684 219.32824 
L 376.843237 220.085644 
L 377.267534 220.378984 
L 377.756741 220.169003 
L 378.297433 219.346945 
L 378.868535 217.912489 
L 380.09824 213.590913 
L 382.578775 203.764 
L 383.724771 198.70759 
L 384.65687 193.757581 
L 385.383935 188.783101 
L 385.948645 183.632954 
L 387.544331 166.304817 
L 387.637341 166.666526 
L 387.68178 169.379326 
L 387.39236 177.677827 
L 386.946702 183.996267 
L 385.66246 196.647184 
L 384.834115 205.694401 
L 384.172284 216.155142 
L 383.850491 220.507051 
L 383.402078 223.049551 
L 383.133556 223.427864 
L 382.838576 223.282094 
L 382.239336 221.790747 
L 381.926351 221.505528 
L 381.593449 221.905379 
L 381.245029 222.95754 
L 380.490045 226.534297 
L 379.082338 233.286403 
L 375.837883 248.022148 
L 371.56123 268.881021 
L 371.777057 269.259386 
L 372.233862 269.653719 
L 372.791358 270.069201 
L 373.053063 270.448069 
L 373.714245 272.547594 
L 374.415043 274.601774 
L 375.523657 276.890633 
L 376.241082 278.076036 
L 377.091904 279.199672 
L 380.278494 282.302396 
L 381.524297 283.376059 
L 382.857517 284.350472 
L 384.309537 285.212446 
L 385.890543 285.720786 
L 387.5905 285.944752 
L 389.396685 285.960727 
L 395.127758 285.598724 
L 397.059484 285.520158 
L 398.976501 285.643005 
L 402.646491 286.205609 
L 404.340289 286.506865 
L 405.9062 286.899212 
L 408.623304 287.269903 
L 409.792217 287.313979 
L 410.819304 287.192758 
L 412.359111 286.63806 
L 412.843303 286.188261 
L 413.103891 285.579468 
L 413.137025 284.89883 
L 412.945194 284.442363 
L 412.551711 283.93648 
L 410.729584 282.248186 
L 409.38308 280.57394 
L 408.094458 278.71078 
L 406.947271 276.647984 
L 406.443693 275.453099 
L 405.621657 272.66048 
L 404.405132 267.165804 
L 403.866044 263.813557 
L 403.651222 260.875765 
L 403.718823 258.769611 
L 404.141631 255.834596 
L 404.897585 251.266635 
L 405.356253 249.765183 
L 406.348388 247.804167 
L 407.22878 246.63666 
L 408.241281 245.813311 
L 409.280667 245.331511 
L 410.278396 245.087532 
L 410.747157 245.118243 
L 411.174123 245.307234 
L 411.535229 245.669455 
L 411.830814 246.243731 
L 412.05503 247.070388 
L 412.328521 249.4565 
L 412.506079 254.488042 
L 412.813595 267.111966 
L 412.656176 270.19366 
L 412.329685 273.130107 
L 411.773419 275.722517 
L 411.386491 276.756505 
L 410.37981 278.48901 
L 409.073588 279.909213 
L 406.066315 282.911915 
L 404.526065 285.186525 
L 402.956295 287.536382 
L 399.785649 291.742563 
L 398.949264 292.604343 
L 397.213316 293.71366 
L 395.413748 294.556653 
L 391.416339 296.229177 
L 388.051202 297.39051 
L 383.670402 299.065519 
L 381.7598 300.102 
L 380.129668 301.255427 
L 379.44116 301.946747 
L 378.259838 303.593397 
L 377.318152 305.563327 
L 376.617286 307.858205 
L 376.0472 311.929665 
L 375.380603 319.894455 
L 374.921865 325.544506 
L 374.6479 326.329964 
L 374.514532 326.056206 
L 373.681304 322.594109 
L 373.388524 321.509583 
L 373.132335 318.539464 
L 372.783591 309.580194 
L 372.579775 298.131059 
L 372.50485 272.648427 
L 372.741714 267.211999 
L 372.993379 264.389617 
L 373.363072 261.528674 
L 373.88069 258.728409 
L 374.550492 255.92132 
L 375.373751 253.012799 
L 376.350746 250.034622 
L 377.488006 247.084848 
L 380.219379 241.358387 
L 381.76861 238.546468 
L 383.417029 235.998114 
L 385.126931 233.601883 
L 386.879273 231.519283 
L 388.656416 230.101679 
L 390.419169 229.56624 
L 392.127867 229.93099 
L 393.75544 230.952853 
L 395.274496 232.609987 
L 396.668509 234.84766 
L 397.914023 237.538864 
L 398.995521 240.454986 
L 400.784685 246.379515 
L 402.215059 252.1973 
L 404.102587 260.922973 
L 405.854454 269.893394 
L 407.349744 278.499578 
L 408.501359 286.357235 
L 409.048748 291.396466 
L 409.377512 296.2146 
L 409.512292 302.460197 
L 409.583267 304.251761 
L 409.666565 304.352366 
L 409.960718 302.90959 
L 410.720981 299.027537 
L 411.453049 296.252281 
L 412.385693 293.673316 
L 413.541253 290.930116 
L 414.223491 289.583653 
L 414.971775 288.439082 
L 416.628716 286.452847 
L 422.749639 279.544203 
L 424.415263 277.916545 
L 425.295375 277.279097 
L 427.212948 276.237587 
L 429.450629 275.402868 
L 432.00329 274.569797 
L 432.00329 274.569797 
" clip-path="url(#pe37ac2f594)" style="fill: none; stroke: #0000ff; stroke-opacity: 0.7; stroke-width: 0.75; stroke-linecap: square"/>
   </g>
   <g id="Path3DCollection_1">
    <defs>
     <path id="m9b13e85d28" d="M 0 3.535534 
C 0.937635 3.535534 1.836992 3.163008 2.5 2.5 
C 3.163008 1.836992 3.535534 0.937635 3.535534 0 
C 3.535534 -0.937635 3.163008 -1.836992 2.5 -2.5 
C 1.836992 -3.163008 0.937635 -3.535534 0 -3.535534 
C -0.937635 -3.535534 -1.836992 -3.163008 -2.5 -2.5 
C -3.163008 -1.836992 -3.535534 -0.937635 -3.535534 0 
C -3.535534 0.937635 -3.163008 1.836992 -2.5 2.5 
C -1.836992 3.163008 -0.937635 3.535534 0 3.535534 
z
" style="stroke: #008000"/>
    </defs>
    <g clip-path="url(#pe37ac2f594)">
     <use xlink:href="#m9b13e85d28" x="306.601157" y="254.086574" style="fill: #008000; stroke: #008000"/>
    </g>
   </g>
   <g id="text_25">
    <!-- 3D Estimated Left Camera Path -->
    <g transform="translate(274.609688 45.84) scale(0.12 -0.12)">
     <defs>
      <path id="DejaVuSans-44" d="M 1259 4147 
L 1259 519 
L 2022 519 
Q 2988 519 3436 956 
Q 3884 1394 3884 2338 
Q 3884 3275 3436 3711 
Q 2988 4147 2022 4147 
L 1259 4147 
z
M 628 4666 
L 1925 4666 
Q 3281 4666 3915 4102 
Q 4550 3538 4550 2338 
Q 4550 1131 3912 565 
Q 3275 0 1925 0 
L 628 0 
L 628 4666 
z
" transform="scale(0.015625)"/>
      <path id="DejaVuSans-45" d="M 628 4666 
L 3578 4666 
L 3578 4134 
L 1259 4134 
L 1259 2753 
L 3481 2753 
L 3481 2222 
L 1259 2222 
L 1259 531 
L 3634 531 
L 3634 0 
L 628 0 
L 628 4666 
z
" transform="scale(0.015625)"/>
      <path id="DejaVuSans-74" d="M 1172 4494 
L 1172 3500 
L 2356 3500 
L 2356 3053 
L 1172 3053 
L 1172 1153 
Q 1172 725 1289 603 
Q 1406 481 1766 481 
L 2356 481 
L 2356 0 
L 1766 0 
Q 1100 0 847 248 
Q 594 497 594 1153 
L 594 3053 
L 172 3053 
L 172 3500 
L 594 3500 
L 594 4494 
L 1172 4494 
z
" transform="scale(0.015625)"/>
      <path id="DejaVuSans-65" d="M 3597 1894 
L 3597 1613 
L 953 1613 
Q 991 1019 1311 708 
Q 1631 397 2203 397 
Q 2534 397 2845 478 
Q 3156 559 3463 722 
L 3463 178 
Q 3153 47 2828 -22 
Q 2503 -91 2169 -91 
Q 1331 -91 842 396 
Q 353 884 353 1716 
Q 353 2575 817 3079 
Q 1281 3584 2069 3584 
Q 2775 3584 3186 3129 
Q 3597 2675 3597 1894 
z
M 3022 2063 
Q 3016 2534 2758 2815 
Q 2500 3097 2075 3097 
Q 1594 3097 1305 2825 
Q 1016 2553 972 2059 
L 3022 2063 
z
" transform="scale(0.015625)"/>
      <path id="DejaVuSans-64" d="M 2906 2969 
L 2906 4863 
L 3481 4863 
L 3481 0 
L 2906 0 
L 2906 525 
Q 2725 213 2448 61 
Q 2172 -91 1784 -91 
Q 1150 -91 751 415 
Q 353 922 353 1747 
Q 353 2572 751 3078 
Q 1150 3584 1784 3584 
Q 2172 3584 2448 3432 
Q 2725 3281 2906 2969 
z
M 947 1747 
Q 947 1113 1208 752 
Q 1469 391 1925 391 
Q 2381 391 2643 752 
Q 2906 1113 2906 1747 
Q 2906 2381 2643 2742 
Q 2381 3103 1925 3103 
Q 1469 3103 1208 2742 
Q 947 2381 947 1747 
z
" transform="scale(0.015625)"/>
      <path id="DejaVuSans-4c" d="M 628 4666 
L 1259 4666 
L 1259 531 
L 3531 531 
L 3531 0 
L 628 0 
L 628 4666 
z
" transform="scale(0.015625)"/>
      <path id="DejaVuSans-66" d="M 2375 4863 
L 2375 4384 
L 1825 4384 
Q 1516 4384 1395 4259 
Q 1275 4134 1275 3809 
L 1275 3500 
L 2222 3500 
L 2222 3053 
L 1275 3053 
L 1275 0 
L 697 0 
L 697 3053 
L 147 3053 
L 147 3500 
L 697 3500 
L 697 3744 
Q 697 4328 969 4595 
Q 1241 4863 1831 4863 
L 2375 4863 
z
" transform="scale(0.015625)"/>
      <path id="DejaVuSans-43" d="M 4122 4306 
L 4122 3641 
Q 3803 3938 3442 4084 
Q 3081 4231 2675 4231 
Q 1875 4231 1450 3742 
Q 1025 3253 1025 2328 
Q 1025 1406 1450 917 
Q 1875 428 2675 428 
Q 3081 428 3442 575 
Q 3803 722 4122 1019 
L 4122 359 
Q 3791 134 3420 21 
Q 3050 -91 2638 -91 
Q 1578 -91 968 557 
Q 359 1206 359 2328 
Q 359 3453 968 4101 
Q 1578 4750 2638 4750 
Q 3056 4750 3426 4639 
Q 3797 4528 4122 4306 
z
" transform="scale(0.015625)"/>
      <path id="DejaVuSans-72" d="M 2631 2963 
Q 2534 3019 2420 3045 
Q 2306 3072 2169 3072 
Q 1681 3072 1420 2755 
Q 1159 2438 1159 1844 
L 1159 0 
L 581 0 
L 581 3500 
L 1159 3500 
L 1159 2956 
Q 1341 3275 1631 3429 
Q 1922 3584 2338 3584 
Q 2397 3584 2469 3576 
Q 2541 3569 2628 3553 
L 2631 2963 
z
" transform="scale(0.015625)"/>
      <path id="DejaVuSans-50" d="M 1259 4147 
L 1259 2394 
L 2053 2394 
Q 2494 2394 2734 2622 
Q 2975 2850 2975 3272 
Q 2975 3691 2734 3919 
Q 2494 4147 2053 4147 
L 1259 4147 
z
M 628 4666 
L 2053 4666 
Q 2838 4666 3239 4311 
Q 3641 3956 3641 3272 
Q 3641 2581 3239 2228 
Q 2838 1875 2053 1875 
L 1259 1875 
L 1259 0 
L 628 0 
L 628 4666 
z
" transform="scale(0.015625)"/>
      <path id="DejaVuSans-68" d="M 3513 2113 
L 3513 0 
L 2938 0 
L 2938 2094 
Q 2938 2591 2744 2837 
Q 2550 3084 2163 3084 
Q 1697 3084 1428 2787 
Q 1159 2491 1159 1978 
L 1159 0 
L 581 0 
L 581 4863 
L 1159 4863 
L 1159 2956 
Q 1366 3272 1645 3428 
Q 1925 3584 2291 3584 
Q 2894 3584 3203 3211 
Q 3513 2838 3513 2113 
z
" transform="scale(0.015625)"/>
     </defs>
     <use xlink:href="#DejaVuSans-33"/>
     <use xlink:href="#DejaVuSans-44" x="63.623047"/>
     <use xlink:href="#DejaVuSans-20" x="140.625"/>
     <use xlink:href="#DejaVuSans-45" x="172.412109"/>
     <use xlink:href="#DejaVuSans-73" x="235.595703"/>
     <use xlink:href="#DejaVuSans-74" x="287.695312"/>
     <use xlink:href="#DejaVuSans-69" x="326.904297"/>
     <use xlink:href="#DejaVuSans-6d" x="354.6875"/>
     <use xlink:href="#DejaVuSans-61" x="452.099609"/>
     <use xlink:href="#DejaVuSans-74" x="513.378906"/>
     <use xlink:href="#DejaVuSans-65" x="552.587891"/>
     <use xlink:href="#DejaVuSans-64" x="614.111328"/>
     <use xlink:href="#DejaVuSans-20" x="677.587891"/>
     <use xlink:href="#DejaVuSans-4c" x="709.375"/>
     <use xlink:href="#DejaVuSans-65" x="763.337891"/>
     <use xlink:href="#DejaVuSans-66" x="824.861328"/>
     <use xlink:href="#DejaVuSans-74" x="858.316406"/>
     <use xlink:href="#DejaVuSans-20" x="897.525391"/>
     <use xlink:href="#DejaVuSans-43" x="929.3125"/>
     <use xlink:href="#DejaVuSans-61" x="999.136719"/>
     <use xlink:href="#DejaVuSans-6d" x="1060.416016"/>
     <use xlink:href="#DejaVuSans-65" x="1157.828125"/>
     <use xlink:href="#DejaVuSans-72" x="1219.351562"/>
     <use xlink:href="#DejaVuSans-61" x="1260.464844"/>
     <use xlink:href="#DejaVuSans-20" x="1321.744141"/>
     <use xlink:href="#DejaVuSans-50" x="1353.53125"/>
     <use xlink:href="#DejaVuSans-61" x="1409.333984"/>
     <use xlink:href="#DejaVuSans-74" x="1470.613281"/>
     <use xlink:href="#DejaVuSans-68" x="1509.822266"/>
    </g>
   </g>
   <g id="Path3DCollection_2">
    <defs>
     <path id="m6a4e086b35" d="M 0 3.535534 
C 0.937635 3.535534 1.836992 3.163008 2.5 2.5 
C 3.163008 1.836992 3.535534 0.937635 3.535534 0 
C 3.535534 -0.937635 3.163008 -1.836992 2.5 -2.5 
C 1.836992 -3.163008 0.937635 -3.535534 0 -3.535534 
C -0.937635 -3.535534 -1.836992 -3.163008 -2.5 -2.5 
C -3.163008 -1.836992 -3.535534 -0.937635 -3.535534 0 
C -3.535534 0.937635 -3.163008 1.836992 -2.5 2.5 
C -1.836992 3.163008 -0.937635 3.535534 0 3.535534 
z
" style="stroke: #ffff00"/>
    </defs>
    <g clip-path="url(#pe37ac2f594)">
     <use xlink:href="#m6a4e086b35" x="306.601157" y="254.086574" style="fill: #ffff00; stroke: #ffff00"/>
    </g>
   </g>
   <g id="legend_1">
    <g id="patch_6">
     <path d="M 405.8825 118.5525 
L 528.32 118.5525 
Q 530.32 118.5525 530.32 116.5525 
L 530.32 58.84 
Q 530.32 56.84 528.32 56.84 
L 405.8825 56.84 
Q 403.8825 56.84 403.8825 58.84 
L 403.8825 116.5525 
Q 403.8825 118.5525 405.8825 118.5525 
z
" style="fill: #ffffff; opacity: 0.8; stroke: #cccccc; stroke-linejoin: miter"/>
    </g>
    <g id="line2d_27">
     <path d="M 407.8825 64.938438 
L 417.8825 64.938438 
L 427.8825 64.938438 
" style="fill: none; stroke: #ff0000; stroke-opacity: 0.7; stroke-width: 0.75; stroke-linecap: square"/>
    </g>
    <g id="text_26">
     <!-- Estimated Path -->
     <g transform="translate(435.8825 68.438438) scale(0.1 -0.1)">
      <use xlink:href="#DejaVuSans-45"/>
      <use xlink:href="#DejaVuSans-73" x="63.183594"/>
      <use xlink:href="#DejaVuSans-74" x="115.283203"/>
      <use xlink:href="#DejaVuSans-69" x="154.492188"/>
      <use xlink:href="#DejaVuSans-6d" x="182.275391"/>
      <use xlink:href="#DejaVuSans-61" x="279.6875"/>
      <use xlink:href="#DejaVuSans-74" x="340.966797"/>
      <use xlink:href="#DejaVuSans-65" x="380.175781"/>
      <use xlink:href="#DejaVuSans-64" x="441.699219"/>
      <use xlink:href="#DejaVuSans-20" x="505.175781"/>
      <use xlink:href="#DejaVuSans-50" x="536.962891"/>
      <use xlink:href="#DejaVuSans-61" x="592.765625"/>
      <use xlink:href="#DejaVuSans-74" x="654.044922"/>
      <use xlink:href="#DejaVuSans-68" x="693.253906"/>
     </g>
    </g>
    <g id="line2d_28">
     <path d="M 407.8825 79.616563 
L 417.8825 79.616563 
L 427.8825 79.616563 
" style="fill: none; stroke: #0000ff; stroke-opacity: 0.7; stroke-width: 0.75; stroke-linecap: square"/>
    </g>
    <g id="text_27">
     <!-- Ground Truth Path -->
     <g transform="translate(435.8825 83.116563) scale(0.1 -0.1)">
      <defs>
       <path id="DejaVuSans-47" d="M 3809 666 
L 3809 1919 
L 2778 1919 
L 2778 2438 
L 4434 2438 
L 4434 434 
Q 4069 175 3628 42 
Q 3188 -91 2688 -91 
Q 1594 -91 976 548 
Q 359 1188 359 2328 
Q 359 3472 976 4111 
Q 1594 4750 2688 4750 
Q 3144 4750 3555 4637 
Q 3966 4525 4313 4306 
L 4313 3634 
Q 3963 3931 3569 4081 
Q 3175 4231 2741 4231 
Q 1884 4231 1454 3753 
Q 1025 3275 1025 2328 
Q 1025 1384 1454 906 
Q 1884 428 2741 428 
Q 3075 428 3337 486 
Q 3600 544 3809 666 
z
" transform="scale(0.015625)"/>
       <path id="DejaVuSans-6f" d="M 1959 3097 
Q 1497 3097 1228 2736 
Q 959 2375 959 1747 
Q 959 1119 1226 758 
Q 1494 397 1959 397 
Q 2419 397 2687 759 
Q 2956 1122 2956 1747 
Q 2956 2369 2687 2733 
Q 2419 3097 1959 3097 
z
M 1959 3584 
Q 2709 3584 3137 3096 
Q 3566 2609 3566 1747 
Q 3566 888 3137 398 
Q 2709 -91 1959 -91 
Q 1206 -91 779 398 
Q 353 888 353 1747 
Q 353 2609 779 3096 
Q 1206 3584 1959 3584 
z
" transform="scale(0.015625)"/>
       <path id="DejaVuSans-75" d="M 544 1381 
L 544 3500 
L 1119 3500 
L 1119 1403 
Q 1119 906 1312 657 
Q 1506 409 1894 409 
Q 2359 409 2629 706 
Q 2900 1003 2900 1516 
L 2900 3500 
L 3475 3500 
L 3475 0 
L 2900 0 
L 2900 538 
Q 2691 219 2414 64 
Q 2138 -91 1772 -91 
Q 1169 -91 856 284 
Q 544 659 544 1381 
z
M 1991 3584 
L 1991 3584 
z
" transform="scale(0.015625)"/>
       <path id="DejaVuSans-6e" d="M 3513 2113 
L 3513 0 
L 2938 0 
L 2938 2094 
Q 2938 2591 2744 2837 
Q 2550 3084 2163 3084 
Q 1697 3084 1428 2787 
Q 1159 2491 1159 1978 
L 1159 0 
L 581 0 
L 581 3500 
L 1159 3500 
L 1159 2956 
Q 1366 3272 1645 3428 
Q 1925 3584 2291 3584 
Q 2894 3584 3203 3211 
Q 3513 2838 3513 2113 
z
" transform="scale(0.015625)"/>
       <path id="DejaVuSans-54" d="M -19 4666 
L 3928 4666 
L 3928 4134 
L 2272 4134 
L 2272 0 
L 1638 0 
L 1638 4134 
L -19 4134 
L -19 4666 
z
" transform="scale(0.015625)"/>
      </defs>
      <use xlink:href="#DejaVuSans-47"/>
      <use xlink:href="#DejaVuSans-72" x="77.490234"/>
      <use xlink:href="#DejaVuSans-6f" x="116.353516"/>
      <use xlink:href="#DejaVuSans-75" x="177.535156"/>
      <use xlink:href="#DejaVuSans-6e" x="240.914062"/>
      <use xlink:href="#DejaVuSans-64" x="304.292969"/>
      <use xlink:href="#DejaVuSans-20" x="367.769531"/>
      <use xlink:href="#DejaVuSans-54" x="399.556641"/>
      <use xlink:href="#DejaVuSans-72" x="445.890625"/>
      <use xlink:href="#DejaVuSans-75" x="487.003906"/>
      <use xlink:href="#DejaVuSans-74" x="550.382812"/>
      <use xlink:href="#DejaVuSans-68" x="589.591797"/>
      <use xlink:href="#DejaVuSans-20" x="652.970703"/>
      <use xlink:href="#DejaVuSans-50" x="684.757812"/>
      <use xlink:href="#DejaVuSans-61" x="740.560547"/>
      <use xlink:href="#DejaVuSans-74" x="801.839844"/>
      <use xlink:href="#DejaVuSans-68" x="841.048828"/>
     </g>
    </g>
    <g id="Path3DCollection_3">
     <g>
      <use xlink:href="#m9b13e85d28" x="417.8825" y="95.169688" style="fill: #008000; stroke: #008000"/>
     </g>
    </g>
    <g id="text_28">
     <!-- origin gt -->
     <g transform="translate(435.8825 97.794688) scale(0.1 -0.1)">
      <defs>
       <path id="DejaVuSans-67" d="M 2906 1791 
Q 2906 2416 2648 2759 
Q 2391 3103 1925 3103 
Q 1463 3103 1205 2759 
Q 947 2416 947 1791 
Q 947 1169 1205 825 
Q 1463 481 1925 481 
Q 2391 481 2648 825 
Q 2906 1169 2906 1791 
z
M 3481 434 
Q 3481 -459 3084 -895 
Q 2688 -1331 1869 -1331 
Q 1566 -1331 1297 -1286 
Q 1028 -1241 775 -1147 
L 775 -588 
Q 1028 -725 1275 -790 
Q 1522 -856 1778 -856 
Q 2344 -856 2625 -561 
Q 2906 -266 2906 331 
L 2906 616 
Q 2728 306 2450 153 
Q 2172 0 1784 0 
Q 1141 0 747 490 
Q 353 981 353 1791 
Q 353 2603 747 3093 
Q 1141 3584 1784 3584 
Q 2172 3584 2450 3431 
Q 2728 3278 2906 2969 
L 2906 3500 
L 3481 3500 
L 3481 434 
z
" transform="scale(0.015625)"/>
      </defs>
      <use xlink:href="#DejaVuSans-6f"/>
      <use xlink:href="#DejaVuSans-72" x="61.181641"/>
      <use xlink:href="#DejaVuSans-69" x="102.294922"/>
      <use xlink:href="#DejaVuSans-67" x="130.078125"/>
      <use xlink:href="#DejaVuSans-69" x="193.554688"/>
      <use xlink:href="#DejaVuSans-6e" x="221.337891"/>
      <use xlink:href="#DejaVuSans-20" x="284.716797"/>
      <use xlink:href="#DejaVuSans-67" x="316.503906"/>
      <use xlink:href="#DejaVuSans-74" x="379.980469"/>
     </g>
    </g>
    <g id="Path3DCollection_4">
     <g>
      <use xlink:href="#m6a4e086b35" x="417.8825" y="109.847813" style="fill: #ffff00; stroke: #ffff00"/>
     </g>
    </g>
    <g id="text_29">
     <!-- origin est -->
     <g transform="translate(435.8825 112.472813) scale(0.1 -0.1)">
      <use xlink:href="#DejaVuSans-6f"/>
      <use xlink:href="#DejaVuSans-72" x="61.181641"/>
      <use xlink:href="#DejaVuSans-69" x="102.294922"/>
      <use xlink:href="#DejaVuSans-67" x="130.078125"/>
      <use xlink:href="#DejaVuSans-69" x="193.554688"/>
      <use xlink:href="#DejaVuSans-6e" x="221.337891"/>
      <use xlink:href="#DejaVuSans-20" x="284.716797"/>
      <use xlink:href="#DejaVuSans-65" x="316.503906"/>
      <use xlink:href="#DejaVuSans-73" x="378.027344"/>
      <use xlink:href="#DejaVuSans-74" x="430.126953"/>
     </g>
    </g>
   </g>
  </g>
 </g>
 <defs>
  <clipPath id="pe37ac2f594">
   <rect x="202.68" y="51.84" width="332.64" height="332.64"/>
  </clipPath>
 </defs>
</svg>
